<svg width="46" height="46" viewBox="0 0 46 46" fill="none" xmlns="http://www.w3.org/2000/svg">
<circle cx="23" cy="23" r="23" fill="#FCF7EE"/>
<path d="M30.1103 15.3004C29.765 15.1886 29.3994 15.1176 29.0236 15.0769C24.2298 14.5894 23.0009 19.1597 23.0009 19.1597C23.0009 19.1597 21.772 14.5894 16.9884 15.0769C12.54 15.5238 10.204 21.1301 13.1189 25.8426C13.9517 27.1933 15.2517 28.6457 16.6431 29.9965C19.4361 32.7082 22.5845 34.9629 23.0009 34.9629C23.6306 34.9629 30.3642 29.9152 32.883 25.8527C35.554 21.5363 33.8275 16.4683 30.1103 15.3004Z" fill="#FC4F4F"/>
<path opacity="0.15" d="M32.8805 25.843C35.5516 21.5367 33.825 16.4687 30.1078 15.3008C30.1078 15.3008 33.8148 18.8758 31.682 22.5523C29.5492 26.2289 22.4195 30.7992 21.4141 30.9617C20.5812 31.0937 18.4688 30.9008 16.6406 30.007C19.4336 32.7188 22.582 34.9734 22.9984 34.9734C23.6281 34.9633 30.3617 29.9156 32.8805 25.843Z" fill="black"/>
<path opacity="0.3" d="M16.1178 19.4774C17.0186 18.4103 17.3112 17.1758 16.7712 16.7199C16.2313 16.264 15.0633 16.7595 14.1624 17.8266C13.2615 18.8936 12.969 20.1282 13.5089 20.5841C14.0489 21.0399 15.2169 20.5444 16.1178 19.4774Z" fill="white"/>
</svg>
