<svg width="111" height="109" viewBox="0 0 111 109" fill="none" xmlns="http://www.w3.org/2000/svg">
<rect width="111" height="109" rx="14" fill="white"/>
<path fill-rule="evenodd" clip-rule="evenodd" d="M39.4394 50.6012C39.4195 50.6012 39.3995 50.6012 39.3995 50.6012C39.2004 50.5813 39.041 50.402 39.041 50.2028V27.7951C39.041 26.4008 39.9971 25.2456 41.1722 25.2456H47.6655C47.785 25.2456 47.9244 25.3054 47.9842 25.4249L50.9321 29.767H64.3767C65.5519 29.767 66.5079 30.9023 66.5079 32.2966V33.5116C66.5079 33.7307 66.3287 33.9099 66.1096 33.9099H44.0404C43.164 33.9099 42.8254 35.2046 42.7059 35.7424L39.8178 50.2825C39.7979 50.4618 39.6186 50.6012 39.4394 50.6012Z" fill="#FEAE2E"/>
<path fill-rule="evenodd" clip-rule="evenodd" d="M39.4394 50.6018C39.4195 50.6018 39.3995 50.6018 39.3995 50.6018C39.2004 50.5819 39.041 50.4026 39.041 50.2034V47.4348L41.4113 35.4841C41.6702 34.1097 42.447 32.5959 44.0404 32.5959H66.5079V33.5122C66.5079 33.7313 66.3287 33.9105 66.1096 33.9105H44.0404C43.164 33.9105 42.8254 35.2052 42.7059 35.743L39.8178 50.2831C39.7979 50.4624 39.6186 50.6018 39.4394 50.6018Z" fill="#FE9D29"/>
<path fill-rule="evenodd" clip-rule="evenodd" d="M39.8164 49.7451H65.0525V32.4961C65.0525 31.9384 64.5944 31.5002 64.0566 31.5002H40.8123C40.2745 31.5002 39.8164 31.9384 39.8164 32.4961V49.7451Z" fill="white"/>
<path fill-rule="evenodd" clip-rule="evenodd" d="M39.8164 49.7453H65.0525V32.5959H44.039C42.4456 32.5959 41.6688 34.1097 41.4098 35.4841L39.8164 43.4712V49.7453Z" fill="#E8E8E8"/>
<path fill-rule="evenodd" clip-rule="evenodd" d="M41.0701 52.7323H41.0502C41.0103 52.7323 40.9705 52.7323 40.9307 52.7323C40.7116 52.6925 40.5522 52.4933 40.5921 52.2742C40.612 52.0551 40.8112 51.9157 41.0303 51.9356H41.09C41.3091 51.9555 41.4884 52.1547 41.4685 52.3738C41.4485 52.573 41.2892 52.7323 41.0701 52.7323Z" fill="black"/>
<path fill-rule="evenodd" clip-rule="evenodd" d="M67.9612 52.733H41.1715C40.554 52.733 39.9366 52.4342 39.5183 51.9163C39.1 51.3985 38.9207 50.7412 39.0403 50.1237L41.9284 35.5836C42.2271 34.03 43.0039 33.1138 44.0397 33.1138H70.8294C71.4269 33.1138 72.0444 33.4325 72.4825 33.9503C72.9008 34.4682 73.0801 35.1255 72.9606 35.7429L70.0924 50.2831C69.7737 51.8367 68.9969 52.733 67.9612 52.733Z" fill="#FFCC32"/>
<path fill-rule="evenodd" clip-rule="evenodd" d="M67.9612 52.7327H41.1715C40.554 52.7327 39.9366 52.434 39.5183 51.9161C39.1 51.3982 38.9207 50.7409 39.0403 50.1235L39.3191 48.769H70.3912L70.0924 50.2828C69.7737 51.8364 68.9969 52.7327 67.9612 52.7327Z" fill="#FFB82D"/>
<path fill-rule="evenodd" clip-rule="evenodd" d="M65.75 38.1124H46.2304C46.0113 38.1124 45.832 37.9331 45.832 37.714C45.832 37.4949 46.0113 37.3157 46.2304 37.3157H65.75C65.9691 37.3157 66.1484 37.4949 66.1484 37.714C66.1484 37.9331 65.9691 38.1124 65.75 38.1124Z" fill="#FE9D29"/>
<path fill-rule="evenodd" clip-rule="evenodd" d="M65.75 41.7378H46.2304C46.0113 41.7378 45.832 41.5585 45.832 41.3394C45.832 41.1203 46.0113 40.941 46.2304 40.941H65.75C65.9691 40.941 66.1484 41.1203 66.1484 41.3394C66.1484 41.5585 65.9691 41.7378 65.75 41.7378Z" fill="#FE9D29"/>
<path fill-rule="evenodd" clip-rule="evenodd" d="M65.75 45.3621H46.2304C46.0113 45.3621 45.832 45.1829 45.832 44.9638C45.832 44.7447 46.0113 44.5654 46.2304 44.5654H65.75C65.9691 44.5654 66.1484 44.7447 66.1484 44.9638C66.1484 45.1829 65.9691 45.3621 65.75 45.3621Z" fill="#FE9D29"/>
<path d="M34.2195 69.3636C34.1599 68.8598 33.9179 68.4688 33.4937 68.1903C33.0694 67.9119 32.5491 67.7727 31.9326 67.7727C31.4818 67.7727 31.0874 67.8456 30.7494 67.9915C30.4146 68.1373 30.1528 68.3378 29.9639 68.593C29.7782 68.8482 29.6854 69.1383 29.6854 69.4631C29.6854 69.7348 29.7501 69.9685 29.8793 70.1641C30.0119 70.3563 30.1809 70.517 30.3864 70.6463C30.5919 70.7723 30.8074 70.8767 31.0327 70.9595C31.2581 71.0391 31.4653 71.1037 31.6542 71.1534L32.6883 71.4318C32.9534 71.5014 33.2484 71.5975 33.5732 71.7202C33.9014 71.8428 34.2146 72.0102 34.5129 72.2223C34.8145 72.4311 35.063 72.6996 35.2586 73.0277C35.4541 73.3558 35.5519 73.7585 35.5519 74.2358C35.5519 74.786 35.4077 75.2831 35.1194 75.7273C34.8344 76.1714 34.4167 76.5244 33.8666 76.7862C33.3197 77.0481 32.6551 77.179 31.8729 77.179C31.1438 77.179 30.5124 77.0613 29.9788 76.826C29.4485 76.5907 29.0309 76.2625 28.7259 75.8416C28.4243 75.4207 28.2536 74.9318 28.2139 74.375H29.4866C29.5197 74.7595 29.649 75.0777 29.8744 75.3295C30.1031 75.5781 30.3914 75.7637 30.7394 75.8864C31.0907 76.0057 31.4686 76.0653 31.8729 76.0653C32.3436 76.0653 32.7662 75.9891 33.1407 75.8366C33.5152 75.6809 33.8119 75.4654 34.0306 75.1903C34.2494 74.9119 34.3587 74.5871 34.3587 74.2159C34.3587 73.8778 34.2643 73.6027 34.0754 73.3906C33.8864 73.1785 33.6379 73.0062 33.3296 72.8736C33.0214 72.741 32.6883 72.625 32.3303 72.5256L31.0775 72.1676C30.282 71.9389 29.6523 71.6125 29.1883 71.1882C28.7243 70.764 28.4923 70.2088 28.4923 69.5227C28.4923 68.9527 28.6464 68.4555 28.9546 68.0312C29.2662 67.6037 29.6838 67.2723 30.2075 67.0369C30.7344 66.7983 31.3228 66.679 31.9724 66.679C32.6286 66.679 33.212 66.7966 33.7224 67.032C34.2328 67.264 34.6371 67.5821 34.9354 67.9865C35.2371 68.3909 35.3961 68.8499 35.4127 69.3636H34.2195ZM40.4817 77.1591C39.7459 77.1591 39.1112 76.9967 38.5776 76.6719C38.0473 76.3438 37.6379 75.8864 37.3496 75.2997C37.0646 74.7098 36.922 74.0237 36.922 73.2415C36.922 72.4593 37.0646 71.7699 37.3496 71.1733C37.6379 70.5734 38.039 70.1061 38.5527 69.7713C39.0698 69.4332 39.673 69.2642 40.3624 69.2642C40.7601 69.2642 41.1529 69.3305 41.5406 69.4631C41.9284 69.5956 42.2814 69.8111 42.5996 70.1094C42.9178 70.4044 43.1713 70.7955 43.3603 71.2827C43.5492 71.7699 43.6436 72.3698 43.6436 73.0824V73.5795H37.7573V72.5653H42.4504C42.4504 72.1345 42.3643 71.75 42.1919 71.4119C42.0229 71.0739 41.7809 70.8071 41.4661 70.6115C41.1545 70.416 40.7866 70.3182 40.3624 70.3182C39.8951 70.3182 39.4907 70.4342 39.1493 70.6662C38.8112 70.8949 38.5511 71.1932 38.3688 71.5611C38.1865 71.929 38.0953 72.3234 38.0953 72.7443V73.4205C38.0953 73.9972 38.1948 74.486 38.3936 74.8871C38.5958 75.2848 38.8759 75.5881 39.2338 75.7969C39.5918 76.0024 40.0077 76.1051 40.4817 76.1051C40.7899 76.1051 41.0683 76.062 41.3169 75.9759C41.5688 75.8864 41.7859 75.7538 41.9682 75.5781C42.1505 75.3991 42.2914 75.1771 42.3908 74.9119L43.5243 75.2301C43.405 75.6146 43.2045 75.9527 42.9228 76.2443C42.641 76.5327 42.293 76.758 41.8787 76.9205C41.4644 77.0795 40.9987 77.1591 40.4817 77.1591ZM48.3907 77.1591C47.6748 77.1591 47.0583 76.9901 46.5413 76.652C46.0242 76.3139 45.6265 75.8482 45.3481 75.255C45.0697 74.6617 44.9305 73.9839 44.9305 73.2216C44.9305 72.446 45.073 71.7616 45.358 71.1683C45.6464 70.5717 46.0474 70.1061 46.5612 69.7713C47.0782 69.4332 47.6814 69.2642 48.3708 69.2642C48.9078 69.2642 49.3917 69.3636 49.8225 69.5625C50.2534 69.7614 50.6064 70.0398 50.8815 70.3977C51.1566 70.7557 51.3273 71.1733 51.3935 71.6506H50.2203C50.1308 71.3026 49.9319 70.9943 49.6237 70.7259C49.3187 70.4541 48.9078 70.3182 48.3907 70.3182C47.9333 70.3182 47.5323 70.4375 47.1876 70.6761C46.8462 70.9115 46.5794 71.2446 46.3872 71.6754C46.1982 72.103 46.1038 72.6051 46.1038 73.1818C46.1038 73.7718 46.1966 74.2855 46.3822 74.723C46.5711 75.1605 46.8363 75.5002 47.1776 75.7422C47.5223 75.9841 47.9267 76.1051 48.3907 76.1051C48.6956 76.1051 48.9724 76.0521 49.221 75.946C49.4695 75.84 49.68 75.6875 49.8524 75.4886C50.0247 75.2898 50.1473 75.0511 50.2203 74.7727H51.3935C51.3273 75.2235 51.1632 75.6295 50.9014 75.9908C50.6428 76.3487 50.2998 76.6338 49.8722 76.8459C49.448 77.0547 48.9542 77.1591 48.3907 77.1591ZM57.7812 73.8778V69.3636H58.9545V77H57.7812V75.7074H57.7017C57.5227 76.0952 57.2443 76.425 56.8665 76.6967C56.4886 76.9652 56.0114 77.0994 55.4347 77.0994C54.9574 77.0994 54.5331 76.995 54.1619 76.7862C53.7907 76.5741 53.499 76.2559 53.2869 75.8317C53.0748 75.4041 52.9687 74.8655 52.9687 74.2159V69.3636H54.142V74.1364C54.142 74.6932 54.2978 75.1373 54.6094 75.4688C54.9242 75.8002 55.3253 75.9659 55.8125 75.9659C56.1042 75.9659 56.4008 75.8913 56.7024 75.7422C57.0073 75.593 57.2625 75.3643 57.468 75.0561C57.6768 74.7479 57.7812 74.3551 57.7812 73.8778ZM60.9635 77V69.3636H62.097V70.517H62.1766C62.3158 70.1392 62.5677 69.8326 62.9323 69.5973C63.2968 69.362 63.7078 69.2443 64.1652 69.2443C64.2514 69.2443 64.3591 69.246 64.4884 69.2493C64.6176 69.2526 64.7154 69.2576 64.7817 69.2642V70.4574C64.7419 70.4474 64.6508 70.4325 64.5083 70.4126C64.3691 70.3894 64.2216 70.3778 64.0658 70.3778C63.6946 70.3778 63.3631 70.4557 63.0715 70.6115C62.7831 70.764 62.5544 70.9761 62.3854 71.2479C62.2197 71.5163 62.1368 71.8229 62.1368 72.1676V77H60.9635ZM66.0325 77V69.3636H67.2058V77H66.0325ZM66.6291 68.0909C66.4004 68.0909 66.2032 68.013 66.0375 67.8572C65.8751 67.7015 65.7939 67.5142 65.7939 67.2955C65.7939 67.0767 65.8751 66.8894 66.0375 66.7337C66.2032 66.5779 66.4004 66.5 66.6291 66.5C66.8578 66.5 67.0533 66.5779 67.2157 66.7337C67.3815 66.8894 67.4643 67.0767 67.4643 67.2955C67.4643 67.5142 67.3815 67.7015 67.2157 67.8572C67.0533 68.013 66.8578 68.0909 66.6291 68.0909ZM70.3881 72.4062V77H69.2148V69.3636H70.3483V70.5568H70.4477C70.6267 70.169 70.8985 69.8575 71.2631 69.6222C71.6276 69.3835 72.0983 69.2642 72.675 69.2642C73.192 69.2642 73.6445 69.3703 74.0322 69.5824C74.42 69.7912 74.7216 70.1094 74.9371 70.5369C75.1525 70.9612 75.2602 71.4981 75.2602 72.1477V77H74.0869V72.2273C74.0869 71.6274 73.9311 71.16 73.6196 70.8253C73.308 70.4872 72.8805 70.3182 72.3369 70.3182C71.9624 70.3182 71.6276 70.3994 71.3327 70.5618C71.041 70.7242 70.8106 70.9612 70.6416 71.2727C70.4726 71.5843 70.3881 71.9621 70.3881 72.4062ZM80.3466 80.0227C79.7798 80.0227 79.2926 79.9498 78.885 79.804C78.4773 79.6615 78.1376 79.4725 77.8658 79.2372C77.5973 79.0052 77.3835 78.7566 77.2244 78.4915L78.1591 77.8352C78.2652 77.9744 78.3994 78.1335 78.5618 78.3125C78.7242 78.4948 78.9463 78.6522 79.228 78.7848C79.513 78.9207 79.8859 78.9886 80.3466 78.9886C80.9631 78.9886 81.4718 78.8395 81.8729 78.5412C82.2739 78.2429 82.4744 77.7756 82.4744 77.1392V75.5881H82.375C82.2888 75.7273 82.1662 75.8996 82.0071 76.1051C81.8513 76.3073 81.626 76.4879 81.331 76.647C81.0393 76.8028 80.6449 76.8807 80.1477 76.8807C79.5313 76.8807 78.9778 76.7348 78.4872 76.4432C78 76.1515 77.6139 75.7273 77.3288 75.1705C77.0471 74.6136 76.9063 73.9375 76.9063 73.142C76.9063 72.3598 77.0438 71.6787 77.3189 71.0987C77.594 70.5154 77.9768 70.0646 78.4673 69.7464C78.9579 69.425 79.5246 69.2642 80.1676 69.2642C80.6648 69.2642 81.0592 69.3471 81.3509 69.5128C81.6458 69.6752 81.8712 69.8608 82.027 70.0696C82.1861 70.2751 82.3087 70.4441 82.3949 70.5767H82.5142V69.3636H83.6477V77.2188C83.6477 77.875 83.4986 78.4086 83.2003 78.8196C82.9053 79.2339 82.5076 79.5372 82.0071 79.7294C81.51 79.925 80.9565 80.0227 80.3466 80.0227ZM80.3068 75.8267C80.7775 75.8267 81.1752 75.719 81.5 75.5036C81.8248 75.2881 82.0717 74.9782 82.2408 74.5739C82.4098 74.1695 82.4943 73.6856 82.4943 73.1222C82.4943 72.572 82.4115 72.0864 82.2458 71.6655C82.08 71.2446 81.8348 70.9148 81.51 70.6761C81.1851 70.4375 80.7841 70.3182 80.3068 70.3182C79.8097 70.3182 79.3954 70.4441 79.0639 70.696C78.7358 70.9479 78.4889 71.286 78.3232 71.7102C78.1608 72.1345 78.0796 72.6051 78.0796 73.1222C78.0796 73.6525 78.1624 74.1214 78.3281 74.5291C78.4972 74.9335 78.7458 75.2517 79.0739 75.4837C79.4053 75.7124 79.8163 75.8267 80.3068 75.8267ZM45.3881 94.1591C44.7517 94.1591 44.1899 93.9983 43.7027 93.6768C43.2155 93.352 42.8343 92.8946 42.5593 92.3047C42.2842 91.7114 42.1466 91.0104 42.1466 90.2017C42.1466 89.3996 42.2842 88.7036 42.5593 88.1136C42.8343 87.5237 43.2172 87.0679 43.7077 86.7464C44.1982 86.425 44.765 86.2642 45.408 86.2642C45.9051 86.2642 46.2979 86.3471 46.5862 86.5128C46.8779 86.6752 47.1 86.8608 47.2524 87.0696C47.4082 87.2751 47.5292 87.4441 47.6154 87.5767H47.7148V83.8182H48.8881V94H47.7546V92.8267H47.6154C47.5292 92.9659 47.4066 93.1416 47.2475 93.3537C47.0884 93.5625 46.8613 93.7498 46.5664 93.9155C46.2714 94.0779 45.8786 94.1591 45.3881 94.1591ZM45.5472 93.1051C46.0178 93.1051 46.4156 92.9825 46.7404 92.7372C47.0652 92.4886 47.3121 92.1456 47.4811 91.7081C47.6502 91.2673 47.7347 90.7585 47.7347 90.1818C47.7347 89.6117 47.6518 89.1129 47.4861 88.6854C47.3204 88.2545 47.0751 87.9197 46.7503 87.6811C46.4255 87.4392 46.0245 87.3182 45.5472 87.3182C45.05 87.3182 44.6357 87.4458 44.3043 87.701C43.9762 87.9529 43.7292 88.2959 43.5635 88.7301C43.4011 89.161 43.3199 89.6449 43.3199 90.1818C43.3199 90.7254 43.4028 91.2192 43.5685 91.6634C43.7375 92.1042 43.9861 92.4555 44.3142 92.7173C44.6457 92.9759 45.0566 93.1051 45.5472 93.1051ZM53.307 94.179C52.8231 94.179 52.384 94.0878 51.9896 93.9055C51.5952 93.7199 51.2819 93.4531 51.0499 93.1051C50.8179 92.7538 50.7019 92.3295 50.7019 91.8324C50.7019 91.3949 50.7881 91.0402 50.9604 90.7685C51.1328 90.4934 51.3631 90.2779 51.6515 90.1222C51.9399 89.9664 52.258 89.8504 52.606 89.7741C52.9574 89.6946 53.3104 89.6316 53.665 89.5852C54.129 89.5256 54.5052 89.4808 54.7935 89.451C55.0852 89.4179 55.2973 89.3632 55.4299 89.2869C55.5658 89.2107 55.6337 89.0781 55.6337 88.8892V88.8494C55.6337 88.3589 55.4995 87.9777 55.231 87.706C54.9659 87.4342 54.5632 87.2983 54.0229 87.2983C53.4628 87.2983 53.0237 87.4209 52.7055 87.6662C52.3873 87.9115 52.1636 88.1733 52.0343 88.4517L50.9207 88.054C51.1195 87.59 51.3847 87.2287 51.7161 86.9702C52.0509 86.7083 52.4155 86.526 52.8099 86.4233C53.2076 86.3172 53.5987 86.2642 53.9832 86.2642C54.2284 86.2642 54.5102 86.294 54.8283 86.3537C55.1498 86.41 55.4597 86.5277 55.758 86.7067C56.0596 86.8857 56.3099 87.1558 56.5087 87.517C56.7076 87.8783 56.807 88.3622 56.807 88.9688V94H55.6337V92.9659H55.5741C55.4945 93.1316 55.362 93.3089 55.1764 93.4979C54.9908 93.6868 54.7438 93.8475 54.4356 93.9801C54.1274 94.1127 53.7512 94.179 53.307 94.179ZM53.486 93.125C53.95 93.125 54.3411 93.0339 54.6593 92.8516C54.9808 92.6693 55.2228 92.4339 55.3852 92.1456C55.5509 91.8572 55.6337 91.554 55.6337 91.2358V90.1619C55.584 90.2216 55.4747 90.2763 55.3056 90.326C55.1399 90.3724 54.9477 90.4138 54.7289 90.4503C54.5135 90.4834 54.303 90.5133 54.0975 90.5398C53.8953 90.563 53.7313 90.5829 53.6053 90.5994C53.3004 90.6392 53.0154 90.7038 52.7502 90.7933C52.4884 90.8795 52.2763 91.0104 52.1139 91.1861C51.9548 91.3584 51.8752 91.5937 51.8752 91.892C51.8752 92.2997 52.026 92.608 52.3276 92.8168C52.6326 93.0223 53.0187 93.125 53.486 93.125ZM62.1296 86.3636V87.358H58.1722V86.3636H62.1296ZM59.3256 84.5341H60.4989V91.8125C60.4989 92.1439 60.547 92.3925 60.6431 92.5582C60.7425 92.7206 60.8684 92.83 61.0209 92.8864C61.1767 92.9394 61.3407 92.9659 61.5131 92.9659C61.6424 92.9659 61.7484 92.9593 61.8313 92.946C61.9141 92.9295 61.9804 92.9162 62.0301 92.9062L62.2688 93.9602C62.1892 93.9901 62.0782 94.0199 61.9357 94.0497C61.7932 94.0829 61.6125 94.0994 61.3938 94.0994C61.0623 94.0994 60.7375 94.0282 60.4193 93.8857C60.1045 93.7431 59.8426 93.526 59.6338 93.2344C59.4283 92.9427 59.3256 92.5748 59.3256 92.1307V84.5341ZM66.0016 94.179C65.5177 94.179 65.0786 94.0878 64.6842 93.9055C64.2898 93.7199 63.9766 93.4531 63.7445 93.1051C63.5125 92.7538 63.3965 92.3295 63.3965 91.8324C63.3965 91.3949 63.4827 91.0402 63.6551 90.7685C63.8274 90.4934 64.0578 90.2779 64.3461 90.1222C64.6345 89.9664 64.9526 89.8504 65.3007 89.7741C65.652 89.6946 66.005 89.6316 66.3596 89.5852C66.8236 89.5256 67.1998 89.4808 67.4882 89.451C67.7798 89.4179 67.9919 89.3632 68.1245 89.2869C68.2604 89.2107 68.3284 89.0781 68.3284 88.8892V88.8494C68.3284 88.3589 68.1941 87.9777 67.9257 87.706C67.6605 87.4342 67.2578 87.2983 66.7176 87.2983C66.1574 87.2983 65.7183 87.4209 65.4001 87.6662C65.0819 87.9115 64.8582 88.1733 64.7289 88.4517L63.6153 88.054C63.8141 87.59 64.0793 87.2287 64.4107 86.9702C64.7455 86.7083 65.1101 86.526 65.5045 86.4233C65.9022 86.3172 66.2933 86.2642 66.6778 86.2642C66.9231 86.2642 67.2048 86.294 67.523 86.3537C67.8445 86.41 68.1543 86.5277 68.4526 86.7067C68.7543 86.8857 69.0045 87.1558 69.2034 87.517C69.4022 87.8783 69.5016 88.3622 69.5016 88.9688V94H68.3284V92.9659H68.2687C68.1891 93.1316 68.0566 93.3089 67.871 93.4979C67.6854 93.6868 67.4384 93.8475 67.1302 93.9801C66.822 94.1127 66.4458 94.179 66.0016 94.179ZM66.1806 93.125C66.6446 93.125 67.0357 93.0339 67.3539 92.8516C67.6754 92.6693 67.9174 92.4339 68.0798 92.1456C68.2455 91.8572 68.3284 91.554 68.3284 91.2358V90.1619C68.2786 90.2216 68.1693 90.2763 68.0002 90.326C67.8345 90.3724 67.6423 90.4138 67.4235 90.4503C67.2081 90.4834 66.9976 90.5133 66.7921 90.5398C66.59 90.563 66.4259 90.5829 66.2999 90.5994C65.995 90.6392 65.71 90.7038 65.4448 90.7933C65.183 90.8795 64.9709 91.0104 64.8085 91.1861C64.6494 91.3584 64.5698 91.5937 64.5698 91.892C64.5698 92.2997 64.7206 92.608 65.0222 92.8168C65.3272 93.0223 65.7133 93.125 66.1806 93.125Z" fill="black"/>
</svg>
