<svg width="268" height="154" viewBox="0 0 268 154" fill="none" xmlns="http://www.w3.org/2000/svg">
<g filter="url(#filter0_d_2686_465)">
<rect x="14.875" y="8.61182" width="238" height="123.697" rx="11.7434" fill="#4E54C8"/>
<rect width="116.651" height="86.1184" transform="translate(28.9668 24.2698)" fill="#4E54C8"/>
<circle cx="47.3648" cy="42.6678" r="18.398" fill="white" fill-opacity="0.11"/>
<g clip-path="url(#clip0_2686_465)">
<path fill-rule="evenodd" clip-rule="evenodd" d="M40.1448 36.2273H41.6961C42.6769 36.2273 43.4795 37.0299 43.4795 38.0107V38.0498H52.4757C53.35 38.0498 54.0647 38.7654 54.0647 39.6398V49.7597C54.0647 50.635 53.35 51.3497 52.4757 51.3497H40.1448C39.1776 51.3497 38.3613 50.8024 38.3613 49.7597V39.6398V38.0107C38.3613 37.0299 39.1635 36.2273 40.1448 36.2273Z" fill="#FEA832"/>
<path fill-rule="evenodd" clip-rule="evenodd" d="M42.5322 33.9863H50.747C51.0132 33.9863 51.2323 34.2047 51.2323 34.4717V43.5935C51.2323 43.8608 51.0129 44.0788 50.747 44.0788H42.5322C42.2649 44.0788 42.0469 43.8604 42.0469 43.5935V34.4717C42.0465 34.2044 42.2649 33.9863 42.5322 33.9863Z" fill="#CCCCCC"/>
<path fill-rule="evenodd" clip-rule="evenodd" d="M43.9853 35.4388H52.1991C52.4664 35.4388 52.6844 35.6572 52.6844 35.9242V45.046C52.6844 45.3122 52.466 45.5306 52.1991 45.5306H43.9853C43.718 45.5306 43.5 45.3122 43.5 45.046V35.9242C43.4996 35.6569 43.718 35.4388 43.9853 35.4388Z" fill="#F3F3F3"/>
<path fill-rule="evenodd" clip-rule="evenodd" d="M53.1146 51.215C52.8744 51.3019 52.6251 51.3497 52.3761 51.3497H40.1457C39.1985 51.3497 38.396 50.8254 38.3633 49.8255C38.3671 49.6968 38.3861 49.5642 38.4192 49.4277L39.9575 43.207C40.2188 42.1502 41.2974 41.285 42.3543 41.285H54.0659H54.8636C55.9215 41.285 56.5724 42.1502 56.3111 43.207L54.7732 49.4274C54.5731 50.2359 53.895 50.9319 53.1146 51.215Z" fill="#FFD23B"/>
<path fill-rule="evenodd" clip-rule="evenodd" d="M46.8272 43.8977H47.903C48.0275 43.8977 48.1302 43.9993 48.1302 44.1249V45.5514H49.5567C49.6822 45.5514 49.7849 45.6541 49.7849 45.7796V46.8554C49.7849 46.9799 49.6822 47.0826 49.5567 47.0826H48.1302V48.5091C48.1302 48.6346 48.0275 48.7363 47.903 48.7363H46.8272C46.7017 48.7363 46.6 48.6346 46.6 48.5091V47.0826H45.1725C45.048 47.0826 44.9453 46.9799 44.9453 46.8554V45.7796C44.9453 45.6541 45.048 45.5514 45.1725 45.5514H46.6V44.1249C46.6 43.9993 46.7017 43.8977 46.8272 43.8977Z" fill="#FF4155"/>
<path d="M44.6057 40.4125C44.4453 40.4125 44.3145 40.282 44.3145 40.1213C44.3145 39.9616 44.4449 39.8311 44.6057 39.8311H51.5762C51.7358 39.8311 51.8663 39.9616 51.8663 40.1213C51.8663 40.2817 51.7358 40.4125 51.5762 40.4125H44.6057ZM44.6057 37.2174C44.4453 37.2174 44.3145 37.0876 44.3145 36.9272C44.3145 36.7669 44.4449 36.6371 44.6057 36.6371H51.5762C51.7358 36.6371 51.8663 36.7669 51.8663 36.9272C51.8663 37.0876 51.7358 37.2174 51.5762 37.2174H44.6057ZM44.6057 38.8144C44.4453 38.8144 44.3145 38.6846 44.3145 38.5243C44.3145 38.3639 44.4449 38.2341 44.6057 38.2341H48.047C48.2073 38.2341 48.3371 38.3639 48.3371 38.5243C48.3371 38.6846 48.2073 38.8144 48.047 38.8144H44.6057Z" fill="#70DA40"/>
<path fill-rule="evenodd" clip-rule="evenodd" d="M40.1451 36.2273H41.1977C40.2168 36.2273 39.4143 37.0299 39.4143 38.0107V39.6398V45.4008L38.4183 49.4273C38.4032 49.4903 38.3613 49.9538 38.3613 49.7593V39.6398V38.0107C38.3617 37.0299 39.1639 36.2273 40.1451 36.2273Z" fill="#E5972D"/>
<path fill-rule="evenodd" clip-rule="evenodd" d="M41.1983 51.3494H40.1457C39.1985 51.3494 38.396 50.825 38.3633 49.8251C38.3671 49.6964 38.3861 49.5638 38.4192 49.4274L39.9575 43.2067C40.2188 42.1498 41.2974 41.2847 42.3543 41.2847H43.4069C42.3501 41.2847 41.2714 42.1498 41.0105 43.2067L39.4725 49.4274C39.4388 49.5638 39.4198 49.6964 39.4155 49.8251C39.4486 50.825 40.2512 51.3494 41.1983 51.3494Z" fill="#E6BD35"/>
</g>
<path d="M33.6263 86.2434H32.4566V82.2078L29.1293 76.8659H30.4615L33.0219 81.077H33.0609L35.6214 76.8659H36.9536L33.6263 82.2078V86.2434ZM39.4166 86.3604C37.545 86.3604 36.2843 85.0152 36.2843 82.8641C36.2843 80.7066 37.545 79.3678 39.4166 79.3678C41.2817 79.3678 42.5425 80.7066 42.5425 82.8641C42.5425 85.0152 41.2817 86.3604 39.4166 86.3604ZM39.4166 85.3661C40.6124 85.3661 41.3922 84.4563 41.3922 82.8641C41.3922 81.272 40.6124 80.3621 39.4166 80.3621C38.2209 80.3621 37.4345 81.272 37.4345 82.8641C37.4345 84.4563 38.2209 85.3661 39.4166 85.3661ZM49.236 79.4848V86.2434H48.1638V85.1451H48.1378C47.7349 85.925 47.033 86.3604 45.9932 86.3604C44.518 86.3604 43.6537 85.4051 43.6537 83.8714V79.4848H44.7845V83.6699C44.7845 84.7682 45.2979 85.3596 46.3442 85.3596C47.4424 85.3596 48.1053 84.6058 48.1053 83.4555V79.4848H49.236ZM59.049 81.7009H57.9442C57.7818 80.9665 57.2099 80.3621 56.2156 80.3621C55.0458 80.3621 54.253 81.3304 54.253 82.8641C54.253 84.4368 55.0588 85.3661 56.2286 85.3661C57.1514 85.3661 57.7558 84.8787 57.9507 84.0664H59.062C58.8865 85.4116 57.7558 86.3604 56.2221 86.3604C54.3505 86.3604 53.1027 85.0412 53.1027 82.8641C53.1027 80.7326 54.344 79.3678 56.2091 79.3678C57.8987 79.3678 58.906 80.4856 59.049 81.7009ZM62.3308 85.3986C63.3966 85.3986 64.2154 84.6512 64.2154 83.6764V83.1241L62.4088 83.2345C61.499 83.293 60.9791 83.6959 60.9791 84.3328C60.9791 84.9762 61.5185 85.3986 62.3308 85.3986ZM62.0774 86.3604C60.7321 86.3604 59.8288 85.5481 59.8288 84.3328C59.8288 83.1761 60.7191 82.4482 62.2788 82.3572L64.2154 82.2467V81.6814C64.2154 80.856 63.6695 80.3621 62.7337 80.3621C61.8629 80.3621 61.317 80.7716 61.174 81.4344H60.0823C60.1603 80.2647 61.1611 79.3678 62.7597 79.3678C64.3454 79.3678 65.3462 80.2257 65.3462 81.5709V86.2434H64.2739V85.0802H64.2479C63.845 85.8535 62.9872 86.3604 62.0774 86.3604ZM66.7824 86.2434V79.4848H67.8481V80.5636H67.8741C68.2511 79.8358 68.9724 79.3678 70.0187 79.3678C71.5004 79.3678 72.3582 80.3231 72.3582 81.8568V86.2434H71.2274V82.0583C71.2274 80.9665 70.714 80.3686 69.6743 80.3686C68.6085 80.3686 67.9131 81.1225 67.9131 82.2662V86.2434H66.7824ZM78.7594 85.3986C79.8251 85.3986 80.644 84.6512 80.644 83.6764V83.1241L78.8373 83.2345C77.9275 83.293 77.4076 83.6959 77.4076 84.3328C77.4076 84.9762 77.947 85.3986 78.7594 85.3986ZM78.5059 86.3604C77.1607 86.3604 76.2574 85.5481 76.2574 84.3328C76.2574 83.1761 77.1477 82.4482 78.7074 82.3572L80.644 82.2467V81.6814C80.644 80.856 80.0981 80.3621 79.1623 80.3621C78.2915 80.3621 77.7456 80.7716 77.6026 81.4344H76.5108C76.5888 80.2647 77.5896 79.3678 79.1883 79.3678C80.7739 79.3678 81.7747 80.2257 81.7747 81.5709V86.2434H80.7025V85.0802H80.6765C80.2735 85.8535 79.4157 86.3604 78.5059 86.3604ZM83.2694 86.2434V76.8659H84.4002V86.2434H83.2694ZM94.5251 79.4848L92.6405 86.2434H91.4902L89.963 81.012H89.937L88.4163 86.2434H87.2661L85.375 79.4848H86.4992L87.851 84.9827H87.8769L89.4041 79.4848H90.4959L92.0296 84.9827H92.0556L93.4073 79.4848H94.5251ZM97.5534 85.3986C98.6192 85.3986 99.438 84.6512 99.438 83.6764V83.1241L97.6314 83.2345C96.7216 83.293 96.2017 83.6959 96.2017 84.3328C96.2017 84.9762 96.7411 85.3986 97.5534 85.3986ZM97.3 86.3604C95.9548 86.3604 95.0514 85.5481 95.0514 84.3328C95.0514 83.1761 95.9418 82.4482 97.5014 82.3572L99.438 82.2467V81.6814C99.438 80.856 98.8921 80.3621 97.9563 80.3621C97.0855 80.3621 96.5396 80.7716 96.3967 81.4344H95.3049C95.3829 80.2647 96.3837 79.3678 97.9823 79.3678C99.568 79.3678 100.569 80.2257 100.569 81.5709V86.2434H99.4965V85.0802H99.4705C99.0676 85.8535 98.2098 86.3604 97.3 86.3604ZM102.564 88.7714C102.427 88.7714 102.2 88.7584 102.076 88.7324V87.7836C102.2 87.8096 102.375 87.8161 102.518 87.8161C103.149 87.8161 103.5 87.5106 103.76 86.7243L103.916 86.2499L101.42 79.4848H102.629L104.5 85.1126H104.52L106.392 79.4848H107.581L104.923 86.7178C104.345 88.297 103.786 88.7714 102.564 88.7714ZM108.361 81.3499C108.361 80.1932 109.394 79.3678 110.882 79.3678C112.279 79.3678 113.306 80.1997 113.358 81.3434H112.279C112.201 80.6936 111.675 80.2907 110.843 80.2907C110.018 80.2907 109.472 80.7001 109.472 81.2914C109.472 81.7593 109.829 82.0713 110.596 82.2662L111.642 82.5197C113.007 82.8641 113.501 83.358 113.501 84.3523C113.501 85.5286 112.39 86.3604 110.811 86.3604C109.329 86.3604 108.296 85.5546 108.179 84.3588H109.309C109.433 85.0607 109.966 85.4376 110.882 85.4376C111.798 85.4376 112.364 85.0477 112.364 84.4368C112.364 83.9559 112.084 83.6959 111.324 83.4945L110.135 83.189C108.946 82.8836 108.361 82.2727 108.361 81.3499ZM117.465 86.2434V79.4848H118.596V86.2434H117.465ZM118.031 78.3476C117.647 78.3476 117.329 78.0291 117.329 77.6457C117.329 77.2558 117.647 76.9439 118.031 76.9439C118.421 76.9439 118.739 77.2558 118.739 77.6457C118.739 78.0291 118.421 78.3476 118.031 78.3476ZM120.123 86.2434V79.4848H121.189V80.5636H121.215C121.533 79.8487 122.222 79.3678 123.132 79.3678C124.055 79.3678 124.737 79.8358 125.03 80.6546H125.056C125.433 79.8487 126.225 79.3678 127.174 79.3678C128.513 79.3678 129.377 80.2387 129.377 81.5774V86.2434H128.246V81.8373C128.246 80.9145 127.733 80.3686 126.843 80.3686C125.946 80.3686 125.316 81.0315 125.316 81.9478V86.2434H124.185V81.7139C124.185 80.9015 123.639 80.3686 122.801 80.3686C121.904 80.3686 121.254 81.0705 121.254 82.0063V86.2434H120.123ZM134.102 79.3678C135.824 79.3678 136.994 80.7456 136.994 82.8641C136.994 84.9827 135.83 86.3604 134.128 86.3604C133.159 86.3604 132.38 85.886 131.977 85.1451H131.951V88.4984H130.82V79.4848H131.892V80.6286H131.918C132.334 79.8682 133.12 79.3678 134.102 79.3678ZM133.881 85.3661C135.083 85.3661 135.837 84.3978 135.837 82.8641C135.837 81.3369 135.083 80.3621 133.881 80.3621C132.724 80.3621 131.944 81.3629 131.944 82.8641C131.944 84.3718 132.724 85.3661 133.881 85.3661ZM138.137 86.2434V79.4848H139.203V80.5896H139.229C139.45 79.8422 140.074 79.3678 140.867 79.3678C141.062 79.3678 141.231 79.4003 141.322 79.4133V80.5116C141.231 80.4791 140.99 80.4466 140.717 80.4466C139.84 80.4466 139.268 81.077 139.268 82.0323V86.2434H138.137ZM144.721 86.3604C142.849 86.3604 141.588 85.0152 141.588 82.8641C141.588 80.7066 142.849 79.3678 144.721 79.3678C146.586 79.3678 147.846 80.7066 147.846 82.8641C147.846 85.0152 146.586 86.3604 144.721 86.3604ZM144.721 85.3661C145.916 85.3661 146.696 84.4563 146.696 82.8641C146.696 81.272 145.916 80.3621 144.721 80.3621C143.525 80.3621 142.738 81.272 142.738 82.8641C142.738 84.4563 143.525 85.3661 144.721 85.3661ZM154.339 79.4848L151.856 86.2434H150.699L148.21 79.4848H149.4L151.265 85.0412H151.291L153.162 79.4848H154.339ZM157.744 80.3491C156.685 80.3491 155.944 81.1615 155.872 82.2857H159.544C159.518 81.155 158.81 80.3491 157.744 80.3491ZM159.518 84.3068H160.629C160.434 85.4896 159.29 86.3604 157.815 86.3604C155.879 86.3604 154.702 85.0152 154.702 82.8901C154.702 80.7911 155.898 79.3678 157.763 79.3678C159.589 79.3678 160.714 80.6936 160.714 82.7406V83.1696H155.866V83.2345C155.866 84.5278 156.626 85.3791 157.841 85.3791C158.699 85.3791 159.329 84.9437 159.518 84.3068ZM164.951 77.8537H166.082V79.4848H167.394V80.4141H166.082V84.4303C166.082 85.0477 166.342 85.3271 166.92 85.3271C167.05 85.3271 167.31 85.3076 167.388 85.2946V86.2434C167.251 86.2759 166.939 86.2954 166.673 86.2954C165.432 86.2954 164.951 85.7885 164.951 84.4888V80.4141H163.944V79.4848H164.951V77.8537ZM168.662 86.2434V76.8659H169.792V80.5636H169.818C170.195 79.8098 170.936 79.3678 171.963 79.3678C173.445 79.3678 174.341 80.3686 174.341 81.8763V86.2434H173.211V82.0843C173.211 81.012 172.671 80.3686 171.612 80.3686C170.488 80.3686 169.792 81.1355 169.792 82.3052V86.2434H168.662ZM178.487 80.3491C177.428 80.3491 176.687 81.1615 176.616 82.2857H180.288C180.262 81.155 179.553 80.3491 178.487 80.3491ZM180.262 84.3068H181.373C181.178 85.4896 180.034 86.3604 178.559 86.3604C176.622 86.3604 175.446 85.0152 175.446 82.8901C175.446 80.7911 176.642 79.3678 178.507 79.3678C180.333 79.3678 181.457 80.6936 181.457 82.7406V83.1696H176.609V83.2345C176.609 84.5278 177.37 85.3791 178.585 85.3791C179.443 85.3791 180.073 84.9437 180.262 84.3068ZM190.874 79.4848L188.391 86.2434H187.235L184.746 79.4848H185.935L187.8 85.0412H187.826L189.698 79.4848H190.874ZM194.37 86.3604C192.499 86.3604 191.238 85.0152 191.238 82.8641C191.238 80.7066 192.499 79.3678 194.37 79.3678C196.235 79.3678 197.496 80.7066 197.496 82.8641C197.496 85.0152 196.235 86.3604 194.37 86.3604ZM194.37 85.3661C195.566 85.3661 196.346 84.4563 196.346 82.8641C196.346 81.272 195.566 80.3621 194.37 80.3621C193.174 80.3621 192.388 81.272 192.388 82.8641C192.388 84.4563 193.174 85.3661 194.37 85.3661ZM198.698 86.2434V79.4848H199.829V86.2434H198.698ZM199.264 78.3476C198.88 78.3476 198.562 78.0291 198.562 77.6457C198.562 77.2558 198.88 76.9439 199.264 76.9439C199.654 76.9439 199.972 77.2558 199.972 77.6457C199.972 78.0291 199.654 78.3476 199.264 78.3476ZM206.971 81.7009H205.866C205.704 80.9665 205.132 80.3621 204.138 80.3621C202.968 80.3621 202.175 81.3304 202.175 82.8641C202.175 84.4368 202.981 85.3661 204.151 85.3661C205.073 85.3661 205.678 84.8787 205.873 84.0664H206.984C206.809 85.4116 205.678 86.3604 204.144 86.3604C202.272 86.3604 201.025 85.0412 201.025 82.8641C201.025 80.7326 202.266 79.3678 204.131 79.3678C205.821 79.3678 206.828 80.4856 206.971 81.7009ZM210.734 80.3491C209.674 80.3491 208.934 81.1615 208.862 82.2857H212.534C212.508 81.155 211.799 80.3491 210.734 80.3491ZM212.508 84.3068H213.619C213.424 85.4896 212.28 86.3604 210.805 86.3604C208.869 86.3604 207.692 85.0152 207.692 82.8901C207.692 80.7911 208.888 79.3678 210.753 79.3678C212.579 79.3678 213.704 80.6936 213.704 82.7406V83.1696H208.856V83.2345C208.856 84.5278 209.616 85.3791 210.831 85.3791C211.689 85.3791 212.319 84.9437 212.508 84.3068ZM33.0609 105.36C32.0731 105.36 31.2998 104.879 30.8644 104.1H30.8384V105.243H29.7596V95.8659H30.8904V99.6156H30.9164C31.3388 98.8422 32.1251 98.3678 33.0804 98.3678C34.7831 98.3678 35.9333 99.7456 35.9333 101.864C35.9333 103.989 34.7896 105.36 33.0609 105.36ZM32.84 99.3621C31.6962 99.3621 30.8839 100.363 30.8839 101.864C30.8839 103.372 31.6962 104.366 32.84 104.366C34.0357 104.366 34.7766 103.411 34.7766 101.864C34.7766 100.33 34.0357 99.3621 32.84 99.3621ZM37.4475 107.771C37.311 107.771 37.0836 107.758 36.9601 107.732V106.784C37.0836 106.81 37.2591 106.816 37.402 106.816C38.0324 106.816 38.3833 106.511 38.6433 105.724L38.7992 105.25L36.3038 98.4848H37.5125L39.3841 104.113H39.4036L41.2752 98.4848H42.4645L39.8065 105.718C39.2281 107.297 38.6693 107.771 37.4475 107.771ZM48.3197 104.399C49.3855 104.399 50.2043 103.651 50.2043 102.676V102.124L48.3977 102.235C47.4879 102.293 46.968 102.696 46.968 103.333C46.968 103.976 47.5074 104.399 48.3197 104.399ZM48.0663 105.36C46.7211 105.36 45.8178 104.548 45.8178 103.333C45.8178 102.176 46.7081 101.448 48.2678 101.357L50.2043 101.247V100.681C50.2043 99.856 49.6585 99.3621 48.7227 99.3621C47.8518 99.3621 47.306 99.7716 47.163 100.434H46.0712C46.1492 99.2647 47.15 98.3678 48.7487 98.3678C50.3343 98.3678 51.3351 99.2257 51.3351 100.571V105.243H50.2628V104.08H50.2368C49.8339 104.853 48.9761 105.36 48.0663 105.36ZM55.3318 105.36C53.6096 105.36 52.4399 103.983 52.4399 101.864C52.4399 99.7456 53.6031 98.3678 55.3058 98.3678C56.2741 98.3678 57.0539 98.8422 57.4568 99.5831H57.4828V95.8659H58.6136V105.243H57.5348V104.1H57.5153C57.0799 104.879 56.3066 105.36 55.3318 105.36ZM55.5462 99.3621C54.3505 99.3621 53.5966 100.337 53.5966 101.864C53.5966 103.398 54.3505 104.366 55.5462 104.366C56.7095 104.366 57.4893 103.378 57.4893 101.864C57.4893 100.356 56.7095 99.3621 55.5462 99.3621ZM62.7012 105.36C60.9791 105.36 59.8093 103.983 59.8093 101.864C59.8093 99.7456 60.9726 98.3678 62.6752 98.3678C63.6435 98.3678 64.4234 98.8422 64.8263 99.5831H64.8523V95.8659H65.983V105.243H64.9043V104.1H64.8848C64.4494 104.879 63.676 105.36 62.7012 105.36ZM62.9157 99.3621C61.7199 99.3621 60.9661 100.337 60.9661 101.864C60.9661 103.398 61.7199 104.366 62.9157 104.366C64.0789 104.366 64.8588 103.378 64.8588 101.864C64.8588 100.356 64.0789 99.3621 62.9157 99.3621ZM67.5687 105.243V98.4848H68.6995V105.243H67.5687ZM68.1341 97.3476C67.7507 97.3476 67.4322 97.0291 67.4322 96.6457C67.4322 96.2558 67.7507 95.9439 68.1341 95.9439C68.524 95.9439 68.8424 96.2558 68.8424 96.6457C68.8424 97.0291 68.524 97.3476 68.1341 97.3476ZM70.2267 105.243V98.4848H71.2924V99.5636H71.3184C71.6953 98.8358 72.4167 98.3678 73.463 98.3678C74.9447 98.3678 75.8025 99.3231 75.8025 100.857V105.243H74.6717V101.058C74.6717 99.9665 74.1583 99.3686 73.1185 99.3686C72.0528 99.3686 71.3574 100.122 71.3574 101.266V105.243H70.2267ZM79.9941 104.301C81.1704 104.301 81.9567 103.326 81.9567 101.838C81.9567 100.35 81.1704 99.3621 79.9941 99.3621C78.8308 99.3621 78.0705 100.324 78.0705 101.838C78.0705 103.352 78.8308 104.301 79.9941 104.301ZM80.0331 107.791C78.5449 107.791 77.3687 106.953 77.1802 105.802H78.3434C78.5644 106.42 79.2338 106.829 80.0786 106.829C81.2483 106.829 81.9567 106.153 81.9567 105.146V104.08H81.9307C81.5148 104.814 80.7155 105.295 79.7667 105.295C78.0445 105.295 76.9137 103.937 76.9137 101.838C76.9137 99.7196 78.0445 98.3678 79.7926 98.3678C80.7479 98.3678 81.5408 98.8358 81.9892 99.6221H82.0087V98.4848H83.0875V105.107C83.0875 106.719 81.8982 107.791 80.0331 107.791ZM87.2921 105.243V98.4848H88.3579V99.5636H88.3838C88.7023 98.8487 89.3911 98.3678 90.3009 98.3678C91.2237 98.3678 91.9061 98.8358 92.1985 99.6546H92.2245C92.6015 98.8487 93.3943 98.3678 94.3431 98.3678C95.6818 98.3678 96.5461 99.2387 96.5461 100.577V105.243H95.4154V100.837C95.4154 99.9145 94.902 99.3686 94.0117 99.3686C93.1149 99.3686 92.4845 100.032 92.4845 100.948V105.243H91.3537V100.714C91.3537 99.9015 90.8078 99.3686 89.9695 99.3686C89.0727 99.3686 88.4228 100.07 88.4228 101.006V105.243H87.2921ZM100.79 105.36C98.9181 105.36 97.6574 104.015 97.6574 101.864C97.6574 99.7066 98.9181 98.3678 100.79 98.3678C102.655 98.3678 103.916 99.7066 103.916 101.864C103.916 104.015 102.655 105.36 100.79 105.36ZM100.79 104.366C101.985 104.366 102.765 103.456 102.765 101.864C102.765 100.272 101.985 99.3621 100.79 99.3621C99.594 99.3621 98.8077 100.272 98.8077 101.864C98.8077 103.456 99.594 104.366 100.79 104.366ZM105.059 105.243V98.4848H106.125V99.5896H106.151C106.372 98.8422 106.996 98.3678 107.789 98.3678C107.984 98.3678 108.153 98.4003 108.244 98.4133V99.5116C108.153 99.4791 107.912 99.4466 107.639 99.4466C106.762 99.4466 106.19 100.077 106.19 101.032V105.243H105.059ZM111.551 99.3491C110.492 99.3491 109.751 100.161 109.68 101.286H113.352C113.326 100.155 112.617 99.3491 111.551 99.3491ZM113.326 103.307H114.437C114.242 104.49 113.098 105.36 111.623 105.36C109.686 105.36 108.51 104.015 108.51 101.89C108.51 99.7911 109.706 98.3678 111.571 98.3678C113.397 98.3678 114.521 99.6936 114.521 101.741V102.17H109.673V102.235C109.673 103.528 110.434 104.379 111.649 104.379C112.507 104.379 113.137 103.944 113.326 103.307ZM118.395 105.243V98.4848H119.46V99.5896H119.486C119.707 98.8422 120.331 98.3678 121.124 98.3678C121.319 98.3678 121.488 98.4003 121.579 98.4133V99.5116C121.488 99.4791 121.247 99.4466 120.975 99.4466C120.097 99.4466 119.525 100.077 119.525 101.032V105.243H118.395ZM124.887 99.3491C123.827 99.3491 123.087 100.161 123.015 101.286H126.687C126.661 100.155 125.952 99.3491 124.887 99.3491ZM126.661 103.307H127.772C127.577 104.49 126.433 105.36 124.958 105.36C123.022 105.36 121.845 104.015 121.845 101.89C121.845 99.7911 123.041 98.3678 124.906 98.3678C126.732 98.3678 127.857 99.6936 127.857 101.741V102.17H123.009V102.235C123.009 103.528 123.769 104.379 124.984 104.379C125.842 104.379 126.472 103.944 126.661 103.307ZM134.615 100.701H133.51C133.348 99.9665 132.776 99.3621 131.782 99.3621C130.612 99.3621 129.819 100.33 129.819 101.864C129.819 103.437 130.625 104.366 131.795 104.366C132.718 104.366 133.322 103.879 133.517 103.066H134.628C134.453 104.412 133.322 105.36 131.788 105.36C129.917 105.36 128.669 104.041 128.669 101.864C128.669 99.7326 129.91 98.3678 131.775 98.3678C133.465 98.3678 134.472 99.4856 134.615 100.701ZM138.469 105.36C136.597 105.36 135.337 104.015 135.337 101.864C135.337 99.7066 136.597 98.3678 138.469 98.3678C140.334 98.3678 141.595 99.7066 141.595 101.864C141.595 104.015 140.334 105.36 138.469 105.36ZM138.469 104.366C139.665 104.366 140.444 103.456 140.444 101.864C140.444 100.272 139.665 99.3621 138.469 99.3621C137.273 99.3621 136.487 100.272 136.487 101.864C136.487 103.456 137.273 104.366 138.469 104.366ZM142.738 105.243V98.4848H143.804V99.5896H143.83C144.051 98.8422 144.675 98.3678 145.468 98.3678C145.663 98.3678 145.832 98.4003 145.923 98.4133V99.5116C145.832 99.4791 145.591 99.4466 145.318 99.4466C144.441 99.4466 143.869 100.077 143.869 101.032V105.243H142.738ZM149.081 105.36C147.359 105.36 146.189 103.983 146.189 101.864C146.189 99.7456 147.352 98.3678 149.055 98.3678C150.023 98.3678 150.803 98.8422 151.206 99.5831H151.232V95.8659H152.363V105.243H151.284V104.1H151.265C150.829 104.879 150.056 105.36 149.081 105.36ZM149.296 99.3621C148.1 99.3621 147.346 100.337 147.346 101.864C147.346 103.398 148.1 104.366 149.296 104.366C150.459 104.366 151.239 103.378 151.239 101.864C151.239 100.356 150.459 99.3621 149.296 99.3621ZM153.949 105.243V98.4848H155.079V105.243H153.949ZM154.514 97.3476C154.131 97.3476 153.812 97.0291 153.812 96.6457C153.812 96.2558 154.131 95.9439 154.514 95.9439C154.904 95.9439 155.222 96.2558 155.222 96.6457C155.222 97.0291 154.904 97.3476 154.514 97.3476ZM156.607 105.243V98.4848H157.672V99.5636H157.698C158.075 98.8358 158.797 98.3678 159.843 98.3678C161.325 98.3678 162.182 99.3231 162.182 100.857V105.243H161.052V101.058C161.052 99.9665 160.538 99.3686 159.498 99.3686C158.433 99.3686 157.737 100.122 157.737 101.266V105.243H156.607ZM166.374 104.301C167.55 104.301 168.337 103.326 168.337 101.838C168.337 100.35 167.55 99.3621 166.374 99.3621C165.211 99.3621 164.45 100.324 164.45 101.838C164.45 103.352 165.211 104.301 166.374 104.301ZM166.413 107.791C164.925 107.791 163.749 106.953 163.56 105.802H164.723C164.944 106.42 165.614 106.829 166.458 106.829C167.628 106.829 168.337 106.153 168.337 105.146V104.08H168.311C167.895 104.814 167.095 105.295 166.147 105.295C164.424 105.295 163.294 103.937 163.294 101.838C163.294 99.7196 164.424 98.3678 166.173 98.3678C167.128 98.3678 167.921 98.8358 168.369 99.6221H168.389V98.4848H169.467V105.107C169.467 106.719 168.278 107.791 166.413 107.791ZM170.826 100.35C170.826 99.1932 171.859 98.3678 173.347 98.3678C174.744 98.3678 175.771 99.1997 175.823 100.343H174.744C174.666 99.6936 174.14 99.2907 173.308 99.2907C172.483 99.2907 171.937 99.7001 171.937 100.291C171.937 100.759 172.294 101.071 173.061 101.266L174.107 101.52C175.472 101.864 175.966 102.358 175.966 103.352C175.966 104.529 174.855 105.36 173.276 105.36C171.794 105.36 170.761 104.555 170.644 103.359H171.774C171.898 104.061 172.431 104.438 173.347 104.438C174.263 104.438 174.829 104.048 174.829 103.437C174.829 102.956 174.549 102.696 173.789 102.494L172.6 102.189C171.41 101.884 170.826 101.273 170.826 100.35ZM179.93 105.243V95.8659H181.061V105.243H179.93ZM184.817 104.399C185.883 104.399 186.702 103.651 186.702 102.676V102.124L184.895 102.235C183.985 102.293 183.465 102.696 183.465 103.333C183.465 103.976 184.005 104.399 184.817 104.399ZM184.564 105.36C183.218 105.36 182.315 104.548 182.315 103.333C182.315 102.176 183.205 101.448 184.765 101.357L186.702 101.247V100.681C186.702 99.856 186.156 99.3621 185.22 99.3621C184.349 99.3621 183.803 99.7716 183.66 100.434H182.569C182.647 99.2647 183.647 98.3678 185.246 98.3678C186.832 98.3678 187.833 99.2257 187.833 100.571V105.243H186.76V104.08H186.734C186.331 104.853 185.474 105.36 184.564 105.36ZM189.633 96.8537H190.763V98.4848H192.076V99.4141H190.763V103.43C190.763 104.048 191.023 104.327 191.602 104.327C191.732 104.327 191.992 104.308 192.07 104.295V105.243C191.933 105.276 191.621 105.295 191.355 105.295C190.114 105.295 189.633 104.789 189.633 103.489V99.4141H188.625V98.4848H189.633V96.8537ZM195.8 99.3491C194.741 99.3491 194 100.161 193.928 101.286H197.6C197.574 100.155 196.866 99.3491 195.8 99.3491ZM197.574 103.307H198.685C198.49 104.49 197.347 105.36 195.871 105.36C193.935 105.36 192.758 104.015 192.758 101.89C192.758 99.7911 193.954 98.3678 195.819 98.3678C197.645 98.3678 198.77 99.6936 198.77 101.741V102.17H193.922V102.235C193.922 103.528 194.682 104.379 195.897 104.379C196.755 104.379 197.386 103.944 197.574 103.307ZM199.913 105.243V98.4848H200.979V99.5896H201.005C201.226 98.8422 201.85 98.3678 202.643 98.3678C202.838 98.3678 203.007 98.4003 203.098 98.4133V99.5116C203.007 99.4791 202.766 99.4466 202.493 99.4466C201.616 99.4466 201.044 100.077 201.044 101.032V105.243H199.913ZM204.326 105.308C203.91 105.308 203.585 104.983 203.585 104.568C203.585 104.152 203.91 103.827 204.326 103.827C204.742 103.827 205.067 104.152 205.067 104.568C205.067 104.983 204.742 105.308 204.326 105.308Z" fill="white"/>
</g>
<defs>
<filter id="filter0_d_2686_465" x="-9.53674e-07" y="-2.67029e-05" width="267.75" height="153.447" filterUnits="userSpaceOnUse" color-interpolation-filters="sRGB">
<feFlood flood-opacity="0" result="BackgroundImageFix"/>
<feColorMatrix in="SourceAlpha" type="matrix" values="0 0 0 0 0 0 0 0 0 0 0 0 0 0 0 0 0 0 127 0" result="hardAlpha"/>
<feMorphology radius="3.91447" operator="erode" in="SourceAlpha" result="effect1_dropShadow_2686_465"/>
<feOffset dy="6.26316"/>
<feGaussianBlur stdDeviation="9.39474"/>
<feComposite in2="hardAlpha" operator="out"/>
<feColorMatrix type="matrix" values="0 0 0 0 0.305882 0 0 0 0 0.329412 0 0 0 0 0.784314 0 0 0 0.19 0"/>
<feBlend mode="normal" in2="BackgroundImageFix" result="effect1_dropShadow_2686_465"/>
<feBlend mode="normal" in="SourceGraphic" in2="effect1_dropShadow_2686_465" result="shape"/>
</filter>
<clipPath id="clip0_2686_465">
<rect width="18.0066" height="18.0066" fill="white" transform="translate(38.3613 33.6646)"/>
</clipPath>
</defs>
</svg>
