<svg width="36" height="36" viewBox="0 0 36 36" fill="none" xmlns="http://www.w3.org/2000/svg">
<circle cx="17.7866" cy="17.7866" r="17.7866" fill="white"/>
<path d="M17.3423 10.0008C17.3522 10.0005 17.3618 10.0003 17.3718 10C20.6108 10.0227 23.7152 11.2984 26.0342 13.5597C28.3583 15.8217 29.6761 18.9141 29.7717 22.148C29.7874 22.6689 29.5373 23.1767 28.9484 23.1527C28.8552 23.1485 28.7635 23.1273 28.6776 23.0905C28.0335 22.8135 28.1868 22.1288 28.1397 21.5322C27.9242 19.1042 26.8975 16.8199 25.2247 15.0472C23.2029 12.9102 20.4069 11.6761 17.4654 11.6226C17.1743 11.6211 16.8836 11.6318 16.5934 11.6546C11.943 12.0503 8.05984 15.361 6.93359 19.8903C6.79609 20.4663 6.69851 21.051 6.64155 21.6406C6.5892 22.2176 6.728 23.1184 5.8366 23.1536C4.66621 23.2001 5.03124 21.4357 5.14004 20.6952C5.50786 18.0899 6.69508 15.6696 8.52989 13.7841C10.8386 11.3885 14.0154 10.0246 17.3423 10.0008Z" fill="#D4A95F"/>
<path d="M16.853 13.4601C17.1662 13.4384 17.4804 13.4352 17.7939 13.4505C20.1728 13.5679 22.4098 14.6189 24.0184 16.3754C25.2586 17.734 26.0495 19.4423 26.2829 21.2669C26.3287 21.6244 26.364 21.9571 26.3556 22.319C26.3441 22.8082 25.9729 23.2057 25.4628 23.1435C25.1766 23.1096 24.9317 22.922 24.8246 22.6543C24.7284 22.4091 24.7602 21.8754 24.7226 21.559C24.571 20.2761 24.0777 19.0573 23.2939 18.0302C21.9613 16.2587 20.21 15.3947 18.0574 15.0889C17.2351 15.0154 16.4061 15.0855 15.6076 15.2961C12.8273 16.0051 10.703 18.2504 10.1491 21.0659C10.0035 21.7888 10.2479 22.9759 9.36053 23.1294C8.87608 23.2131 8.42854 22.8342 8.43364 22.3444C8.48284 17.5948 12.1372 13.7964 16.853 13.4601Z" fill="#4E54C8"/>
<path d="M16.8838 16.8895C17.2137 16.8552 17.749 16.8737 18.0718 16.9154C19.5516 17.1071 20.8941 17.88 21.8029 19.0632C22.5168 19.9986 22.9935 21.2607 22.9217 22.4494C22.897 22.8632 22.3992 23.2421 21.9927 23.1405C21.1425 22.9277 21.4089 22.0935 21.2272 21.4604C20.7761 19.8871 19.5714 18.8331 17.9696 18.5554C15.8966 18.323 14.0517 19.5252 13.5749 21.6047C13.4948 21.9544 13.5187 22.5183 13.3342 22.8023C13.2232 22.9703 13.0501 23.087 12.8529 23.1274C12.399 23.2219 11.8809 22.893 11.879 22.4154C11.8669 19.4777 14.0514 17.2511 16.8838 16.8895Z" fill="#4E54C8"/>
<path d="M17.2251 21.1402C17.8707 21.0354 18.4798 21.4713 18.5885 22.1163C18.6972 22.761 18.2647 23.3727 17.6204 23.4852C16.9709 23.5987 16.3529 23.1617 16.2433 22.5116C16.1337 21.8612 16.5743 21.246 17.2251 21.1402Z" fill="#4E54C8"/>
</svg>
