<svg width="54" height="30" viewBox="0 0 54 30" fill="none" xmlns="http://www.w3.org/2000/svg">
<path d="M26.7269 0.00166936C26.7484 0.00111401 26.7693 0.000555345 26.7908 0C33.8048 0.0491481 40.5273 2.81171 45.549 7.70847C50.5818 12.6067 53.4356 19.3033 53.6424 26.3062C53.6764 27.4343 53.135 28.5338 51.8598 28.4818C51.6578 28.4728 51.4592 28.4269 51.2732 28.3471C49.8786 27.7473 50.2104 26.2646 50.1084 24.9727C49.6419 19.715 47.4184 14.7682 43.7962 10.9295C39.418 6.30192 33.3633 3.62946 26.9935 3.51374C26.3632 3.51055 25.7336 3.53367 25.1053 3.58302C15.035 4.43992 6.626 11.6091 4.18713 21.4171C3.8894 22.6645 3.67809 23.9307 3.55473 25.2073C3.44137 26.4569 3.74195 28.4075 1.81164 28.4839C-0.722816 28.5845 0.067652 24.7637 0.303257 23.1602C1.09976 17.5186 3.67066 12.2774 7.64388 8.19433C12.6432 3.00671 19.5227 0.0533165 26.7269 0.00166936Z" fill="white"/>
<path d="M25.6676 7.49254C26.3458 7.44568 27.0261 7.43874 27.705 7.47178C32.8566 7.72599 37.7006 10.002 41.184 13.8056C43.8698 16.7475 45.5823 20.4468 46.0877 24.3981C46.1869 25.1721 46.2633 25.8927 46.2453 26.6764C46.2203 27.7357 45.4164 28.5965 44.312 28.4618C43.692 28.3882 43.1617 27.9821 42.9298 27.4025C42.7216 26.8714 42.7903 25.7156 42.7091 25.0305C42.3807 22.2524 41.3124 19.6131 39.6151 17.3889C36.7294 13.5529 32.9371 11.6819 28.2757 11.0197C26.4951 10.8605 24.6997 11.0123 22.9707 11.4685C16.95 13.0038 12.35 17.8658 11.1505 23.9628C10.8352 25.5282 11.3643 28.0988 9.4428 28.4313C8.39375 28.6125 7.4246 27.7919 7.43564 26.7312C7.5422 16.4462 15.4556 8.22073 25.6676 7.49254Z" fill="#D4A95F"/>
<path d="M25.7344 14.9188C26.4487 14.8445 27.608 14.8848 28.3071 14.9751C31.5114 15.3902 34.4186 17.0638 36.3867 19.6261C37.9326 21.6517 38.9648 24.3847 38.8093 26.9587C38.7559 27.8549 37.6778 28.6754 36.7976 28.4554C34.9566 27.9944 35.5335 26.1882 35.1399 24.8172C34.1632 21.4101 31.5545 19.1276 28.0856 18.5265C23.5966 18.0232 19.6016 20.6264 18.5692 25.1295C18.3956 25.8869 18.4474 27.108 18.0478 27.723C17.8076 28.0868 17.4326 28.3394 17.0057 28.4269C16.0227 28.6317 14.9008 27.9195 14.8966 26.8851C14.8706 20.5236 19.601 15.7019 25.7344 14.9188Z" fill="#D4A95F"/>
<path d="M26.4709 24.1235C27.869 23.8965 29.1879 24.8406 29.4233 26.2373C29.6586 27.6334 28.7221 28.9579 27.3268 29.2015C25.9204 29.4473 24.5822 28.5011 24.3448 27.0933C24.1074 25.6848 25.0615 24.3526 26.4709 24.1235Z" fill="white"/>
</svg>
