<svg width="110" height="109" viewBox="0 0 110 109" fill="none" xmlns="http://www.w3.org/2000/svg">
<rect width="110" height="109" rx="14" fill="white"/>
<path d="M66.6035 36.8906V39C66.6035 45.0413 61.9615 50.0187 56.0566 50.553V54.8906H61.3301C61.9123 54.8906 62.3848 55.3631 62.3848 55.9453C62.3848 56.5275 61.9123 57 61.3301 57H48.6738C48.0916 57 47.6191 56.5275 47.6191 55.9453C47.6191 55.3631 48.0916 54.8906 48.6738 54.8906H53.9473V50.553C48.0424 50.0187 43.4004 45.0413 43.4004 39V36.8906C43.4004 36.3084 43.8729 35.8359 44.4551 35.8359H47.9707V37.9453H45.5098V39C45.5098 44.2341 49.7679 48.4922 55.002 48.4922C60.236 48.4922 64.4941 44.2341 64.4941 39V37.9453H62.0332V35.8359H65.5488C66.131 35.8359 66.6035 36.3084 66.6035 36.8906Z" fill="#0097F0"/>
<path d="M66.6016 36.8906V39C66.6016 45.0413 61.9595 50.0187 56.0547 50.553V54.8906H61.3281C61.9103 54.8906 62.3828 55.3631 62.3828 55.9453C62.3828 56.5275 61.9103 57 61.3281 57H55V48.4922C60.2341 48.4922 64.4922 44.2341 64.4922 39V37.9453H62.0312V35.8359H65.5469C66.1291 35.8359 66.6016 36.3084 66.6016 36.8906Z" fill="#0052C2"/>
<path d="M55.002 21C50.9311 21 47.6191 24.3119 47.6191 28.3828V39C47.6191 43.0709 50.9311 46.3828 55.002 46.3828C59.0728 46.3828 62.3848 43.0709 62.3848 39V28.3828C62.3848 24.3119 59.0728 21 55.002 21Z" fill="#FFDA2D"/>
<path d="M62.3828 28.3828V39C62.3828 43.0711 59.0711 46.3828 55 46.3828V21C59.0711 21 62.3828 24.3117 62.3828 28.3828Z" fill="#FDBF00"/>
<path d="M44.4551 24.2344C43.8726 24.2344 43.4004 24.7066 43.4004 25.2891V30.5625C43.4004 31.145 43.8726 31.6172 44.4551 31.6172C45.0375 31.6172 45.5098 31.145 45.5098 30.5625V25.2891C45.5098 24.7066 45.0375 24.2344 44.4551 24.2344Z" fill="#FDBF00"/>
<path d="M40.2363 21C39.6539 21 39.1816 21.4722 39.1816 22.0547V33.7266C39.1816 34.309 39.6539 34.7812 40.2363 34.7812C40.8188 34.7812 41.291 34.309 41.291 33.7266V22.0547C41.291 21.4722 40.8188 21 40.2363 21Z" fill="#FDBF00"/>
<path d="M65.5488 24.2344C64.9664 24.2344 64.4941 24.7066 64.4941 25.2891V30.5625C64.4941 31.145 64.9664 31.6172 65.5488 31.6172C66.1313 31.6172 66.6035 31.145 66.6035 30.5625V25.2891C66.6035 24.7066 66.1313 24.2344 65.5488 24.2344Z" fill="#FE9022"/>
<path d="M69.7676 21C69.1851 21 68.7129 21.4722 68.7129 22.0547V33.7266C68.7129 34.309 69.1851 34.7812 69.7676 34.7812C70.35 34.7812 70.8223 34.309 70.8223 33.7266V22.0547C70.8223 21.4722 70.35 21 69.7676 21Z" fill="#FE9022"/>
<path d="M25.0212 78V67.8182H28.4615C29.2603 67.8182 29.9132 67.9624 30.4203 68.2507C30.9307 68.5357 31.3086 68.9219 31.5538 69.4091C31.7991 69.8963 31.9217 70.4399 31.9217 71.0398C31.9217 71.6397 31.7991 72.1849 31.5538 72.6754C31.3119 73.166 30.9374 73.5571 30.4302 73.8487C29.9231 74.1371 29.2735 74.2812 28.4814 74.2812H26.0155V73.1875H28.4416C28.9885 73.1875 29.4276 73.093 29.7591 72.9041C30.0905 72.7152 30.3308 72.46 30.48 72.1385C30.6324 71.8137 30.7087 71.4474 30.7087 71.0398C30.7087 70.6321 30.6324 70.2675 30.48 69.946C30.3308 69.6245 30.0889 69.3726 29.7541 69.1903C29.4194 69.0047 28.9752 68.9119 28.4217 68.9119H26.2541V78H25.0212ZM33.6088 78V70.3636H34.7423V71.517H34.8219C34.9611 71.1392 35.213 70.8326 35.5775 70.5973C35.9421 70.362 36.3531 70.2443 36.8105 70.2443C36.8967 70.2443 37.0044 70.246 37.1336 70.2493C37.2629 70.2526 37.3607 70.2576 37.427 70.2642V71.4574C37.3872 71.4474 37.296 71.4325 37.1535 71.4126C37.0143 71.3894 36.8668 71.3778 36.7111 71.3778C36.3398 71.3778 36.0084 71.4557 35.7167 71.6115C35.4284 71.764 35.1997 71.9761 35.0307 72.2479C34.8649 72.5163 34.7821 72.8229 34.7821 73.1676V78H33.6088ZM41.6471 78.1591C40.9113 78.1591 40.2765 77.9967 39.7429 77.6719C39.2126 77.3438 38.8033 76.8864 38.5149 76.2997C38.2299 75.7098 38.0874 75.0237 38.0874 74.2415C38.0874 73.4593 38.2299 72.7699 38.5149 72.1733C38.8033 71.5734 39.2043 71.1061 39.7181 70.7713C40.2351 70.4332 40.8383 70.2642 41.5277 70.2642C41.9255 70.2642 42.3182 70.3305 42.706 70.4631C43.0938 70.5956 43.4468 70.8111 43.7649 71.1094C44.0831 71.4044 44.3367 71.7955 44.5256 72.2827C44.7145 72.7699 44.809 73.3698 44.809 74.0824V74.5795H38.9226V73.5653H43.6158C43.6158 73.1345 43.5296 72.75 43.3573 72.4119C43.1882 72.0739 42.9463 71.8071 42.6314 71.6115C42.3199 71.416 41.952 71.3182 41.5277 71.3182C41.0604 71.3182 40.656 71.4342 40.3147 71.6662C39.9766 71.8949 39.7164 72.1932 39.5341 72.5611C39.3518 72.929 39.2607 73.3234 39.2607 73.7443V74.4205C39.2607 74.9972 39.3601 75.486 39.559 75.8871C39.7612 76.2848 40.0412 76.5881 40.3992 76.7969C40.7571 77.0024 41.1731 77.1051 41.6471 77.1051C41.9553 77.1051 42.2337 77.062 42.4823 76.9759C42.7342 76.8864 42.9513 76.7538 43.1336 76.5781C43.3158 76.3991 43.4567 76.1771 43.5561 75.9119L44.6897 76.2301C44.5703 76.6146 44.3698 76.9527 44.0881 77.2443C43.8064 77.5327 43.4584 77.758 43.0441 77.9205C42.6298 78.0795 42.1641 78.1591 41.6471 78.1591ZM46.4538 80.8636V70.3636H47.5873V71.5767H47.7265C47.8127 71.4441 47.932 71.2751 48.0845 71.0696C48.2402 70.8608 48.4623 70.6752 48.7507 70.5128C49.0423 70.3471 49.4367 70.2642 49.9339 70.2642C50.5769 70.2642 51.1437 70.425 51.6342 70.7464C52.1247 71.0679 52.5075 71.5237 52.7826 72.1136C53.0577 72.7036 53.1953 73.3996 53.1953 74.2017C53.1953 75.0104 53.0577 75.7114 52.7826 76.3047C52.5075 76.8946 52.1264 77.352 51.6392 77.6768C51.1519 77.9983 50.5901 78.1591 49.9538 78.1591C49.4633 78.1591 49.0705 78.0779 48.7755 77.9155C48.4805 77.7498 48.2535 77.5625 48.0944 77.3537C47.9353 77.1416 47.8127 76.9659 47.7265 76.8267H47.6271V80.8636H46.4538ZM47.6072 74.1818C47.6072 74.7585 47.6917 75.2673 47.8607 75.7081C48.0298 76.1456 48.2767 76.4886 48.6015 76.7372C48.9263 76.9825 49.324 77.1051 49.7947 77.1051C50.2852 77.1051 50.6946 76.9759 51.0227 76.7173C51.3541 76.4555 51.6027 76.1042 51.7684 75.6634C51.9374 75.2192 52.022 74.7254 52.022 74.1818C52.022 73.6449 51.9391 73.161 51.7734 72.7301C51.611 72.2959 51.3641 71.9529 51.0326 71.701C50.7045 71.4458 50.2919 71.3182 49.7947 71.3182C49.3174 71.3182 48.9164 71.4392 48.5916 71.6811C48.2668 71.9197 48.0215 72.2545 47.8558 72.6854C47.6901 73.1129 47.6072 73.6117 47.6072 74.1818ZM57.0922 78.179C56.6083 78.179 56.1691 78.0878 55.7747 77.9055C55.3803 77.7199 55.0671 77.4531 54.8351 77.1051C54.6031 76.7538 54.4871 76.3295 54.4871 75.8324C54.4871 75.3949 54.5733 75.0402 54.7456 74.7685C54.918 74.4934 55.1483 74.2779 55.4367 74.1222C55.725 73.9664 56.0432 73.8504 56.3912 73.7741C56.7425 73.6946 57.0955 73.6316 57.4501 73.5852C57.9142 73.5256 58.2903 73.4808 58.5787 73.451C58.8704 73.4179 59.0825 73.3632 59.2151 73.2869C59.351 73.2107 59.4189 73.0781 59.4189 72.8892V72.8494C59.4189 72.3589 59.2847 71.9777 59.0162 71.706C58.751 71.4342 58.3483 71.2983 57.8081 71.2983C57.248 71.2983 56.8088 71.4209 56.4906 71.6662C56.1725 71.9115 55.9487 72.1733 55.8195 72.4517L54.7058 72.054C54.9047 71.59 55.1698 71.2287 55.5013 70.9702C55.836 70.7083 56.2006 70.526 56.595 70.4233C56.9928 70.3172 57.3839 70.2642 57.7683 70.2642C58.0136 70.2642 58.2953 70.294 58.6135 70.3537C58.935 70.41 59.2449 70.5277 59.5432 70.7067C59.8448 70.8857 60.095 71.1558 60.2939 71.517C60.4928 71.8783 60.5922 72.3622 60.5922 72.9688V78H59.4189V76.9659H59.3592C59.2797 77.1316 59.1471 77.3089 58.9615 77.4979C58.7759 77.6868 58.529 77.8475 58.2207 77.9801C57.9125 78.1127 57.5363 78.179 57.0922 78.179ZM57.2712 77.125C57.7352 77.125 58.1263 77.0339 58.4445 76.8516C58.766 76.6693 59.0079 76.4339 59.1703 76.1456C59.336 75.8572 59.4189 75.554 59.4189 75.2358V74.1619C59.3692 74.2216 59.2598 74.2763 59.0908 74.326C58.9251 74.3724 58.7328 74.4138 58.5141 74.4503C58.2986 74.4834 58.0882 74.5133 57.8827 74.5398C57.6805 74.563 57.5164 74.5829 57.3905 74.5994C57.0856 74.6392 56.8005 74.7038 56.5354 74.7933C56.2735 74.8795 56.0614 75.0104 55.899 75.1861C55.7399 75.3584 55.6604 75.5937 55.6604 75.892C55.6604 76.2997 55.8112 76.608 56.1128 76.8168C56.4177 77.0223 56.8038 77.125 57.2712 77.125ZM62.5937 78V70.3636H63.7272V71.517H63.8068C63.946 71.1392 64.1979 70.8326 64.5625 70.5973C64.927 70.362 65.338 70.2443 65.7954 70.2443C65.8816 70.2443 65.9893 70.246 66.1186 70.2493C66.2478 70.2526 66.3456 70.2576 66.4119 70.2642V71.4574C66.3721 71.4474 66.281 71.4325 66.1385 71.4126C65.9992 71.3894 65.8518 71.3778 65.696 71.3778C65.3248 71.3778 64.9933 71.4557 64.7017 71.6115C64.4133 71.764 64.1846 71.9761 64.0156 72.2479C63.8499 72.5163 63.767 72.8229 63.767 73.1676V78H62.5937ZM67.6627 78V70.3636H68.836V78H67.6627ZM68.2593 69.0909C68.0306 69.0909 67.8334 69.013 67.6677 68.8572C67.5053 68.7015 67.4241 68.5142 67.4241 68.2955C67.4241 68.0767 67.5053 67.8894 67.6677 67.7337C67.8334 67.5779 68.0306 67.5 68.2593 67.5C68.488 67.5 68.6835 67.5779 68.8459 67.7337C69.0117 67.8894 69.0945 68.0767 69.0945 68.2955C69.0945 68.5142 69.0117 68.7015 68.8459 68.8572C68.6835 69.013 68.488 69.0909 68.2593 69.0909ZM72.0183 73.4062V78H70.845V70.3636H71.9785V71.5568H72.0779C72.2569 71.169 72.5287 70.8575 72.8933 70.6222C73.2578 70.3835 73.7285 70.2642 74.3052 70.2642C74.8222 70.2642 75.2746 70.3703 75.6624 70.5824C76.0502 70.7912 76.3518 71.1094 76.5673 71.5369C76.7827 71.9612 76.8904 72.4981 76.8904 73.1477V78H75.7171V73.2273C75.7171 72.6274 75.5613 72.16 75.2498 71.8253C74.9382 71.4872 74.5107 71.3182 73.9671 71.3182C73.5926 71.3182 73.2578 71.3994 72.9629 71.5618C72.6712 71.7242 72.4408 71.9612 72.2718 72.2727C72.1028 72.5843 72.0183 72.9621 72.0183 73.4062ZM81.9768 81.0227C81.41 81.0227 80.9228 80.9498 80.5152 80.804C80.1075 80.6615 79.7678 80.4725 79.496 80.2372C79.2275 80.0052 79.0137 79.7566 78.8546 79.4915L79.7893 78.8352C79.8954 78.9744 80.0296 79.1335 80.192 79.3125C80.3544 79.4948 80.5765 79.6522 80.8582 79.7848C81.1432 79.9207 81.5161 79.9886 81.9768 79.9886C82.5933 79.9886 83.102 79.8395 83.5031 79.5412C83.9041 79.2429 84.1046 78.7756 84.1046 78.1392V76.5881H84.0052C83.919 76.7273 83.7964 76.8996 83.6373 77.1051C83.4815 77.3073 83.2562 77.4879 82.9612 77.647C82.6695 77.8028 82.2751 77.8807 81.7779 77.8807C81.1615 77.8807 80.608 77.7348 80.1174 77.4432C79.6302 77.1515 79.2441 76.7273 78.959 76.1705C78.6773 75.6136 78.5365 74.9375 78.5365 74.142C78.5365 73.3598 78.674 72.6787 78.9491 72.0987C79.2242 71.5154 79.607 71.0646 80.0975 70.7464C80.5881 70.425 81.1548 70.2642 81.7978 70.2642C82.295 70.2642 82.6894 70.3471 82.9811 70.5128C83.276 70.6752 83.5014 70.8608 83.6572 71.0696C83.8163 71.2751 83.9389 71.4441 84.0251 71.5767H84.1444V70.3636H85.2779V78.2188C85.2779 78.875 85.1288 79.4086 84.8305 79.8196C84.5355 80.2339 84.1378 80.5372 83.6373 80.7294C83.1402 80.925 82.5866 81.0227 81.9768 81.0227ZM81.937 76.8267C82.4077 76.8267 82.8054 76.719 83.1302 76.5036C83.455 76.2881 83.7019 75.9782 83.871 75.5739C84.04 75.1695 84.1245 74.6856 84.1245 74.1222C84.1245 73.572 84.0417 73.0864 83.8759 72.6655C83.7102 72.2446 83.465 71.9148 83.1402 71.6761C82.8153 71.4375 82.4143 71.3182 81.937 71.3182C81.4399 71.3182 81.0256 71.4441 80.6941 71.696C80.366 71.9479 80.1191 72.286 79.9534 72.7102C79.791 73.1345 79.7098 73.6051 79.7098 74.1222C79.7098 74.6525 79.7926 75.1214 79.9583 75.5291C80.1274 75.9335 80.3759 76.2517 80.7041 76.4837C81.0355 76.7124 81.4465 76.8267 81.937 76.8267ZM45.0162 87.3636L42.1923 95H40.9991L38.1752 87.3636H39.448L41.5559 93.4489H41.6355L43.7434 87.3636H45.0162ZM49.2536 95.1591C48.5642 95.1591 47.9594 94.995 47.439 94.6669C46.922 94.3388 46.5176 93.8797 46.2259 93.2898C45.9376 92.6998 45.7934 92.0104 45.7934 91.2216C45.7934 90.4261 45.9376 89.7318 46.2259 89.1385C46.5176 88.5452 46.922 88.0845 47.439 87.7564C47.9594 87.4283 48.5642 87.2642 49.2536 87.2642C49.943 87.2642 50.5463 87.4283 51.0633 87.7564C51.5837 88.0845 51.988 88.5452 52.2764 89.1385C52.568 89.7318 52.7139 90.4261 52.7139 91.2216C52.7139 92.0104 52.568 92.6998 52.2764 93.2898C51.988 93.8797 51.5837 94.3388 51.0633 94.6669C50.5463 94.995 49.943 95.1591 49.2536 95.1591ZM49.2536 94.1051C49.7773 94.1051 50.2082 93.9709 50.5463 93.7024C50.8843 93.4339 51.1346 93.081 51.297 92.6435C51.4594 92.206 51.5406 91.732 51.5406 91.2216C51.5406 90.7112 51.4594 90.2356 51.297 89.7947C51.1346 89.3539 50.8843 88.9976 50.5463 88.7259C50.2082 88.4541 49.7773 88.3182 49.2536 88.3182C48.73 88.3182 48.2991 88.4541 47.961 88.7259C47.623 88.9976 47.3727 89.3539 47.2103 89.7947C47.0479 90.2356 46.9667 90.7112 46.9667 91.2216C46.9667 91.732 47.0479 92.206 47.2103 92.6435C47.3727 93.081 47.623 93.4339 47.961 93.7024C48.2991 93.9709 48.73 94.1051 49.2536 94.1051ZM54.3649 95V87.3636H55.5382V95H54.3649ZM54.9615 86.0909C54.7328 86.0909 54.5356 86.013 54.3699 85.8572C54.2074 85.7015 54.1262 85.5142 54.1262 85.2955C54.1262 85.0767 54.2074 84.8894 54.3699 84.7337C54.5356 84.5779 54.7328 84.5 54.9615 84.5C55.1902 84.5 55.3857 84.5779 55.5481 84.7337C55.7138 84.8894 55.7967 85.0767 55.7967 85.2955C55.7967 85.5142 55.7138 85.7015 55.5481 85.8572C55.3857 86.013 55.1902 86.0909 54.9615 86.0909ZM60.6494 95.1591C59.9335 95.1591 59.317 94.9901 58.8 94.652C58.2829 94.3139 57.8852 93.8482 57.6068 93.255C57.3284 92.6617 57.1892 91.9839 57.1892 91.2216C57.1892 90.446 57.3317 89.7616 57.6167 89.1683C57.9051 88.5717 58.3061 88.1061 58.8199 87.7713C59.3369 87.4332 59.9401 87.2642 60.6295 87.2642C61.1665 87.2642 61.6504 87.3636 62.0812 87.5625C62.5121 87.7614 62.8651 88.0398 63.1402 88.3977C63.4153 88.7557 63.586 89.1733 63.6523 89.6506H62.479C62.3895 89.3026 62.1906 88.9943 61.8824 88.7259C61.5774 88.4541 61.1665 88.3182 60.6494 88.3182C60.192 88.3182 59.791 88.4375 59.4463 88.6761C59.1049 88.9115 58.8381 89.2446 58.6459 89.6754C58.4569 90.103 58.3625 90.6051 58.3625 91.1818C58.3625 91.7718 58.4553 92.2855 58.6409 92.723C58.8298 93.1605 59.095 93.5002 59.4364 93.7422C59.781 93.9841 60.1854 94.1051 60.6494 94.1051C60.9543 94.1051 61.2311 94.0521 61.4797 93.946C61.7283 93.84 61.9387 93.6875 62.1111 93.4886C62.2834 93.2898 62.406 93.0511 62.479 92.7727H63.6523C63.586 93.2235 63.4219 93.6295 63.1601 93.9908C62.9015 94.3487 62.5585 94.6338 62.131 94.8459C61.7067 95.0547 61.2129 95.1591 60.6494 95.1591ZM68.4292 95.1591C67.6934 95.1591 67.0587 94.9967 66.525 94.6719C65.9947 94.3438 65.5854 93.8864 65.2971 93.2997C65.012 92.7098 64.8695 92.0237 64.8695 91.2415C64.8695 90.4593 65.012 89.7699 65.2971 89.1733C65.5854 88.5734 65.9865 88.1061 66.5002 87.7713C67.0172 87.4332 67.6205 87.2642 68.3098 87.2642C68.7076 87.2642 69.1003 87.3305 69.4881 87.4631C69.8759 87.5956 70.2289 87.8111 70.5471 88.1094C70.8652 88.4044 71.1188 88.7955 71.3077 89.2827C71.4966 89.7699 71.5911 90.3698 71.5911 91.0824V91.5795H65.7047V90.5653H70.3979C70.3979 90.1345 70.3117 89.75 70.1394 89.4119C69.9704 89.0739 69.7284 88.8071 69.4135 88.6115C69.102 88.416 68.7341 88.3182 68.3098 88.3182C67.8425 88.3182 67.4382 88.4342 67.0968 88.6662C66.7587 88.8949 66.4985 89.1932 66.3162 89.5611C66.1339 89.929 66.0428 90.3234 66.0428 90.7443V91.4205C66.0428 91.9972 66.1422 92.486 66.3411 92.8871C66.5433 93.2848 66.8233 93.5881 67.1813 93.7969C67.5392 94.0024 67.9552 94.1051 68.4292 94.1051C68.7374 94.1051 69.0158 94.062 69.2644 93.9759C69.5163 93.8864 69.7334 93.7538 69.9157 93.5781C70.098 93.3991 70.2388 93.1771 70.3383 92.9119L71.4718 93.2301C71.3525 93.6146 71.1519 93.9527 70.8702 94.2443C70.5885 94.5327 70.2405 94.758 69.8262 94.9205C69.4119 95.0795 68.9462 95.1591 68.4292 95.1591Z" fill="black"/>
</svg>
