<svg width="142" height="52" viewBox="0 0 142 52" fill="none" xmlns="http://www.w3.org/2000/svg">
<path d="M6.68457 9.15967L5.76416 6.53809H2.12061L1.2002 9.15967H0.000488281L3.37744 0H4.50732L7.88428 9.15967H6.68457ZM3.92334 1.39014L2.45703 5.56689H5.42773L3.96143 1.39014H3.92334ZM12.3279 5.49072L15.2478 2.55811H16.5872L13.7244 5.4082L16.676 9.15967H15.3938L12.9436 6.0874L12.3279 6.67139V9.15967H11.2234V0H12.3279V5.49072ZM17.403 9.15967V2.55811H18.5075V9.15967H17.403ZM17.9552 1.44727C17.5807 1.44727 17.2697 1.13623 17.2697 0.761719C17.2697 0.380859 17.5807 0.0761719 17.9552 0.0761719C18.3361 0.0761719 18.6471 0.380859 18.6471 0.761719C18.6471 1.13623 18.3361 1.44727 17.9552 1.44727ZM19.8692 9.15967V2.55811H20.9102V3.61182H20.9356C21.3037 2.90088 22.0083 2.44385 23.0303 2.44385C24.4776 2.44385 25.3154 3.37695 25.3154 4.875V9.15967H24.211V5.07178C24.211 4.00537 23.7095 3.42139 22.6939 3.42139C21.6529 3.42139 20.9737 4.15771 20.9737 5.2749V9.15967H19.8692ZM29.0956 9.27393C27.4135 9.27393 26.2709 7.92822 26.2709 5.85889C26.2709 3.78955 27.4071 2.44385 29.0702 2.44385C30.016 2.44385 30.7777 2.90723 31.1713 3.63086H31.1967V0H32.3012V9.15967H31.2475V8.04248H31.2284C30.8031 8.8042 30.0478 9.27393 29.0956 9.27393ZM29.3051 3.41504C28.1371 3.41504 27.4008 4.36719 27.4008 5.85889C27.4008 7.35693 28.1371 8.30273 29.3051 8.30273C30.4413 8.30273 31.203 7.33789 31.203 5.85889C31.203 4.38623 30.4413 3.41504 29.3051 3.41504ZM38.3761 8.33447C39.4171 8.33447 40.217 7.60449 40.217 6.65234V6.11279L38.4523 6.2207C37.5636 6.27783 37.0558 6.67139 37.0558 7.29346C37.0558 7.92188 37.5827 8.33447 38.3761 8.33447ZM38.1286 9.27393C36.8146 9.27393 35.9323 8.48047 35.9323 7.29346C35.9323 6.16357 36.8019 5.45264 38.3254 5.36377L40.217 5.25586V4.70361C40.217 3.89746 39.6838 3.41504 38.7697 3.41504C37.9191 3.41504 37.3859 3.81494 37.2463 4.4624H36.1798C36.256 3.31982 37.2336 2.44385 38.7951 2.44385C40.3439 2.44385 41.3214 3.28174 41.3214 4.5957V9.15967H40.2741V8.02344H40.2487C39.8551 8.77881 39.0172 9.27393 38.1286 9.27393ZM42.5943 9.15967V2.55811H43.6353V3.61182H43.6607C44.0288 2.90088 44.7334 2.44385 45.7554 2.44385C47.2027 2.44385 48.0406 3.37695 48.0406 4.875V9.15967H46.9361V5.07178C46.9361 4.00537 46.4346 3.42139 45.419 3.42139C44.378 3.42139 43.6988 4.15771 43.6988 5.2749V9.15967H42.5943ZM51.8207 9.27393C50.1386 9.27393 48.996 7.92822 48.996 5.85889C48.996 3.78955 50.1322 2.44385 51.7953 2.44385C52.7411 2.44385 53.5029 2.90723 53.8964 3.63086H53.9218V0H55.0263V9.15967H53.9726V8.04248H53.9535C53.5282 8.8042 52.7729 9.27393 51.8207 9.27393ZM52.0302 3.41504C50.8622 3.41504 50.1259 4.36719 50.1259 5.85889C50.1259 7.35693 50.8622 8.30273 52.0302 8.30273C53.1664 8.30273 53.9281 7.33789 53.9281 5.85889C53.9281 4.38623 53.1664 3.41504 52.0302 3.41504ZM67.322 2.55811L65.4811 9.15967H64.3576L62.8659 4.0498H62.8405L61.3552 9.15967H60.2316L58.3845 2.55811H59.4826L60.8029 7.92822H60.8283L62.32 2.55811H63.3864L64.8845 7.92822H64.9098L66.2302 2.55811H67.322ZM68.1568 9.15967V2.55811H69.2613V9.15967H68.1568ZM68.709 1.44727C68.3345 1.44727 68.0235 1.13623 68.0235 0.761719C68.0235 0.380859 68.3345 0.0761719 68.709 0.0761719C69.0899 0.0761719 69.4009 0.380859 69.4009 0.761719C69.4009 1.13623 69.0899 1.44727 68.709 1.44727ZM70.5087 4.37988C70.5087 3.25 71.518 2.44385 72.9716 2.44385C74.3364 2.44385 75.3393 3.25635 75.3901 4.37354H74.3364C74.2602 3.73877 73.746 3.34521 72.9335 3.34521C72.1274 3.34521 71.5942 3.74512 71.5942 4.32275C71.5942 4.77979 71.9433 5.08447 72.6923 5.2749L73.7143 5.52246C75.0473 5.85889 75.5297 6.34131 75.5297 7.3125C75.5297 8.46143 74.4443 9.27393 72.9018 9.27393C71.4545 9.27393 70.4453 8.48682 70.331 7.31885H71.4355C71.5561 8.00439 72.0766 8.37256 72.9716 8.37256C73.8666 8.37256 74.4189 7.9917 74.4189 7.39502C74.4189 6.92529 74.1459 6.67139 73.4033 6.47461L72.2416 6.17627C71.08 5.87793 70.5087 5.28125 70.5087 4.37988ZM79.1956 3.40234C78.161 3.40234 77.4373 4.1958 77.3675 5.29395H80.9539C80.9285 4.18945 80.2366 3.40234 79.1956 3.40234ZM80.9285 7.26807H82.014C81.8236 8.42334 80.7064 9.27393 79.2654 9.27393C77.3738 9.27393 76.2249 7.95996 76.2249 5.88428C76.2249 3.83398 77.3929 2.44385 79.2147 2.44385C80.9984 2.44385 82.0965 3.73877 82.0965 5.73828V6.15723H77.3612V6.2207C77.3612 7.48389 78.1038 8.31543 79.2908 8.31543C80.1287 8.31543 80.7445 7.89014 80.9285 7.26807ZM85.6197 9.15967V2.55811H86.6607V3.61182H86.6861C86.9971 2.91357 87.67 2.44385 88.5587 2.44385C89.46 2.44385 90.1265 2.90088 90.4122 3.70068H90.4376C90.8057 2.91357 91.5802 2.44385 92.5069 2.44385C93.8145 2.44385 94.6588 3.29443 94.6588 4.60205V9.15967H93.5543V4.85596C93.5543 3.95459 93.0528 3.42139 92.1832 3.42139C91.3072 3.42139 90.6915 4.06885 90.6915 4.96387V9.15967H89.587V4.73535C89.587 3.94189 89.0538 3.42139 88.2349 3.42139C87.359 3.42139 86.7242 4.10693 86.7242 5.021V9.15967H85.6197ZM98.1152 8.33447C99.1562 8.33447 99.956 7.60449 99.956 6.65234V6.11279L98.1914 6.2207C97.3027 6.27783 96.7949 6.67139 96.7949 7.29346C96.7949 7.92188 97.3217 8.33447 98.1152 8.33447ZM97.8676 9.27393C96.5537 9.27393 95.6713 8.48047 95.6713 7.29346C95.6713 6.16357 96.541 5.45264 98.0644 5.36377L99.956 5.25586V4.70361C99.956 3.89746 99.4228 3.41504 98.5088 3.41504C97.6582 3.41504 97.125 3.81494 96.9853 4.4624H95.9189C95.9951 3.31982 96.9726 2.44385 98.5341 2.44385C100.083 2.44385 101.061 3.28174 101.061 4.5957V9.15967H100.013V8.02344H99.9878C99.5942 8.77881 98.7563 9.27393 97.8676 9.27393ZM102.333 9.15967V2.55811H103.374V3.61182H103.4C103.768 2.90088 104.473 2.44385 105.494 2.44385C106.942 2.44385 107.78 3.37695 107.78 4.875V9.15967H106.675V5.07178C106.675 4.00537 106.174 3.42139 105.158 3.42139C104.117 3.42139 103.438 4.15771 103.438 5.2749V9.15967H102.333ZM109.992 9.22314C109.586 9.22314 109.268 8.90576 109.268 8.49951C109.268 8.09326 109.586 7.77588 109.992 7.77588C110.398 7.77588 110.716 8.09326 110.716 8.49951C110.716 8.90576 110.398 9.22314 109.992 9.22314ZM121.615 9.15967H120.472V4.98926H115.445V9.15967H114.302V0H115.445V3.96094H120.472V0H121.615V9.15967ZM125.738 3.40234C124.703 3.40234 123.979 4.1958 123.91 5.29395H127.496C127.471 4.18945 126.779 3.40234 125.738 3.40234ZM127.471 7.26807H128.556C128.366 8.42334 127.248 9.27393 125.807 9.27393C123.916 9.27393 122.767 7.95996 122.767 5.88428C122.767 3.83398 123.935 2.44385 125.757 2.44385C127.54 2.44385 128.639 3.73877 128.639 5.73828V6.15723H123.903V6.2207C123.903 7.48389 124.646 8.31543 125.833 8.31543C126.671 8.31543 127.286 7.89014 127.471 7.26807ZM0.616211 29.1597V20H1.7207V29.1597H0.616211ZM5.81824 29.2739C3.99012 29.2739 2.75867 27.96 2.75867 25.8589C2.75867 23.7515 3.99012 22.4438 5.81824 22.4438C7.64002 22.4438 8.87146 23.7515 8.87146 25.8589C8.87146 27.96 7.64002 29.2739 5.81824 29.2739ZM5.81824 28.3027C6.98621 28.3027 7.74793 27.4141 7.74793 25.8589C7.74793 24.3037 6.98621 23.415 5.81824 23.415C4.65027 23.415 3.88221 24.3037 3.88221 25.8589C3.88221 27.4141 4.65027 28.3027 5.81824 28.3027ZM15.0828 22.5581L12.658 29.1597H11.5281L9.09693 22.5581H10.2586L12.0803 27.9854H12.1057L13.9338 22.5581H15.0828ZM18.2789 23.4023C17.2443 23.4023 16.5206 24.1958 16.4508 25.2939H20.0372C20.0119 24.1895 19.32 23.4023 18.2789 23.4023ZM20.0119 27.2681H21.0973C20.9069 28.4233 19.7897 29.2739 18.3488 29.2739C16.4572 29.2739 15.3082 27.96 15.3082 25.8843C15.3082 23.834 16.4762 22.4438 18.298 22.4438C20.0817 22.4438 21.1798 23.7388 21.1798 25.7383V26.1572H16.4445V26.2207C16.4445 27.4839 17.1871 28.3154 18.3742 28.3154C19.2121 28.3154 19.8278 27.8901 20.0119 27.2681ZM22.0528 24.3799C22.0528 23.25 23.062 22.4438 24.5156 22.4438C25.8804 22.4438 26.8833 23.2563 26.9341 24.3735H25.8804C25.8042 23.7388 25.2901 23.3452 24.4776 23.3452C23.6714 23.3452 23.1382 23.7451 23.1382 24.3228C23.1382 24.7798 23.4873 25.0845 24.2363 25.2749L25.2583 25.5225C26.5913 25.8589 27.0737 26.3413 27.0737 27.3125C27.0737 28.4614 25.9883 29.2739 24.4458 29.2739C22.9986 29.2739 21.9893 28.4868 21.875 27.3188H22.9795C23.1001 28.0044 23.6206 28.3726 24.5156 28.3726C25.4107 28.3726 25.9629 27.9917 25.9629 27.395C25.9629 26.9253 25.69 26.6714 24.9473 26.4746L23.7857 26.1763C22.624 25.8779 22.0528 25.2812 22.0528 24.3799ZM33.8343 22.4438C35.5164 22.4438 36.659 23.7896 36.659 25.8589C36.659 27.9282 35.5227 29.2739 33.8596 29.2739C32.9138 29.2739 32.1521 28.8105 31.7586 28.0869H31.7332V31.3623H30.6287V22.5581H31.6761V23.6753H31.7014C32.1077 22.9326 32.8758 22.4438 33.8343 22.4438ZM33.6184 28.3027C34.7928 28.3027 35.5291 27.3569 35.5291 25.8589C35.5291 24.3672 34.7928 23.415 33.6184 23.415C32.4886 23.415 31.7268 24.3926 31.7268 25.8589C31.7268 27.3315 32.4886 28.3027 33.6184 28.3027ZM40.382 29.2739C38.5539 29.2739 37.3224 27.96 37.3224 25.8589C37.3224 23.7515 38.5539 22.4438 40.382 22.4438C42.2038 22.4438 43.4352 23.7515 43.4352 25.8589C43.4352 27.96 42.2038 29.2739 40.382 29.2739ZM40.382 28.3027C41.55 28.3027 42.3117 27.4141 42.3117 25.8589C42.3117 24.3037 41.55 23.415 40.382 23.415C39.214 23.415 38.446 24.3037 38.446 25.8589C38.446 27.4141 39.214 28.3027 40.382 28.3027ZM47.0694 23.4023C46.0347 23.4023 45.3111 24.1958 45.2412 25.2939H48.8277C48.8023 24.1895 48.1104 23.4023 47.0694 23.4023ZM48.8023 27.2681H49.8877C49.6973 28.4233 48.5801 29.2739 47.1392 29.2739C45.2476 29.2739 44.0987 27.96 44.0987 25.8843C44.0987 23.834 45.2666 22.4438 47.0884 22.4438C48.8721 22.4438 49.9703 23.7388 49.9703 25.7383V26.1572H45.2349V26.2207C45.2349 27.4839 45.9776 28.3154 47.1646 28.3154C48.0025 28.3154 48.6182 27.8901 48.8023 27.2681ZM51.3129 20.9648H52.4174V22.5581H53.6996V23.4658H52.4174V27.3887C52.4174 27.9917 52.6713 28.2646 53.2363 28.2646C53.3632 28.2646 53.6171 28.2456 53.6933 28.2329V29.1597C53.56 29.1914 53.2553 29.2104 52.995 29.2104C51.7826 29.2104 51.3129 28.7153 51.3129 27.4458V23.4658H50.329V22.5581H51.3129V20.9648ZM54.7503 29.1597V22.5581H55.7913V23.6372H55.8167C56.0325 22.9072 56.6419 22.4438 57.4163 22.4438C57.6067 22.4438 57.7718 22.4756 57.8606 22.4883V23.561C57.7718 23.5293 57.5369 23.4976 57.2703 23.4976C56.4134 23.4976 55.8548 24.1133 55.8548 25.0464V29.1597H54.7503ZM59.1779 31.6289C59.0446 31.6289 58.8224 31.6162 58.7018 31.5908V30.6641C58.8224 30.6895 58.9938 30.6958 59.1335 30.6958C59.7492 30.6958 60.092 30.3975 60.3459 29.6294L60.4982 29.166L58.0607 22.5581H59.2414L61.0695 28.0552H61.0886L62.9167 22.5581H64.0783L61.4821 29.623C60.9172 31.1655 60.3713 31.6289 59.1779 31.6289ZM64.6275 30.9814H63.7071L64.3228 27.7505H65.4971L64.6275 30.9814ZM71.68 29.2739C69.8519 29.2739 68.6204 27.96 68.6204 25.8589C68.6204 23.7515 69.8519 22.4438 71.68 22.4438C73.5018 22.4438 74.7332 23.7515 74.7332 25.8589C74.7332 27.96 73.5018 29.2739 71.68 29.2739ZM71.68 28.3027C72.848 28.3027 73.6097 27.4141 73.6097 25.8589C73.6097 24.3037 72.848 23.415 71.68 23.415C70.512 23.415 69.744 24.3037 69.744 25.8589C69.744 27.4141 70.512 28.3027 71.68 28.3027ZM75.7775 29.1597V20H76.882V29.1597H75.7775ZM80.7447 29.2739C79.0626 29.2739 77.92 27.9282 77.92 25.8589C77.92 23.7896 79.0562 22.4438 80.7193 22.4438C81.6651 22.4438 82.4268 22.9072 82.8204 23.6309H82.8458V20H83.9503V29.1597H82.8966V28.0425H82.8775C82.4522 28.8042 81.6969 29.2739 80.7447 29.2739ZM80.9542 23.415C79.7862 23.415 79.0499 24.3672 79.0499 25.8589C79.0499 27.3569 79.7862 28.3027 80.9542 28.3027C82.0904 28.3027 82.8521 27.3379 82.8521 25.8589C82.8521 24.3862 82.0904 23.415 80.9542 23.415ZM87.7337 24.3799C87.7337 23.25 88.743 22.4438 90.1966 22.4438C91.5614 22.4438 92.5643 23.2563 92.6151 24.3735H91.5614C91.4852 23.7388 90.971 23.3452 90.1585 23.3452C89.3524 23.3452 88.8192 23.7451 88.8192 24.3228C88.8192 24.7798 89.1683 25.0845 89.9173 25.2749L90.9393 25.5225C92.2723 25.8589 92.7547 26.3413 92.7547 27.3125C92.7547 28.4614 91.6693 29.2739 90.1268 29.2739C88.6795 29.2739 87.6703 28.4868 87.556 27.3188H88.6605C88.7811 28.0044 89.3016 28.3726 90.1966 28.3726C91.0916 28.3726 91.6439 27.9917 91.6439 27.395C91.6439 26.9253 91.3709 26.6714 90.6283 26.4746L89.4666 26.1763C88.305 25.8779 87.7337 25.2812 87.7337 24.3799ZM96.5095 29.2739C94.6814 29.2739 93.4499 27.96 93.4499 25.8589C93.4499 23.7515 94.6814 22.4438 96.5095 22.4438C98.3313 22.4438 99.5627 23.7515 99.5627 25.8589C99.5627 27.96 98.3313 29.2739 96.5095 29.2739ZM96.5095 28.3027C97.6775 28.3027 98.4392 27.4141 98.4392 25.8589C98.4392 24.3037 97.6775 23.415 96.5095 23.415C95.3415 23.415 94.5735 24.3037 94.5735 25.8589C94.5735 27.4141 95.3415 28.3027 96.5095 28.3027ZM100.55 29.1597V22.5581H101.591V23.6118H101.616C101.984 22.9009 102.689 22.4438 103.711 22.4438C105.158 22.4438 105.996 23.377 105.996 24.875V29.1597H104.892V25.0718C104.892 24.0054 104.39 23.4214 103.375 23.4214C102.334 23.4214 101.654 24.1577 101.654 25.2749V29.1597H100.55ZM109.96 28.2393C111.109 28.2393 111.877 27.2871 111.877 25.8335C111.877 24.3799 111.109 23.415 109.96 23.415C108.824 23.415 108.082 24.3545 108.082 25.8335C108.082 27.3125 108.824 28.2393 109.96 28.2393ZM109.999 31.6479C108.545 31.6479 107.396 30.8291 107.212 29.7056H108.348C108.564 30.3086 109.218 30.7085 110.043 30.7085C111.186 30.7085 111.877 30.0483 111.877 29.0645V28.0234H111.852C111.446 28.7407 110.665 29.2104 109.738 29.2104C108.056 29.2104 106.952 27.8838 106.952 25.8335C106.952 23.7642 108.056 22.4438 109.764 22.4438C110.697 22.4438 111.471 22.9009 111.909 23.6689H111.928V22.5581H112.982V29.0264C112.982 30.6006 111.82 31.6479 109.999 31.6479ZM114.179 24.3799C114.179 23.25 115.188 22.4438 116.641 22.4438C118.006 22.4438 119.009 23.2563 119.06 24.3735H118.006C117.93 23.7388 117.416 23.3452 116.603 23.3452C115.797 23.3452 115.264 23.7451 115.264 24.3228C115.264 24.7798 115.613 25.0845 116.362 25.2749L117.384 25.5225C118.717 25.8589 119.2 26.3413 119.2 27.3125C119.2 28.4614 118.114 29.2739 116.572 29.2739C115.124 29.2739 114.115 28.4868 114.001 27.3188H115.105C115.226 28.0044 115.746 28.3726 116.641 28.3726C117.536 28.3726 118.089 27.9917 118.089 27.395C118.089 26.9253 117.816 26.6714 117.073 26.4746L115.911 26.1763C114.75 25.8779 114.179 25.2812 114.179 24.3799ZM124.932 28.3345C125.973 28.3345 126.773 27.6045 126.773 26.6523V26.1128L125.008 26.2207C124.119 26.2778 123.611 26.6714 123.611 27.2935C123.611 27.9219 124.138 28.3345 124.932 28.3345ZM124.684 29.2739C123.37 29.2739 122.488 28.4805 122.488 27.2935C122.488 26.1636 123.358 25.4526 124.881 25.3638L126.773 25.2559V24.7036C126.773 23.8975 126.239 23.415 125.325 23.415C124.475 23.415 123.942 23.8149 123.802 24.4624H122.735C122.812 23.3198 123.789 22.4438 125.351 22.4438C126.9 22.4438 127.877 23.2817 127.877 24.5957V29.1597H126.83V28.0234H126.804C126.411 28.7788 125.573 29.2739 124.684 29.2739ZM129.15 29.1597V22.5581H130.191V23.6118H130.216C130.584 22.9009 131.289 22.4438 132.311 22.4438C133.758 22.4438 134.596 23.377 134.596 24.875V29.1597H133.492V25.0718C133.492 24.0054 132.99 23.4214 131.975 23.4214C130.934 23.4214 130.254 24.1577 130.254 25.2749V29.1597H129.15ZM138.376 29.2739C136.694 29.2739 135.552 27.9282 135.552 25.8589C135.552 23.7896 136.688 22.4438 138.351 22.4438C139.297 22.4438 140.058 22.9072 140.452 23.6309H140.477V20H141.582V29.1597H140.528V28.0425H140.509C140.084 28.8042 139.328 29.2739 138.376 29.2739ZM138.586 23.415C137.418 23.415 136.682 24.3672 136.682 25.8589C136.682 27.3569 137.418 28.3027 138.586 28.3027C139.722 28.3027 140.484 27.3379 140.484 25.8589C140.484 24.3862 139.722 23.415 138.586 23.415ZM6.04346 44.7227H4.96436C4.80566 44.0054 4.24707 43.415 3.27588 43.415C2.1333 43.415 1.35889 44.3608 1.35889 45.8589C1.35889 47.395 2.146 48.3027 3.28857 48.3027C4.18994 48.3027 4.78027 47.8267 4.9707 47.0332H6.05615C5.88477 48.3472 4.78027 49.2739 3.28223 49.2739C1.4541 49.2739 0.235352 47.9854 0.235352 45.8589C0.235352 43.7769 1.44775 42.4438 3.26953 42.4438C4.91992 42.4438 5.90381 43.5356 6.04346 44.7227ZM9.11902 48.3345C10.16 48.3345 10.9598 47.6045 10.9598 46.6523V46.1128L9.1952 46.2207C8.30652 46.2778 7.79871 46.6714 7.79871 47.2935C7.79871 47.9219 8.32557 48.3345 9.11902 48.3345ZM8.87146 49.2739C7.5575 49.2739 6.67518 48.4805 6.67518 47.2935C6.67518 46.1636 7.5448 45.4526 9.06824 45.3638L10.9598 45.2559V44.7036C10.9598 43.8975 10.4266 43.415 9.51258 43.415C8.66199 43.415 8.12879 43.8149 7.98914 44.4624H6.92273C6.99891 43.3198 7.97645 42.4438 9.53797 42.4438C11.0868 42.4438 12.0643 43.2817 12.0643 44.5957V49.1597H11.017V48.0234H10.9916C10.598 48.7788 9.76014 49.2739 8.87146 49.2739ZM13.3943 49.1597V40H14.4988V49.1597H13.3943ZM15.8605 49.1597V42.5581H16.9015V43.6118H16.9269C17.2379 42.9136 17.9108 42.4438 18.7995 42.4438C19.7008 42.4438 20.3673 42.9009 20.653 43.7007H20.6784C21.0465 42.9136 21.8209 42.4438 22.7477 42.4438C24.0553 42.4438 24.8996 43.2944 24.8996 44.6021V49.1597H23.7951V44.856C23.7951 43.9546 23.2936 43.4214 22.424 43.4214C21.548 43.4214 20.9323 44.0688 20.9323 44.9639V49.1597H19.8278V44.7354C19.8278 43.9419 19.2946 43.4214 18.4757 43.4214C17.5997 43.4214 16.965 44.1069 16.965 45.021V49.1597H15.8605ZM28.7147 49.1597V42.5581H29.7558V43.6118H29.7812C30.0922 42.9136 30.765 42.4438 31.6537 42.4438C32.5551 42.4438 33.2216 42.9009 33.5072 43.7007H33.5326C33.9008 42.9136 34.6752 42.4438 35.602 42.4438C36.9096 42.4438 37.7538 43.2944 37.7538 44.6021V49.1597H36.6493V44.856C36.6493 43.9546 36.1479 43.4214 35.2782 43.4214C34.4022 43.4214 33.7865 44.0688 33.7865 44.9639V49.1597H32.682V44.7354C32.682 43.9419 32.1488 43.4214 31.33 43.4214C30.454 43.4214 29.8192 44.1069 29.8192 45.021V49.1597H28.7147ZM41.7688 49.2739C39.9407 49.2739 38.7093 47.96 38.7093 45.8589C38.7093 43.7515 39.9407 42.4438 41.7688 42.4438C43.5906 42.4438 44.8221 43.7515 44.8221 45.8589C44.8221 47.96 43.5906 49.2739 41.7688 49.2739ZM41.7688 48.3027C42.9368 48.3027 43.6985 47.4141 43.6985 45.8589C43.6985 44.3037 42.9368 43.415 41.7688 43.415C40.6009 43.415 39.8328 44.3037 39.8328 45.8589C39.8328 47.4141 40.6009 48.3027 41.7688 48.3027ZM45.8092 49.1597V42.5581H46.8503V43.6372H46.8756C47.0915 42.9072 47.7008 42.4438 48.4753 42.4438C48.6657 42.4438 48.8307 42.4756 48.9196 42.4883V43.561C48.8307 43.5293 48.5959 43.4976 48.3293 43.4976C47.4723 43.4976 46.9137 44.1133 46.9137 45.0464V49.1597H45.8092ZM49.691 49.1597V42.5581H50.732V43.6118H50.7574C51.1255 42.9009 51.8301 42.4438 52.8521 42.4438C54.2994 42.4438 55.1372 43.377 55.1372 44.875V49.1597H54.0328V45.0718C54.0328 44.0054 53.5313 43.4214 52.5157 43.4214C51.4746 43.4214 50.7954 44.1577 50.7954 45.2749V49.1597H49.691ZM56.4736 49.1597V42.5581H57.578V49.1597H56.4736ZM57.0258 41.4473C56.6513 41.4473 56.3403 41.1362 56.3403 40.7617C56.3403 40.3809 56.6513 40.0762 57.0258 40.0762C57.4067 40.0762 57.7177 40.3809 57.7177 40.7617C57.7177 41.1362 57.4067 41.4473 57.0258 41.4473ZM58.9397 49.1597V42.5581H59.9808V43.6118H60.0062C60.3743 42.9009 61.0789 42.4438 62.1009 42.4438C63.5481 42.4438 64.386 43.377 64.386 44.875V49.1597H63.2815V45.0718C63.2815 44.0054 62.7801 43.4214 61.7645 43.4214C60.7234 43.4214 60.0442 44.1577 60.0442 45.2749V49.1597H58.9397ZM68.3503 48.2393C69.4992 48.2393 70.2673 47.2871 70.2673 45.8335C70.2673 44.3799 69.4992 43.415 68.3503 43.415C67.214 43.415 66.4714 44.3545 66.4714 45.8335C66.4714 47.3125 67.214 48.2393 68.3503 48.2393ZM68.3884 51.6479C66.9347 51.6479 65.7858 50.8291 65.6017 49.7056H66.738C66.9538 50.3086 67.6076 50.7085 68.4328 50.7085C69.5754 50.7085 70.2673 50.0483 70.2673 49.0645V48.0234H70.2419C69.8356 48.7407 69.0549 49.2104 68.1281 49.2104C66.446 49.2104 65.3415 47.8838 65.3415 45.8335C65.3415 43.7642 66.446 42.4438 68.1535 42.4438C69.0866 42.4438 69.861 42.9009 70.299 43.6689H70.318V42.5581H71.3718V49.0264C71.3718 50.6006 70.2101 51.6479 68.3884 51.6479ZM72.5684 44.3799C72.5684 43.25 73.5777 42.4438 75.0313 42.4438C76.3961 42.4438 77.399 43.2563 77.4498 44.3735H76.3961C76.3199 43.7388 75.8057 43.3452 74.9932 43.3452C74.1871 43.3452 73.6539 43.7451 73.6539 44.3228C73.6539 44.7798 74.003 45.0845 74.752 45.2749L75.774 45.5225C77.107 45.8589 77.5894 46.3413 77.5894 47.3125C77.5894 48.4614 76.504 49.2739 74.9615 49.2739C73.5142 49.2739 72.5049 48.4868 72.3907 47.3188H73.4952C73.6158 48.0044 74.1363 48.3726 75.0313 48.3726C75.9263 48.3726 76.4786 47.9917 76.4786 47.395C76.4786 46.9253 76.2056 46.6714 75.463 46.4746L74.3013 46.1763C73.1397 45.8779 72.5684 45.2812 72.5684 44.3799Z" fill="#2D3142"/>
</svg>
