<svg width="46" height="46" viewBox="0 0 46 46" fill="none" xmlns="http://www.w3.org/2000/svg">
<circle cx="22.8689" cy="22.8689" r="22.8689" fill="white"/>
<path d="M22.8922 13.4974C22.9034 13.4972 22.9142 13.4969 22.9254 13.4966C26.5717 13.5221 30.0664 14.9583 32.677 17.5039C35.2933 20.0503 36.7769 23.5315 36.8844 27.1721C36.9021 27.7585 36.6206 28.3301 35.9577 28.303C35.8527 28.2983 35.7495 28.2745 35.6528 28.233C34.9278 27.9212 35.1003 27.1504 35.0472 26.4788C34.8047 23.7455 33.6488 21.1739 31.7658 19.1784C29.4897 16.7727 26.3422 15.3834 23.0308 15.3232C22.7031 15.3216 22.3758 15.3336 22.0492 15.3592C16.8141 15.8047 12.4426 19.5316 11.1748 24.6304C11.02 25.2789 10.9101 25.9371 10.846 26.6008C10.7871 27.2504 10.9433 28.2644 9.93984 28.3041C8.62229 28.3564 9.03322 26.3702 9.1557 25.5366C9.56977 22.6037 10.9063 19.8791 12.9718 17.7565C15.5707 15.0596 19.1471 13.5243 22.8922 13.4974Z" fill="#D4A95F"/>
<path d="M22.3414 17.3916C22.6939 17.3672 23.0476 17.3636 23.4005 17.3808C26.0786 17.5129 28.5968 18.6961 30.4076 20.6734C31.8039 22.2028 32.6941 24.1259 32.9569 26.18C33.0085 26.5824 33.0482 26.957 33.0388 27.3644C33.0258 27.9151 32.6079 28.3626 32.0337 28.2926C31.7115 28.2543 31.4358 28.0432 31.3152 27.7419C31.207 27.4658 31.2427 26.865 31.2005 26.5088C31.0298 25.0646 30.4744 23.6925 29.5921 22.5363C28.0919 20.5421 26.1204 19.5694 23.6972 19.2252C22.7715 19.1424 21.8382 19.2213 20.9394 19.4585C17.8094 20.2566 15.4181 22.7842 14.7945 25.9538C14.6306 26.7675 14.9057 28.1038 13.9068 28.2767C13.3614 28.3709 12.8576 27.9443 12.8633 27.3929C12.9187 22.0462 17.0326 17.7701 22.3414 17.3916Z" fill="#4E54C8"/>
<path d="M22.3764 21.2521C22.7477 21.2134 23.3504 21.2344 23.7138 21.2813C25.3796 21.4971 26.8909 22.3672 27.914 23.6991C28.7177 24.7522 29.2543 26.1729 29.1735 27.5111C29.1457 27.977 28.5852 28.4035 28.1276 28.2891C27.1706 28.0495 27.4705 27.1105 27.2659 26.3978C26.7581 24.6266 25.4019 23.44 23.5987 23.1275C21.265 22.8659 19.1882 24.2192 18.6515 26.5602C18.5612 26.9539 18.5882 27.5887 18.3804 27.9084C18.2555 28.0975 18.0606 28.2288 17.8387 28.2743C17.3277 28.3808 16.7444 28.0105 16.7422 27.4728C16.7287 24.1658 19.1879 21.6591 22.3764 21.2521Z" fill="#4E54C8"/>
<path d="M22.7588 26.0375C23.4857 25.9195 24.1713 26.4103 24.2937 27.1364C24.416 27.8621 23.9292 28.5507 23.2038 28.6774C22.4727 28.8051 21.777 28.3132 21.6536 27.5814C21.5302 26.8492 22.0262 26.1566 22.7588 26.0375Z" fill="#4E54C8"/>
</svg>
