<svg width="96" height="100" viewBox="0 0 96 100" fill="none" xmlns="http://www.w3.org/2000/svg">
<path d="M47.1059 0.00294222C47.1438 0.00196343 47.1805 0.000978789 47.2185 0C59.5806 0.0866228 71.4288 4.95561 80.2795 13.5861C89.1498 22.2191 94.1795 34.0219 94.5441 46.3644C94.6041 48.3526 93.6498 50.2906 91.4022 50.1988C91.0462 50.1829 90.6963 50.1022 90.3684 49.9615C87.9104 48.9044 88.4952 46.291 88.3154 44.0141C87.4932 34.7474 83.5743 26.0288 77.1902 19.2632C69.4737 11.1071 58.8024 6.39688 47.5757 6.19292C46.4648 6.18729 45.3551 6.22804 44.2478 6.31503C26.499 7.8253 11.6782 20.4609 7.37977 37.7474C6.85502 39.946 6.48259 42.1776 6.26517 44.4276C6.06538 46.6299 6.59514 50.0679 3.19299 50.2025C-1.27396 50.3799 0.119236 43.6458 0.534487 40.8195C1.93832 30.8763 6.4695 21.6387 13.4722 14.4424C22.2836 5.29929 34.4085 0.0939696 47.1059 0.00294222Z" fill="#D4A95F"/>
<path d="M45.2393 13.2045C46.4346 13.1219 47.6336 13.1097 48.8302 13.1679C57.9097 13.616 66.4472 17.6274 72.5867 24.3312C77.3203 29.5163 80.3387 36.0363 81.2294 43.0003C81.4043 44.3645 81.5389 45.6345 81.5071 47.0158C81.4631 48.8829 80.0462 50.4 78.0997 50.1626C77.0071 50.0329 76.0724 49.3172 75.6637 48.2956C75.2967 47.3596 75.4178 45.3225 75.2747 44.1149C74.6959 39.2185 72.813 34.5668 69.8216 30.6468C64.7355 23.8858 58.0516 20.5883 49.8359 19.4212C46.6977 19.1405 43.5334 19.4081 40.486 20.212C29.8746 22.918 21.7671 31.4873 19.653 42.2332C19.0973 44.9922 20.0298 49.5227 16.6432 50.1088C14.7943 50.4281 13.0862 48.982 13.1056 47.1125C13.2934 28.9853 27.2407 14.488 45.2393 13.2045Z" fill="white"/>
<path d="M45.3557 26.2938C46.6146 26.1629 48.6579 26.2338 49.8899 26.3929C55.5375 27.1245 60.6615 30.0744 64.1301 34.5903C66.8548 38.1604 68.6741 42.9773 68.4 47.514C68.3058 49.0935 66.4058 50.5396 64.8544 50.1518C61.6097 49.3394 62.6264 46.1559 61.9327 43.7395C60.2112 37.7346 55.6134 33.7118 49.4996 32.6522C41.5878 31.7652 34.5466 36.3533 32.727 44.2901C32.4211 45.6249 32.5124 47.777 31.8081 48.861C31.3847 49.5021 30.7239 49.9475 29.9713 50.1016C28.2388 50.4625 26.2616 49.2072 26.2541 47.3843C26.2082 36.1722 34.5455 27.6739 45.3557 26.2938Z" fill="white"/>
<path d="M46.6567 42.5174C49.1208 42.1173 51.4455 43.7813 51.8602 46.243C52.275 48.7034 50.6245 51.0379 48.1653 51.4673C45.6864 51.9004 43.3279 50.2328 42.9096 47.7515C42.4911 45.269 44.1727 42.9211 46.6567 42.5174Z" fill="white"/>
<path d="M5.49402 84.2241C4.49296 84.2241 3.73001 84.0978 3.20518 83.8451C2.69008 83.5924 2.34019 83.1793 2.15553 82.6059C1.98059 82.0325 1.89311 81.2695 1.89311 80.3171V65.651C1.89311 65.3692 1.94171 65.1554 2.0389 65.0096C2.47626 64.3681 3.08856 63.6927 3.8758 62.9832C4.02158 62.8665 4.14793 62.8082 4.25484 62.8082C4.37147 62.8082 4.49296 62.8665 4.6193 62.9832C5.04694 63.3525 5.40655 63.7072 5.69812 64.0474C5.98969 64.3779 6.24238 64.6986 6.4562 65.0096C6.55339 65.1651 6.60199 65.3789 6.60199 65.651V78.5822C6.60199 79.2334 6.71861 79.6999 6.95187 79.9818C7.18513 80.2636 7.62248 80.4045 8.26394 80.4045L12.7396 80.39C12.9728 80.39 13.1478 80.4288 13.2644 80.5066C13.5171 80.6815 13.7795 80.8905 14.0516 81.1335C14.3238 81.3764 14.6105 81.668 14.9118 82.0082C15.0089 82.1345 15.0575 82.2366 15.0575 82.3143C15.0575 82.4018 15.0089 82.499 14.9118 82.6059C14.6105 82.9461 14.3238 83.2376 14.0516 83.4806C13.7795 83.7236 13.5171 83.9326 13.2644 84.1075C13.1283 84.1852 12.9534 84.2241 12.7396 84.2241H5.49402ZM24.8258 84.574C22.9986 84.574 21.4387 84.3359 20.146 83.8597C18.8631 83.3834 17.8815 82.5476 17.2012 81.3521C16.5306 80.1567 16.1953 78.4802 16.1953 76.3225V65.651C16.1953 65.3692 16.2438 65.1554 16.341 65.0096C16.7784 64.3681 17.3907 63.6927 18.1779 62.9832C18.3237 62.8665 18.4501 62.8082 18.557 62.8082C18.6736 62.8082 18.7951 62.8665 18.9214 62.9832C19.3491 63.3525 19.7087 63.7072 20.0003 64.0474C20.2918 64.3779 20.5445 64.6986 20.7583 65.0096C20.8555 65.1651 20.9041 65.3789 20.9041 65.651V75.5936C20.9041 76.9834 21.0499 78.0428 21.3415 78.7717C21.6428 79.491 22.085 79.9818 22.6681 80.2442C23.2513 80.5066 23.9705 80.6378 24.8258 80.6378C25.7005 80.6378 26.4294 80.5066 27.0125 80.2442C27.5957 79.9818 28.033 79.491 28.3246 78.7717C28.6162 78.0428 28.762 76.9834 28.762 75.5936V65.651C28.762 65.3692 28.8106 65.1554 28.9077 65.0096C29.3451 64.3681 29.9574 63.6927 30.7446 62.9832C30.8904 62.8665 31.0168 62.8082 31.1237 62.8082C31.2403 62.8082 31.3618 62.8665 31.4882 62.9832C31.9158 63.3525 32.2754 63.7072 32.567 64.0474C32.8585 64.3779 33.1112 64.6986 33.325 65.0096C33.4222 65.1651 33.4708 65.3789 33.4708 65.651V76.3225C33.4708 78.4802 33.1015 80.1567 32.3629 81.3521C31.6242 82.5476 30.6037 83.3834 29.3014 83.8597C28.0087 84.3359 26.5169 84.574 24.8258 84.574Z" fill="white"/>
<path d="M71.761 64.4702C72.2956 65.2186 72.8398 66.1856 73.3938 67.3713C73.9575 68.5473 74.5018 69.84 75.0266 71.2492C75.5515 72.6585 76.0228 74.1017 76.4408 75.579C76.8684 77.0466 77.2183 78.4607 77.4904 79.8214C77.7625 81.1821 77.918 82.3921 77.9569 83.4515C77.9666 83.9666 77.7334 84.2241 77.2571 84.2241H73.7291C73.2723 84.2241 73.0342 83.9957 73.0148 83.5389C72.9759 82.4504 72.801 81.1286 72.49 79.5736H64.5301C64.2579 81.0897 64.1024 82.4115 64.0636 83.5389C64.0441 83.9957 63.7963 84.2241 63.3201 84.2241H59.8649C59.69 84.2241 59.5442 84.1755 59.4276 84.0783C59.311 83.9714 59.2575 83.7916 59.2672 83.5389C59.3158 82.4601 59.4713 81.2355 59.7337 79.8651C60.0059 78.485 60.3558 77.0563 60.7834 75.579C61.211 74.1017 61.6873 72.6585 62.2121 71.2492C62.7369 69.8302 63.2812 68.5327 63.8449 67.3567C64.4086 66.1807 64.9577 65.2186 65.4923 64.4702C65.7741 64.0717 66.0705 63.7801 66.3816 63.5955C66.7023 63.4108 67.0959 63.3185 67.5624 63.3185H69.6617C70.138 63.3185 70.5364 63.4108 70.8572 63.5955C71.1779 63.7801 71.4792 64.0717 71.761 64.4702ZM68.4663 67.9253C67.8248 68.9458 67.2368 70.1655 66.7023 71.5845C66.1677 73.0035 65.7061 74.4614 65.3173 75.9581H71.6444C71.2362 74.4614 70.7648 73.0035 70.2303 71.5845C69.6957 70.1655 69.1369 68.9458 68.5538 67.9253H68.4663ZM86.4422 84.574C85.2079 84.574 84.1825 84.4622 83.3661 84.2387C82.5595 84.0152 81.9083 83.7382 81.4126 83.4077C80.9267 83.0676 80.5525 82.7322 80.2901 82.4018C80.2026 82.2755 80.1248 82.154 80.0568 82.0373C79.9888 81.9207 79.9402 81.7895 79.911 81.6437C79.8722 81.4493 79.8333 81.1966 79.7944 80.8856C79.7555 80.5649 79.7507 80.1956 79.7798 79.7777C79.7895 79.6027 79.8236 79.4812 79.8819 79.4132C79.9499 79.3354 80.0617 79.2771 80.2172 79.2383C80.499 79.1702 80.8635 79.1119 81.3106 79.0633C81.7674 79.005 82.093 78.9758 82.2873 78.9758C82.4914 78.9758 82.6567 79.0147 82.783 79.0925C82.9093 79.1702 83.06 79.3014 83.2349 79.4861C83.4293 79.6902 83.7646 79.9526 84.2409 80.2733C84.7171 80.5843 85.4509 80.7398 86.4422 80.7398C87.3947 80.7398 88.1139 80.5406 88.5998 80.1421C89.0858 79.7436 89.3288 79.1897 89.3288 78.4802C89.3288 78.1011 89.2121 77.7464 88.9789 77.4159C88.7553 77.0758 88.3423 76.7405 87.7397 76.41C87.1371 76.0699 86.277 75.7151 85.1593 75.3458C83.3127 74.7238 81.9812 73.9511 81.1648 73.0278C80.3484 72.1045 79.9402 70.8216 79.9402 69.1791C79.9402 67.8184 80.2706 66.6813 80.9315 65.7677C81.5924 64.8541 82.506 64.164 83.6723 63.6975C84.8386 63.231 86.1847 62.9978 87.7106 62.9978C88.8866 62.9978 89.8585 63.1387 90.6263 63.4205C91.4038 63.6927 92.0064 64.0037 92.434 64.3536C92.8616 64.6937 93.1386 64.9707 93.265 65.1845C93.3427 65.3109 93.3913 65.4081 93.4108 65.4761C93.4399 65.5344 93.4594 65.617 93.4691 65.7239C93.4982 66.0252 93.508 66.3605 93.4982 66.7299C93.4885 67.0992 93.4545 67.5171 93.3962 67.9836C93.367 68.1391 93.3136 68.246 93.2358 68.3043C93.1678 68.3529 93.0609 68.3772 92.9151 68.3772C91.9723 68.3967 91.2434 68.3481 90.7283 68.2315C90.5242 68.1829 90.3881 68.1343 90.3201 68.0857C90.2521 68.0371 90.1646 67.9593 90.0577 67.8524C89.9022 67.6677 89.6544 67.4539 89.3142 67.211C88.9837 66.9583 88.4492 66.8319 87.7106 66.8319C86.6901 66.8319 85.966 67.0652 85.5383 67.5317C85.1107 67.9885 84.8969 68.5036 84.8969 69.077C84.8969 69.7573 85.2128 70.2919 85.8445 70.6806C86.4762 71.0597 87.4724 71.4922 88.8331 71.9781C89.9702 72.3766 90.947 72.8091 91.7634 73.2756C92.5798 73.7421 93.2018 74.3399 93.6294 75.0688C94.0668 75.7977 94.2855 76.7599 94.2855 77.9553C94.2855 79.4424 93.9405 80.6767 93.2504 81.6583C92.5701 82.6399 91.637 83.3737 90.4513 83.8597C89.2753 84.3359 87.9389 84.574 86.4422 84.574Z" fill="white"/>
<g clip-path="url(#clip0_2789_973)">
<path d="M36.5367 73.7677C36.4893 73.356 36.521 72.9369 36.5113 72.5188C36.5074 72.355 36.5504 72.1931 36.5338 72.0288C36.5646 71.9564 36.544 71.8782 36.5592 71.8058C36.5719 71.7452 36.568 71.6846 36.5807 71.6264C36.5929 71.5701 36.5905 71.5115 36.6042 71.4586C36.6164 71.4127 36.6096 71.3638 36.6257 71.3242C36.6428 71.2816 36.6325 71.2371 36.6472 71.2C36.6648 71.154 36.6526 71.1036 36.6702 71.0655C36.6917 71.02 36.6702 70.9662 36.6961 70.933C36.7289 70.8909 36.6834 70.8347 36.7328 70.8029C36.7303 70.7564 36.7479 70.7119 36.7523 70.6679C36.7607 70.5833 36.7939 70.5056 36.8056 70.4225C36.8154 70.352 36.8536 70.2855 36.8643 70.2151C36.878 70.1286 36.9137 70.0498 36.9338 69.9657C36.9675 69.8259 37.0159 69.6899 37.0643 69.5545C37.1044 69.4415 37.1465 69.3295 37.1885 69.2176C37.235 69.0929 37.2844 68.9692 37.3372 68.8469C37.4394 68.6117 37.546 68.3784 37.6658 68.1515C37.7093 68.0694 37.7602 67.9912 37.8071 67.9105C37.8418 67.8508 37.8765 67.7916 37.9088 67.731C37.992 67.5745 38.0951 67.4308 38.192 67.2831C38.2878 67.1374 38.388 66.9941 38.4898 66.8523C38.5435 66.7775 38.6032 66.7066 38.6619 66.6352C38.7416 66.5383 38.8286 66.4474 38.903 66.3462C38.9597 66.2694 39.0335 66.2097 39.0917 66.1364C39.2448 65.9422 39.433 65.7833 39.6032 65.6063C39.6526 65.5545 39.7113 65.5119 39.7656 65.4645C39.8198 65.4171 39.8614 65.3569 39.9279 65.3217C39.9592 65.3056 39.9792 65.2684 40.0076 65.2454C40.1176 65.1554 40.2247 65.062 40.3382 64.9755C40.414 64.9173 40.4888 64.8567 40.5651 64.798C40.6624 64.7232 40.7597 64.6488 40.8619 64.5794C40.966 64.5085 41.0673 64.4342 41.1739 64.3672C41.2878 64.2953 41.4042 64.2268 41.5181 64.155C41.8321 63.9564 42.17 63.8029 42.503 63.6405C42.6863 63.551 42.8751 63.4694 43.0707 63.4053C43.1744 63.3716 43.2775 63.332 43.3768 63.2884C43.5093 63.2307 43.6467 63.1867 43.7827 63.1442C43.9499 63.0919 44.1186 63.0415 44.2912 63.0039C44.4086 62.9784 44.5225 62.9344 44.6423 62.9163C44.6785 62.8708 44.7367 62.9105 44.7827 62.8777C44.8189 62.8523 44.8805 62.8669 44.9255 62.8503C45.014 62.818 45.1132 62.8312 45.1978 62.7853C45.2599 62.7975 45.3176 62.7721 45.3768 62.7623C45.4487 62.7501 45.5235 62.751 45.592 62.7207C45.5983 62.7178 45.6062 62.7197 45.6135 62.7193C45.703 62.7119 45.7925 62.7056 45.8815 62.6968C45.9269 62.6924 45.9714 62.6796 46.0164 62.6757C46.0604 62.6718 46.1093 62.6865 46.1485 62.6723C46.2306 62.6425 46.3147 62.666 46.3949 62.6508C46.547 62.6219 46.702 62.6503 46.8511 62.6259C47.0306 62.5965 47.2096 62.5999 47.3856 62.6141C47.546 62.6268 47.7064 62.6127 47.8644 62.6342C47.9617 62.6474 48.058 62.6469 48.1548 62.6537C48.2037 62.6572 48.2492 62.6806 48.301 62.6757C48.3504 62.6713 48.4018 62.666 48.4472 62.6968C48.4497 62.6987 48.4546 62.6968 48.458 62.6972C48.5622 62.7046 48.6663 62.7109 48.7705 62.7202C48.8047 62.7232 48.838 62.7349 48.8722 62.7417C48.903 62.7476 48.9387 62.7285 48.9641 62.7623C48.9685 62.7677 48.9856 62.7662 48.9959 62.7638C49.0624 62.7476 49.1221 62.7833 49.1861 62.7892C49.2468 62.7946 49.3089 62.818 49.368 62.8259C49.4624 62.8386 49.5563 62.8581 49.6472 62.8792C49.7578 62.9046 49.8697 62.9285 49.9803 62.9554C50.1348 62.9931 50.2888 63.0371 50.4414 63.0796C50.635 63.1339 50.8292 63.1921 51.0179 63.265C51.19 63.3315 51.3622 63.398 51.5333 63.4664C51.6859 63.5276 51.835 63.5946 51.9866 63.6567C52.2052 63.7466 52.4145 63.8572 52.6228 63.9672C52.8297 64.0762 53.037 64.1877 53.2306 64.3222C53.3387 64.3975 53.4536 64.4635 53.5617 64.5388C53.6565 64.6048 53.7504 64.6718 53.8443 64.7398C53.9358 64.8058 54.0179 64.8836 54.1138 64.9452C54.1768 64.9858 54.2257 65.0474 54.2869 65.0914C54.3563 65.1413 54.4081 65.2122 54.4869 65.2498C54.4962 65.2542 54.5025 65.2655 54.5108 65.2728C54.6463 65.4009 54.7822 65.5286 54.9167 65.6572C54.9861 65.7237 55.0541 65.7916 55.1206 65.8611C55.2521 65.9985 55.3896 66.131 55.5103 66.2772C55.5984 66.3838 55.6947 66.4836 55.7744 66.5985C55.8331 66.6821 55.9045 66.7589 55.9671 66.8415C56.0331 66.9286 56.0986 67.0151 56.1597 67.1056C56.257 67.2493 56.3529 67.3946 56.4448 67.5418C56.5084 67.644 56.57 67.7476 56.6287 67.8533C56.6957 67.9736 56.7636 68.0934 56.8306 68.2132C56.9309 68.3926 57.0096 68.5828 57.0952 68.7692C57.169 68.9305 57.2302 69.0978 57.2957 69.2626C57.3715 69.4538 57.436 69.6479 57.503 69.842C57.5343 69.933 57.5568 70.0269 57.5817 70.1203C57.6057 70.2102 57.6287 70.3007 57.6561 70.3892C57.681 70.4694 57.6913 70.5516 57.7103 70.6322C57.724 70.6895 57.7343 70.7472 57.7539 70.8034C57.77 70.8494 57.7426 70.9046 57.7798 70.9481C57.7759 71.0518 57.8125 71.1501 57.8292 71.2503C57.8468 71.3555 57.8541 71.464 57.8879 71.5682C57.9094 71.6347 57.9084 71.709 57.9118 71.7799C57.9143 71.8337 57.9446 71.8807 57.9368 71.9374C57.9299 71.9858 57.926 72.0381 57.9568 72.0831C57.9588 72.0855 57.9573 72.0904 57.9568 72.0939C57.9407 72.2474 57.9813 72.3975 57.9798 72.5506C57.9773 72.8239 57.9764 73.0978 57.9803 73.3711C57.9822 73.5276 57.9402 73.6816 57.9568 73.8386C57.9221 73.9183 57.947 74.0039 57.9314 74.0836C57.9196 74.1437 57.9162 74.2034 57.9113 74.2635C57.9064 74.3232 57.8996 74.3853 57.8864 74.442C57.8536 74.5848 57.8458 74.7315 57.8052 74.8728C57.7896 74.9276 57.7832 74.9897 57.77 75.0474C57.7573 75.1051 57.7529 75.1648 57.7338 75.2205C57.6835 75.3706 57.6644 75.5296 57.6086 75.6787C57.5861 75.7393 57.5715 75.8054 57.5597 75.8684C57.5338 76.0088 57.4756 76.1374 57.4331 76.2714C57.3881 76.4112 57.3348 76.5486 57.2898 76.6885C57.2703 76.7501 57.238 76.8073 57.2135 76.8675C57.1602 77.0005 57.1064 77.1335 57.0429 77.2626C56.9602 77.4313 56.8908 77.6078 56.7969 77.7702C56.6707 77.9878 56.5617 78.2156 56.4174 78.4235C56.3284 78.5516 56.2522 78.6885 56.1602 78.8152C56.0923 78.9086 56.0287 79.0049 55.9607 79.0983C55.8918 79.1922 55.813 79.2782 55.748 79.3755C55.7147 79.4254 55.6673 79.466 55.6301 79.5149C55.5641 79.601 55.481 79.6738 55.4135 79.7589C55.3108 79.8885 55.1856 79.9961 55.0776 80.1193C55.035 80.1677 54.9998 80.2249 54.9495 80.2641C54.7837 80.3927 54.6541 80.5599 54.4952 80.6939C54.3832 80.7883 54.2854 80.8963 54.1764 80.9932C54.1064 81.0553 54.0825 81.1394 54.0561 81.221C54.0331 81.2919 54.0311 81.3682 54.0311 81.444C54.0326 83.0557 54.0321 84.667 54.0321 86.2787C54.0321 86.4157 53.9764 86.5291 53.8874 86.6294C53.8277 86.6964 53.7602 86.7521 53.6746 86.7853C53.6189 86.8069 53.5627 86.8206 53.504 86.8284C53.4893 86.8303 53.4741 86.8274 53.4595 86.8289C53.3133 86.8435 53.1837 86.7946 53.0565 86.7306C52.9832 86.6934 52.9089 86.6582 52.8321 86.6303C52.7548 86.6025 52.6834 86.5624 52.6042 86.5369C52.5074 86.5061 52.4189 86.4499 52.3255 86.4074C52.1763 86.3394 52.0257 86.2743 51.8761 86.2073C51.7763 86.1629 51.6873 86.0939 51.5778 86.0714C51.5074 86.0064 51.4106 85.9932 51.3314 85.9433C51.2507 85.8924 51.1617 85.8548 51.0751 85.8132C50.992 85.7731 50.9074 85.7364 50.8248 85.6949C50.7421 85.6533 50.6595 85.6108 50.5798 85.5643C50.4492 85.4875 50.3084 85.4308 50.1822 85.3452C50.101 85.29 50.0008 85.2621 49.9186 85.2078C49.7915 85.1232 49.6531 85.0602 49.525 84.9775C49.4037 84.8993 49.2761 84.8293 49.1524 84.754C49.0071 84.6655 48.8648 84.5731 48.7225 84.4802C48.5768 84.3849 48.4321 84.2885 48.2888 84.1897C48.1905 84.1218 48.0971 84.047 47.9988 83.9795C47.8795 83.8973 47.7758 83.7956 47.6526 83.7188C47.6018 83.687 47.5675 83.6337 47.5137 83.6C47.4502 83.5609 47.3969 83.5047 47.3416 83.4533C47.2741 83.3907 47.0952 83.2773 46.9964 83.2425C46.9573 83.2289 46.9162 83.2205 46.8751 83.2147C46.8008 83.2049 46.7265 83.1966 46.6516 83.1927C46.5778 83.1888 46.5035 83.1946 46.4301 83.1912C46.3626 83.1878 46.2961 83.1741 46.2287 83.1707C46.1587 83.1668 46.0849 83.1829 46.0189 83.1663C45.947 83.1482 45.8766 83.1482 45.8052 83.1482C45.7621 83.1482 45.7279 83.1159 45.681 83.1232C45.6443 83.1291 45.6066 83.1252 45.567 83.1066C45.5309 83.0895 45.478 83.111 45.436 83.1012C45.3392 83.0792 45.2394 83.0773 45.1441 83.0558C45.0242 83.0289 44.9005 83.021 44.7842 82.9873C44.678 82.957 44.568 82.9447 44.4629 82.9091C44.3964 82.8866 44.3211 82.8773 44.2502 82.8602C44.1529 82.8367 44.058 82.8049 43.9617 82.7804C43.7851 82.7355 43.6159 82.6675 43.4423 82.6147C43.3113 82.5746 43.1827 82.5286 43.0575 82.4734C42.9949 82.446 42.9299 82.423 42.8668 82.399C42.7709 82.3628 42.6775 82.3198 42.5827 82.2812C42.4912 82.244 42.4047 82.1936 42.3142 82.1526C42.2145 82.1076 42.1093 82.0743 42.0159 82.0161C41.9049 81.9467 41.7846 81.8944 41.6731 81.8254C41.5822 81.7697 41.4888 81.7169 41.3959 81.6645C41.2384 81.5756 41.0893 81.4753 40.9401 81.3751C40.7675 81.2597 40.6003 81.1369 40.4369 81.0088C40.325 80.9208 40.2135 80.8328 40.1044 80.7413C39.9568 80.6181 39.8149 80.4895 39.6741 80.3589C39.611 80.3002 39.5382 80.2494 39.4829 80.1829C39.3612 80.0357 39.2154 79.912 39.0922 79.7677C38.9954 79.6543 38.899 79.5394 38.8037 79.424C38.7289 79.333 38.6614 79.2352 38.5812 79.1482C38.5289 79.0914 38.4858 79.0264 38.4423 78.9623C38.325 78.7892 38.2086 78.6161 38.0946 78.4411C38.0096 78.311 37.9269 78.1795 37.8506 78.0435C37.7215 77.8132 37.592 77.5829 37.4834 77.3418C37.3993 77.155 37.3142 76.9687 37.2404 76.777C37.2027 76.6792 37.1504 76.5838 37.1171 76.4846C37.0438 76.2636 36.968 76.0435 36.8961 75.822C36.8555 75.6973 36.8335 75.5672 36.8003 75.4401C36.7807 75.3657 36.7748 75.288 36.7504 75.2166C36.7259 75.1442 36.7254 75.068 36.6937 74.9961C36.6702 74.9433 36.6761 74.8777 36.6673 74.8186C36.6619 74.7843 36.6506 74.7511 36.6462 74.7168C36.6413 74.6821 36.6379 74.6494 36.6272 74.6142C36.6066 74.5472 36.6096 74.4733 36.6008 74.4029C36.5954 74.3613 36.5866 74.3203 36.5787 74.2792C36.5709 74.2381 36.5983 74.1907 36.5577 74.1545C36.5538 74.1511 36.5558 74.1403 36.5567 74.133C36.5739 74.0102 36.5181 73.8944 36.5367 73.7677ZM54.7602 72.4362C54.7627 72.4362 54.7651 72.4357 54.7676 72.4357C54.7592 72.3056 54.7504 72.176 54.7421 72.0459C54.7416 72.0386 54.7451 72.0274 54.7416 72.0244C54.7025 71.9921 54.7265 71.9486 54.7196 71.911C54.7128 71.8733 54.704 71.8362 54.6976 71.798C54.6883 71.7388 54.6908 71.6758 54.6702 71.6205C54.6228 71.4939 54.6081 71.3594 54.568 71.2308C54.5314 71.1129 54.4966 70.9941 54.46 70.8758C54.4111 70.7188 54.3612 70.5628 54.3001 70.4097C54.2316 70.2381 54.1607 70.0679 54.0834 69.9007C54.0028 69.7266 53.9157 69.5555 53.8179 69.3897C53.7969 69.354 53.7808 69.3163 53.7563 69.2821C53.6962 69.1975 53.6394 69.11 53.5896 69.019C53.5138 68.8802 53.4169 68.7564 53.323 68.6308C53.2634 68.5511 53.1905 68.4802 53.1372 68.3965C53.0473 68.2567 52.9294 68.1403 52.8189 68.02C52.6179 67.8014 52.4052 67.5931 52.1803 67.398C52.1749 67.3931 52.1705 67.3863 52.1646 67.3823C52.0614 67.3198 51.9783 67.2303 51.8785 67.1628C51.7998 67.11 51.7299 67.0459 51.6487 66.9965C51.5475 66.9344 51.4536 66.8611 51.3553 66.7946C51.1866 66.6806 51.0091 66.5814 50.8282 66.4875C50.6639 66.4024 50.501 66.3154 50.3299 66.2444C50.1974 66.1897 50.0683 66.1271 49.9323 66.0801C49.8223 66.0425 49.7137 66.0019 49.6052 65.9599C49.5592 65.9418 49.5045 65.9388 49.4565 65.9163C49.4067 65.8929 49.3499 65.8919 49.2976 65.8713C49.2507 65.8528 49.1988 65.8381 49.1485 65.8308C49.0653 65.8185 48.9881 65.7848 48.904 65.776C48.8516 65.7706 48.7939 65.7687 48.748 65.752C48.6619 65.7212 48.5719 65.7124 48.4849 65.6938C48.3719 65.6699 48.2536 65.666 48.1382 65.6469C48.0648 65.6352 47.9895 65.6396 47.9142 65.6259C47.8125 65.6073 47.7069 65.621 47.6018 65.6048C47.4751 65.5858 47.3436 65.5965 47.2145 65.6014C47.0883 65.6063 46.9612 65.5833 46.8345 65.6195C46.7763 65.6361 46.7088 65.6288 46.6472 65.6205C46.5837 65.6122 46.5289 65.6435 46.4678 65.6454C46.3744 65.6488 46.2815 65.6591 46.1886 65.6665C46.1846 65.6669 46.1807 65.6655 46.1773 65.6665C46.0761 65.7075 45.9636 65.6938 45.8604 65.7305C45.8052 65.7501 45.7392 65.7393 45.6829 65.7574C45.6375 65.7721 45.59 65.7657 45.5485 65.7809C45.3729 65.843 45.1895 65.8772 45.011 65.9276C44.8057 65.9853 44.6081 66.063 44.4081 66.1334C44.2731 66.1809 44.1401 66.2366 44.0106 66.2982C43.8404 66.3789 43.6746 66.4694 43.5074 66.5559C43.4003 66.6112 43.2991 66.6782 43.1959 66.7398C43.0164 66.8474 42.8462 66.9721 42.679 67.0982C42.5142 67.2229 42.3543 67.3545 42.1983 67.4899C42.0854 67.5877 41.9905 67.7046 41.8702 67.796C41.8345 67.8229 41.8154 67.8709 41.7822 67.9026C41.6008 68.0748 41.4423 68.2669 41.2878 68.463C41.211 68.5603 41.1411 68.6625 41.0634 68.7594C40.9939 68.8454 40.945 68.9476 40.88 69.0371C40.8145 69.1271 40.7704 69.2303 40.7049 69.3203C40.6687 69.3696 40.6428 69.4273 40.6154 69.4826C40.5088 69.6968 40.3959 69.908 40.3083 70.1315C40.2536 70.2714 40.1983 70.4112 40.1475 70.553C40.1196 70.6308 40.101 70.7115 40.0722 70.7877C39.9895 71.0044 39.9489 71.2318 39.8868 71.4533C39.8541 71.5696 39.8413 71.6934 39.8213 71.8137C39.8032 71.9212 39.791 72.0303 39.7744 72.1384C39.7646 72.2014 39.7724 72.2645 39.7548 72.3296C39.7377 72.3917 39.7538 72.4616 39.7504 72.5281C39.7465 72.5956 39.7284 72.6626 39.7303 72.7296C39.7362 72.9115 39.7103 73.0934 39.7489 73.2753C39.768 73.3657 39.7401 73.4611 39.7709 73.5545C39.7929 73.622 39.7597 73.6963 39.788 73.7692C39.8135 73.8342 39.7944 73.9085 39.814 73.9799C39.8418 74.0812 39.8399 74.1902 39.8648 74.2924C39.8751 74.3345 39.8658 74.3873 39.8878 74.4137C39.9181 74.4494 39.8912 74.4904 39.9211 74.5247C39.946 74.554 39.9206 74.6054 39.9479 74.6459C39.9675 74.6753 39.9631 74.7203 39.9729 74.7569C40.0022 74.8665 40.0506 74.9706 40.0648 75.0846C40.146 75.2254 40.1695 75.3878 40.2355 75.5354C40.2883 75.6533 40.3323 75.776 40.3871 75.8939C40.4389 76.0054 40.4858 76.1193 40.5484 76.2264C40.6159 76.3418 40.6722 76.464 40.7406 76.579C40.813 76.7012 40.8922 76.82 40.9714 76.9379C41.0301 77.0254 41.0951 77.1081 41.1548 77.1951C41.2052 77.2684 41.2663 77.334 41.3171 77.4059C41.3915 77.5105 41.477 77.6049 41.5572 77.7041C41.6414 77.8088 41.7484 77.8934 41.8316 78.001C41.8726 78.0538 41.9362 78.0885 41.9846 78.1364C42.1269 78.2763 42.2692 78.4151 42.4277 78.5384C42.5396 78.6254 42.6477 78.7183 42.7631 78.8024C42.8624 78.8743 42.9607 78.9477 43.0639 79.0132C43.1543 79.0704 43.2462 79.1252 43.3367 79.1819C43.4746 79.268 43.6179 79.3433 43.7592 79.422C43.9626 79.5359 44.1783 79.6235 44.3905 79.7188C44.4805 79.7594 44.5763 79.7878 44.6692 79.822C44.7656 79.8572 44.8614 79.8944 44.9582 79.9271C45.1113 79.979 45.2702 80.0117 45.4247 80.0592C45.4815 80.0763 45.5455 80.0689 45.6032 80.0846C45.6634 80.1007 45.7255 80.1071 45.7861 80.1232C45.8355 80.1364 45.8903 80.1394 45.9426 80.1472C45.9983 80.1555 46.0551 80.1604 46.1108 80.1677C46.2507 80.1858 46.3925 80.1853 46.5338 80.1936C46.6306 80.1995 46.7304 80.1961 46.8228 80.22C46.8751 80.2337 46.9279 80.2284 46.9783 80.244C47.0311 80.2606 47.0859 80.2719 47.1392 80.2846C47.2282 80.3061 47.3142 80.3433 47.3988 80.379C47.4399 80.3961 47.4761 80.4244 47.5142 80.4484C47.5553 80.4743 47.5988 80.4973 47.6365 80.5276C47.6956 80.5746 47.7578 80.6205 47.8067 80.6773C47.8976 80.7814 47.9778 80.8954 48.0678 81.0005C48.1475 81.0949 48.2306 81.1868 48.3186 81.2733C48.4384 81.3912 48.5494 81.5174 48.6834 81.621C48.7866 81.7007 48.8776 81.7971 48.9734 81.8861C48.9842 81.8963 48.993 81.909 49.0052 81.9169C49.1064 81.9829 49.1925 82.0675 49.2903 82.1374C49.371 82.1951 49.4443 82.2636 49.525 82.3213C49.6556 82.4142 49.791 82.5007 49.923 82.5917C50.1172 82.7252 50.3221 82.8416 50.523 82.9643C50.593 83.0073 50.6766 83.0303 50.7402 83.0797C50.8213 83.1428 50.9172 83.1731 51.0027 83.2249C51.0878 83.2763 51.1783 83.3179 51.2663 83.3643C51.2785 83.3707 51.2888 83.3809 51.3015 83.3858C51.3284 83.3956 51.3494 83.3804 51.3504 83.3516C51.3509 83.3257 51.3504 83.2998 51.3504 83.2738C51.3504 82.2719 51.3499 81.2704 51.3514 80.2685C51.3514 80.1976 51.3323 80.1232 51.3729 80.0557C51.3715 79.935 51.412 79.822 51.4365 79.7056C51.4732 79.532 51.5783 79.3276 51.6732 79.1707C51.7715 79.0078 51.9035 78.8719 52.0277 78.7306C52.0991 78.6494 52.1915 78.5868 52.2668 78.5085C52.4448 78.3237 52.6419 78.1574 52.8018 77.955C52.8712 77.867 52.9529 77.7883 53.0277 77.7046C53.0732 77.6538 53.124 77.6059 53.1597 77.5486C53.2399 77.421 53.3348 77.3032 53.4238 77.1829C53.5402 77.0249 53.638 76.8562 53.7431 76.6924C53.837 76.5457 53.9113 76.3858 53.992 76.2303C54.0189 76.179 54.0389 76.1242 54.0634 76.0714C54.0888 76.0156 54.1211 75.9618 54.1402 75.9036C54.1607 75.8415 54.216 75.7936 54.212 75.7227C54.2996 75.5511 54.3646 75.3711 54.4121 75.1843C54.4204 75.1521 54.4526 75.1227 54.4531 75.0914C54.4541 75.0156 54.5103 74.9545 54.5025 74.8782C54.5695 74.7178 54.5925 74.5452 54.6331 74.378C54.6394 74.3511 54.6502 74.3252 54.6546 74.2983C54.659 74.2699 54.6526 74.2386 54.6605 74.2117C54.681 74.1408 54.7006 74.0699 54.6996 73.9951C54.6996 73.9804 54.6932 73.9584 54.7006 73.9521C54.7372 73.9183 54.7152 73.8758 54.7221 73.8381C54.7284 73.8005 54.7392 73.7633 54.7436 73.7252C54.7504 73.6616 54.7289 73.5946 54.7666 73.5349C54.7588 73.4039 54.7788 73.2748 54.7871 73.1447C54.7944 73.0269 54.792 72.908 54.7876 72.7902C54.7808 72.6738 54.769 72.555 54.7602 72.4362Z" fill="white"/>
</g>
<defs>
<clipPath id="clip0_2789_973">
<rect width="21.4715" height="24.227" fill="white" transform="translate(36.5098 62.6025)"/>
</clipPath>
</defs>
</svg>
