<svg width="73" height="73" viewBox="0 0 73 73" fill="none" xmlns="http://www.w3.org/2000/svg">
<circle cx="36.2041" cy="36.2041" r="36.2041" fill="#FBF4E8"/>
<path d="M35.918 25.6558C38.0926 25.6558 39.8555 23.8929 39.8555 21.7183C39.8555 19.5436 38.0926 17.7808 35.918 17.7808C33.7433 17.7808 31.9805 19.5436 31.9805 21.7183C31.9805 23.8929 33.7433 25.6558 35.918 25.6558Z" fill="#D4A95F"/>
<path d="M23.7209 39.1653C23.2083 38.6526 22.3777 38.6526 21.865 39.1653L17.9275 43.1028C17.4148 43.6155 17.4148 44.446 17.9275 44.9587L21.865 48.8962C22.1213 49.1526 22.4572 49.2808 22.793 49.2808C23.1288 49.2808 23.4646 49.1526 23.7209 48.8962C24.2336 48.3835 24.2336 47.553 23.7209 47.0403L20.7114 44.0308L23.7209 41.0212C24.2336 40.5085 24.2336 39.678 23.7209 39.1653Z" fill="#D4A95F"/>
<path d="M53.9084 43.1028L49.9709 39.1653C49.4583 38.6526 48.6277 38.6526 48.115 39.1653C47.6023 39.678 47.6023 40.5085 48.115 41.0212L51.1245 44.0308L48.115 47.0403C47.6023 47.553 47.6023 48.3835 48.115 48.8962C48.3713 49.1526 48.7072 49.2808 49.043 49.2808C49.3788 49.2808 49.7146 49.1526 49.9709 48.8962L53.9084 44.9587C54.4211 44.446 54.4211 43.6155 53.9084 43.1028Z" fill="#D4A95F"/>
<path d="M35.918 33.5308C30.1284 33.5308 25.418 38.2411 25.418 44.0308C25.418 49.8204 30.1284 54.5308 35.918 54.5308C41.7076 54.5308 46.418 49.8204 46.418 44.0308C46.418 38.2411 41.7076 33.5308 35.918 33.5308ZM40.9757 39.901L36.382 44.4948C36.2589 44.6178 36.0923 44.687 35.918 44.687H31.9805C31.6177 44.687 31.3242 44.3935 31.3242 44.0308C31.3242 43.668 31.6177 43.3745 31.9805 43.3745H35.6462L40.0477 38.973C40.3041 38.7167 40.7194 38.7167 40.9757 38.973C41.2321 39.2294 41.2321 39.6447 40.9757 39.901Z" fill="#D4A95F"/>
<path d="M42.4805 34.2158V29.5933C42.4805 27.422 40.7142 25.6558 38.543 25.6558H35.918H33.293C31.1217 25.6558 29.3555 27.422 29.3555 29.5933V34.2158C31.2339 32.9556 33.4911 32.2183 35.918 32.2183C38.3449 32.2183 40.602 32.9556 42.4805 34.2158Z" fill="#D4A95F"/>
</svg>
