<svg width="73" height="73" viewBox="0 0 73 73" fill="none" xmlns="http://www.w3.org/2000/svg">
<circle cx="36.2041" cy="36.2041" r="36.2041" fill="#FBF4E8"/>
<path d="M49.3911 32.5061H44.3397C43.5427 32.5061 42.8965 33.1523 42.8965 33.9494V50.5468C42.8965 51.3439 43.5427 51.9901 44.3397 51.9901H49.3911C50.1882 51.9901 50.8344 51.3439 50.8344 50.5468V33.9494C50.8344 33.1523 50.1882 32.5061 49.3911 32.5061Z" fill="#D4A95F"/>
<path d="M37.8462 38.2788H32.7948C31.9977 38.2788 31.3516 38.925 31.3516 39.7221V50.5465C31.3516 51.3436 31.9977 51.9898 32.7948 51.9898H37.8462C38.6433 51.9898 39.2895 51.3436 39.2895 50.5465V39.7221C39.2895 38.925 38.6433 38.2788 37.8462 38.2788Z" fill="#D4A95F"/>
<path d="M26.2993 41.1655H21.2479C20.4509 41.1655 19.8047 41.8117 19.8047 42.6088V50.5467C19.8047 51.3438 20.4509 51.99 21.2479 51.99H26.2993C27.0964 51.99 27.7426 51.3438 27.7426 50.5467V42.6088C27.7426 41.8117 27.0964 41.1655 26.2993 41.1655Z" fill="#D4A95F"/>
<path d="M22.3302 39.3615C21.9885 39.3574 21.6593 39.2321 21.4012 39.008C21.1432 38.7839 20.973 38.4756 20.9211 38.1378C20.8691 37.8 20.9387 37.4547 21.1175 37.1634C21.2962 36.8722 21.5725 36.6538 21.8972 36.5471C26.3237 35.1465 30.5791 33.2536 34.5835 30.904C39.2253 28.1753 43.4944 24.8571 47.2841 21.0321C47.4178 20.8957 47.5772 20.7872 47.7531 20.7129C47.929 20.6386 48.1179 20.5999 48.3088 20.5991C48.6875 20.6007 49.0503 20.751 49.3191 21.0177C49.5879 21.2881 49.7388 21.6539 49.7388 22.0352C49.7388 22.4165 49.5879 22.7822 49.3191 23.0527C45.3613 27.06 40.8977 30.5339 36.0411 33.3864C31.8551 35.8733 27.4007 37.8778 22.7632 39.3615C22.6197 39.3832 22.4737 39.3832 22.3302 39.3615Z" fill="#D4A95F"/>
<path d="M48.31 29.2587C47.9273 29.2587 47.5602 29.1066 47.2895 28.8359C47.0188 28.5653 46.8668 28.1982 46.8668 27.8154V23.4856H42.537C42.1542 23.4856 41.7871 23.3336 41.5165 23.0629C41.2458 22.7923 41.0938 22.4252 41.0938 22.0424C41.0938 21.6596 41.2458 21.2925 41.5165 21.0218C41.7871 20.7512 42.1542 20.5991 42.537 20.5991H48.31C48.6928 20.5991 49.0599 20.7512 49.3306 21.0218C49.6012 21.2925 49.7533 21.6596 49.7533 22.0424V27.8154C49.7533 28.1982 49.6012 28.5653 49.3306 28.8359C49.0599 29.1066 48.6928 29.2587 48.31 29.2587Z" fill="#D4A95F"/>
</svg>
