<svg width="73" height="73" viewBox="0 0 73 73" fill="none" xmlns="http://www.w3.org/2000/svg">
<circle cx="36.2041" cy="36.2041" r="36.2041" fill="#FBF4E8"/>
<path d="M29.7705 46.6245C29.4468 46.6234 29.1355 46.4998 28.8993 46.2786C27.7292 45.1677 26.7975 43.8304 26.1608 42.348C25.5241 40.8656 25.1958 39.2691 25.1958 37.6557C25.1958 36.0424 25.5241 34.4459 26.1608 32.9635C26.7975 31.4811 27.7292 30.1438 28.8993 29.0329C29.1514 28.8285 29.4717 28.7274 29.7955 28.75C30.1193 28.7726 30.4225 28.9173 30.6437 29.1548C30.865 29.3923 30.9878 29.705 30.9875 30.0296C30.9871 30.3542 30.8635 30.6665 30.6418 30.9036C29.731 31.7766 29.0062 32.8248 28.5111 33.9852C28.016 35.1456 27.7608 36.3941 27.7608 37.6557C27.7608 38.9174 28.016 40.1659 28.5111 41.3263C29.0062 42.4867 29.731 43.5349 30.6418 44.4079C30.8291 44.5833 30.9594 44.8109 31.0159 45.0613C31.0724 45.3116 31.0524 45.5731 30.9585 45.812C30.8647 46.0508 30.7012 46.2559 30.4894 46.4008C30.2776 46.5457 30.0271 46.6236 29.7705 46.6245ZM24.6455 50.0582C24.8841 49.8182 25.0181 49.4935 25.0181 49.155C25.0181 48.8165 24.8841 48.4917 24.6455 48.2517C23.2121 46.8841 22.0711 45.24 21.2914 43.4187C20.5118 41.5974 20.1099 39.6369 20.1099 37.6557C20.1099 35.6746 20.5118 33.7141 21.2914 31.8928C22.0711 30.0715 23.2121 28.4274 24.6455 27.0598C24.8936 26.8202 25.0363 26.492 25.0423 26.1471C25.0483 25.8023 24.9171 25.4693 24.6775 25.2212C24.438 24.9732 24.1097 24.8304 23.7649 24.8244C23.4201 24.8184 23.087 24.9496 22.8389 25.1892C21.1512 26.7974 19.8075 28.7316 18.8895 30.8745C17.9714 33.0174 17.498 35.3245 17.498 37.6557C17.498 39.987 17.9714 42.2941 18.8895 44.437C19.8075 46.5799 21.1512 48.5141 22.8389 50.1223C22.9622 50.2383 23.1073 50.3287 23.2657 50.3883C23.4241 50.4479 23.5928 50.4756 23.762 50.4696C23.9312 50.4636 24.0975 50.4242 24.2513 50.3536C24.4052 50.283 24.5435 50.1826 24.6583 50.0582H24.6455ZM41.9808 46.2786C43.1508 45.1677 44.0826 43.8304 44.7193 42.348C45.356 40.8656 45.6843 39.2691 45.6843 37.6557C45.6843 36.0424 45.356 34.4459 44.7193 32.9635C44.0826 31.4811 43.1508 30.1438 41.9808 29.0329C41.858 28.9177 41.7137 28.8277 41.5561 28.7683C41.3985 28.7088 41.2307 28.6809 41.0624 28.6863C40.894 28.6916 40.7284 28.7301 40.5749 28.7995C40.4214 28.8688 40.2831 28.9678 40.1678 29.0906C40.0526 29.2134 39.9627 29.3577 39.9032 29.5153C39.8437 29.6729 39.8158 29.8407 39.8212 30.009C39.8266 30.1774 39.865 30.343 39.9344 30.4965C40.0038 30.65 40.1027 30.7883 40.2255 30.9036C41.1412 31.7737 41.8703 32.821 42.3685 33.9818C42.8668 35.1426 43.1237 36.3926 43.1237 37.6557C43.1237 38.9189 42.8668 40.1689 42.3685 41.3297C41.8703 42.4905 41.1412 43.5378 40.2255 44.4079C39.9782 44.6394 39.8326 44.9594 39.8206 45.298C39.8086 45.6365 39.9311 45.9661 40.1614 46.2145C40.2824 46.3449 40.4291 46.4487 40.5924 46.5193C40.7556 46.5899 40.9317 46.6257 41.1096 46.6245C41.4333 46.6234 41.7445 46.4998 41.9808 46.2786ZM48.0283 50.1223C49.721 48.517 51.069 46.5837 51.9903 44.4404C52.9115 42.2971 53.3866 39.9886 53.3866 37.6557C53.3866 35.3229 52.9115 33.0144 51.9903 30.8711C51.069 28.7278 49.721 26.7945 48.0283 25.1892C47.7762 24.9847 47.4559 24.8836 47.132 24.9062C46.8082 24.9289 46.5051 25.0735 46.2838 25.3111C46.0626 25.5486 45.9397 25.8612 45.9401 26.1858C45.9405 26.5104 46.064 26.8228 46.2858 27.0598C47.7192 28.4274 48.8603 30.0715 49.6399 31.8928C50.4195 33.7141 50.8214 35.6746 50.8214 37.6557C50.8214 39.6369 50.4195 41.5974 49.6399 43.4187C48.8603 45.24 47.7192 46.8841 46.2858 48.2517C46.0385 48.4832 45.8929 48.8032 45.8809 49.1417C45.8689 49.4803 45.9914 49.8098 46.2218 50.0582C46.3412 50.1871 46.4859 50.2899 46.6468 50.3605C46.8077 50.431 46.9814 50.4677 47.1571 50.4682C47.4808 50.4671 47.792 50.3435 48.0283 50.1223ZM38.0089 37.6557C38.0089 37.1489 37.8587 36.6535 37.5771 36.2321C37.2955 35.8107 36.8953 35.4823 36.4271 35.2883C35.9588 35.0944 35.4436 35.0436 34.9465 35.1425C34.4494 35.2414 33.9929 35.4854 33.6345 35.8438C33.2761 36.2022 33.0321 36.6588 32.9332 37.1558C32.8343 37.6529 32.885 38.1681 33.079 38.6364C33.2729 39.1046 33.6014 39.5048 34.0228 39.7864C34.4442 40.068 34.9396 40.2182 35.4464 40.2182C36.1261 40.2182 36.7778 39.9483 37.2584 39.4677C37.739 38.9871 38.0089 38.3354 38.0089 37.6557Z" fill="#D4A95F"/>
</svg>
