<svg width="40" height="34" viewBox="0 0 40 34" fill="none" xmlns="http://www.w3.org/2000/svg">
<mask id="path-1-outside-1_2686_117" maskUnits="userSpaceOnUse" x="-0.71875" y="-0.288086" width="41" height="35" fill="black">
<rect fill="white" x="-0.71875" y="-0.288086" width="41" height="35"/>
<path d="M12.189 33.2612C8.21924 33.2612 5.2749 31.9429 3.35596 29.3062C1.45166 26.6694 0.499512 22.7217 0.499512 17.4629C0.499512 11.999 1.53223 7.83887 3.59766 4.98242C5.66309 2.11133 8.73193 0.675781 12.8042 0.675781C16.686 0.675781 19.5571 2.01611 21.4175 4.69678C23.2925 7.37744 24.23 11.3911 24.23 16.7378C24.23 19.8579 23.8345 22.6704 23.0435 25.1753C22.2524 27.6655 20.9707 29.6357 19.1982 31.0859C17.4404 32.5361 15.104 33.2612 12.189 33.2612ZM12.4087 27.7241C14.064 27.7241 15.2651 26.8159 16.0122 24.9995C16.7739 23.1831 17.1548 20.5024 17.1548 16.9575C17.1548 13.4126 16.7812 10.7393 16.0342 8.9375C15.3018 7.12109 14.1226 6.21289 12.4966 6.21289C10.7681 6.21289 9.51562 7.15039 8.73926 9.02539C7.96289 10.8857 7.57471 13.6396 7.57471 17.2871C7.57471 20.7295 7.95557 23.3296 8.71729 25.0874C9.49365 26.8452 10.7241 27.7241 12.4087 27.7241ZM39.4263 31.5474C39.4263 31.9868 39.3311 32.2944 39.1406 32.4702C38.9648 32.6313 38.6572 32.7119 38.2178 32.7119H33.6914C33.252 32.7119 32.937 32.6313 32.7466 32.4702C32.5708 32.2944 32.4829 31.9868 32.4829 31.5474V8.54199L29.4287 10.0801C29.1357 10.2412 28.8721 10.3071 28.6377 10.2778C28.1836 10.2046 27.6855 10.0874 27.1436 9.92627C26.6162 9.76514 26.0303 9.54541 25.3857 9.26709C25.166 9.13525 25.0342 9.01807 24.9902 8.91553C24.9316 8.81299 24.9316 8.64453 24.9902 8.41016C25.3271 7.12109 25.73 6.06641 26.1987 5.24609C26.3452 5.04102 26.5576 4.87256 26.8359 4.74072L35.2295 0.5H39.4263V31.5474Z"/>
</mask>
<path d="M3.35596 29.3062L2.95061 29.5989L2.95169 29.6004L3.35596 29.3062ZM3.59766 4.98242L4.00283 5.2754L4.00354 5.27441L3.59766 4.98242ZM21.4175 4.69678L21.0067 4.98185L21.0078 4.98336L21.4175 4.69678ZM23.0435 25.1753L23.52 25.3267L23.5202 25.3259L23.0435 25.1753ZM19.1982 31.0859L18.8816 30.699L18.8801 30.7003L19.1982 31.0859ZM16.0122 24.9995L15.5511 24.8061L15.5498 24.8093L16.0122 24.9995ZM16.0342 8.9375L15.5704 9.12449L15.5723 9.12901L16.0342 8.9375ZM8.73926 9.02539L9.20069 9.21796L9.20122 9.21667L8.73926 9.02539ZM8.71729 25.0874L8.2585 25.2862L8.25991 25.2894L8.71729 25.0874ZM12.189 33.2612V32.7612C8.34005 32.7612 5.56422 31.4907 3.76023 29.0119L3.35596 29.3062L2.95169 29.6004C4.98559 32.395 8.09842 33.7612 12.189 33.7612V33.2612ZM3.35596 29.3062L3.7613 29.0134C1.94605 26.5 0.999512 22.6761 0.999512 17.4629H0.499512H-0.000488281C-0.000488281 22.7673 0.957274 26.8389 2.95062 29.5989L3.35596 29.3062ZM0.499512 17.4629H0.999512C0.999512 12.0502 2.02456 8.0113 4.00283 5.27539L3.59766 4.98242L3.19248 4.68945C1.03989 7.66643 -0.000488281 11.9479 -0.000488281 17.4629H0.499512ZM3.59766 4.98242L4.00354 5.27441C5.95981 2.55506 8.86487 1.17578 12.8042 1.17578V0.675781V0.175781C8.599 0.175781 5.36636 1.6676 3.19177 4.69043L3.59766 4.98242ZM12.8042 0.675781V1.17578C16.5577 1.17578 19.2584 2.46259 21.0067 4.98185L21.4175 4.69678L21.8283 4.41171C19.8559 1.56964 16.8144 0.175781 12.8042 0.175781V0.675781ZM21.4175 4.69678L21.0078 4.98336C22.7973 7.54189 23.73 11.4344 23.73 16.7378H24.23H24.73C24.73 11.3478 23.7876 7.21299 21.8272 4.4102L21.4175 4.69678ZM24.23 16.7378H23.73C23.73 19.8161 23.3397 22.5767 22.5667 25.0247L23.0435 25.1753L23.5202 25.3259C24.3292 22.7641 24.73 19.8997 24.73 16.7378H24.23ZM23.0435 25.1753L22.5669 25.0239C21.801 27.4352 20.5689 29.3185 18.8816 30.699L19.1982 31.0859L19.5149 31.4729C21.3725 29.953 22.7039 27.8959 23.52 25.3267L23.0435 25.1753ZM19.1982 31.0859L18.8801 30.7003C17.2344 32.0579 15.0209 32.7612 12.189 32.7612V33.2612V33.7612C15.1871 33.7612 17.6465 33.0143 19.5164 31.4716L19.1982 31.0859ZM12.4087 27.7241V28.2241C13.3338 28.2241 14.1565 27.9681 14.8526 27.4418C15.543 26.9198 16.0772 26.156 16.4746 25.1897L16.0122 24.9995L15.5498 24.8093C15.2002 25.6594 14.7602 26.258 14.2495 26.6441C13.7444 27.026 13.1389 27.2241 12.4087 27.2241V27.7241ZM16.0122 24.9995L16.4733 25.1929C17.2736 23.2844 17.6548 20.5243 17.6548 16.9575H17.1548H16.6548C16.6548 20.4806 16.2742 23.0818 15.5511 24.8061L16.0122 24.9995ZM17.1548 16.9575H17.6548C17.6548 13.3918 17.2811 10.6394 16.496 8.74599L16.0342 8.9375L15.5723 9.12901C16.2814 10.8391 16.6548 13.4334 16.6548 16.9575H17.1548ZM16.0342 8.9375L16.4979 8.75051C16.1086 7.78509 15.5846 7.02092 14.9056 6.49791C14.2203 5.97014 13.4091 5.71289 12.4966 5.71289V6.21289V6.71289C13.21 6.71289 13.8014 6.90974 14.2954 7.29017C14.7955 7.67537 15.2273 8.2735 15.5705 9.12449L16.0342 8.9375ZM12.4966 6.21289V5.71289C11.5362 5.71289 10.683 5.97544 9.96124 6.51574C9.24475 7.05205 8.68985 7.83775 8.27729 8.83411L8.73926 9.02539L9.20122 9.21667C9.56504 8.33803 10.0245 7.71748 10.5605 7.3163C11.0911 6.91909 11.7284 6.71289 12.4966 6.71289V6.21289ZM8.73926 9.02539L8.27783 8.83282C7.46309 10.7851 7.07471 13.6183 7.07471 17.2871H7.57471H8.07471C8.07471 13.6609 8.4627 10.9864 9.20069 9.21796L8.73926 9.02539ZM7.57471 17.2871H7.07471C7.07471 20.752 7.4559 23.434 8.25851 25.2862L8.71729 25.0874L9.17606 24.8886C8.45523 23.2251 8.07471 20.707 8.07471 17.2871H7.57471ZM8.71729 25.0874L8.25991 25.2894C8.67465 26.2284 9.22635 26.9679 9.93179 27.4718C10.6414 27.9787 11.4746 28.2241 12.4087 28.2241V27.7241V27.2241C11.6582 27.2241 11.0339 27.0301 10.513 26.6581C9.98801 26.2831 9.53629 25.7042 9.17466 24.8854L8.71729 25.0874ZM39.1406 32.4702L39.4785 32.8388L39.4798 32.8376L39.1406 32.4702ZM32.7466 32.4702L32.393 32.8238L32.4077 32.8385L32.4236 32.8519L32.7466 32.4702ZM32.4829 8.54199H32.9829V7.73037L32.258 8.09542L32.4829 8.54199ZM29.4287 10.0801L29.2038 9.63351L29.1957 9.63759L29.1878 9.64197L29.4287 10.0801ZM28.6377 10.2778L28.5581 10.7715L28.5669 10.7729L28.5757 10.774L28.6377 10.2778ZM27.1436 9.92627L26.9974 10.4045L27.0011 10.4055L27.1436 9.92627ZM25.3857 9.26709L25.1285 9.69584L25.157 9.71294L25.1875 9.72612L25.3857 9.26709ZM24.9902 8.91553L25.4498 8.71857L25.4385 8.69229L25.4244 8.66746L24.9902 8.91553ZM24.9902 8.41016L24.5065 8.28371L24.5052 8.28889L24.9902 8.41016ZM26.1987 5.24609L25.7919 4.95547L25.7772 4.97606L25.7646 4.99802L26.1987 5.24609ZM26.8359 4.74072L27.0501 5.19274L27.0614 5.187L26.8359 4.74072ZM35.2295 0.5V0H35.1104L35.004 0.0537262L35.2295 0.5ZM39.4263 0.5H39.9263V0H39.4263V0.5ZM39.4263 31.5474H38.9263C38.9263 31.9395 38.8371 32.07 38.8015 32.1028L39.1406 32.4702L39.4798 32.8376C39.8251 32.5189 39.9263 32.0341 39.9263 31.5474H39.4263ZM39.1406 32.4702L38.8028 32.1016C38.7707 32.131 38.6262 32.2119 38.2178 32.2119V32.7119V33.2119C38.6883 33.2119 39.159 33.1317 39.4785 32.8388L39.1406 32.4702ZM38.2178 32.7119V32.2119H33.6914V32.7119V33.2119H38.2178V32.7119ZM33.6914 32.7119V32.2119C33.289 32.2119 33.1227 32.1335 33.0696 32.0885L32.7466 32.4702L32.4236 32.8519C32.7513 33.1292 33.2149 33.2119 33.6914 33.2119V32.7119ZM32.7466 32.4702L33.1001 32.1167C33.0683 32.0848 32.9829 31.948 32.9829 31.5474H32.4829H31.9829C31.9829 32.0257 32.0733 32.504 32.393 32.8238L32.7466 32.4702ZM32.4829 31.5474H32.9829V8.54199H32.4829H31.9829V31.5474H32.4829ZM32.4829 8.54199L32.258 8.09542L29.2038 9.63351L29.4287 10.0801L29.6536 10.5266L32.7078 8.98856L32.4829 8.54199ZM29.4287 10.0801L29.1878 9.64197C28.95 9.77274 28.7941 9.79349 28.6997 9.78169L28.6377 10.2778L28.5757 10.774C28.95 10.8208 29.3215 10.7097 29.6697 10.5182L29.4287 10.0801ZM28.6377 10.2778L28.7173 9.78421C28.2886 9.71507 27.8119 9.60333 27.286 9.447L27.1436 9.92627L27.0011 10.4055C27.5592 10.5715 28.0786 10.6941 28.5581 10.7715L28.6377 10.2778ZM27.1436 9.92627L27.2897 9.44809C26.784 9.2936 26.2158 9.08091 25.584 8.80806L25.3857 9.26709L25.1875 9.72612C25.8447 10.0099 26.4484 10.2367 26.9974 10.4044L27.1436 9.92627ZM25.3857 9.26709L25.643 8.83834C25.549 8.78192 25.4891 8.73762 25.4543 8.70662C25.4461 8.69935 25.4401 8.69358 25.4361 8.68935C25.434 8.68727 25.4326 8.68566 25.4316 8.68453C25.4311 8.68397 25.4307 8.68355 25.4305 8.68326C25.4302 8.68297 25.4301 8.68283 25.4301 8.68283C25.4301 8.68283 25.4302 8.68299 25.4305 8.68332C25.4307 8.68364 25.4311 8.68412 25.4316 8.68478C25.4325 8.68609 25.4339 8.68816 25.4357 8.69098C25.4391 8.69654 25.4443 8.70575 25.4498 8.71857L24.9902 8.91553L24.5307 9.11249C24.5936 9.25929 24.6975 9.37194 24.7899 9.45403C24.8868 9.54021 25.0028 9.62042 25.1285 9.69584L25.3857 9.26709ZM24.9902 8.91553L25.4244 8.66746C25.4528 8.71721 25.4463 8.74447 25.4463 8.71228C25.4463 8.68236 25.452 8.62453 25.4753 8.53142L24.9902 8.41016L24.5052 8.28889C24.4432 8.53682 24.3932 8.87844 24.5561 9.1636L24.9902 8.91553ZM24.9902 8.41016L25.474 8.53659C25.8039 7.27416 26.1928 6.26424 26.6329 5.49416L26.1987 5.24609L25.7646 4.99802C25.2672 5.86857 24.8504 6.96803 24.5065 8.28372L24.9902 8.41016ZM26.1987 5.24609L26.6056 5.53671C26.6927 5.41474 26.8317 5.296 27.05 5.19259L26.8359 4.74072L26.6219 4.28885C26.2836 4.44911 25.9977 4.66729 25.7919 4.95547L26.1987 5.24609ZM26.8359 4.74072L27.0614 5.187L35.455 0.946276L35.2295 0.5L35.004 0.0537262L26.6105 4.29445L26.8359 4.74072ZM35.2295 0.5V1H39.4263V0.5V0H35.2295V0.5ZM39.4263 0.5H38.9263V31.5474H39.4263H39.9263V0.5H39.4263Z" fill="#4E54C8" mask="url(#path-1-outside-1_2686_117)"/>
</svg>
