<svg width="49" height="34" viewBox="0 0 49 34" fill="none" xmlns="http://www.w3.org/2000/svg">
<mask id="path-1-outside-1_2686_118" maskUnits="userSpaceOnUse" x="-0.587891" y="-0.463867" width="50" height="35" fill="black">
<rect fill="white" x="-0.587891" y="-0.463867" width="50" height="35"/>
<path d="M12.189 33.0854C8.21924 33.0854 5.2749 31.7671 3.35596 29.1304C1.45166 26.4937 0.499512 22.5459 0.499512 17.2871C0.499512 11.8232 1.53223 7.66309 3.59766 4.80664C5.66309 1.93555 8.73193 0.5 12.8042 0.5C16.686 0.5 19.5571 1.84033 21.4175 4.521C23.2925 7.20166 24.23 11.2153 24.23 16.562C24.23 19.6821 23.8345 22.4946 23.0435 24.9995C22.2524 27.4897 20.9707 29.46 19.1982 30.9102C17.4404 32.3604 15.104 33.0854 12.189 33.0854ZM12.4087 27.5483C14.064 27.5483 15.2651 26.6401 16.0122 24.8237C16.7739 23.0073 17.1548 20.3267 17.1548 16.7817C17.1548 13.2368 16.7812 10.5635 16.0342 8.76172C15.3018 6.94531 14.1226 6.03711 12.4966 6.03711C10.7681 6.03711 9.51562 6.97461 8.73926 8.84961C7.96289 10.71 7.57471 13.4639 7.57471 17.1113C7.57471 20.5537 7.95557 23.1538 8.71729 24.9116C9.49365 26.6694 10.7241 27.5483 12.4087 27.5483ZM25.9351 30.6685V30.1631C25.9351 28.5518 26.1987 27.1016 26.7261 25.8125C27.2534 24.5088 27.9346 23.3442 28.7695 22.3188C29.6191 21.2788 30.5273 20.3633 31.4941 19.5723C32.4609 18.7666 33.3838 18.0488 34.2627 17.4189C36.1084 16.1006 37.5 14.8994 38.4375 13.8154C39.3896 12.7168 39.8657 11.4863 39.8657 10.124C39.8657 7.39941 38.3716 6.03711 35.3833 6.03711C34.1968 6.03711 33.1494 6.22754 32.2412 6.6084C31.333 6.98926 30.6006 7.37012 30.0439 7.75098C29.7217 7.9707 29.4653 8.06592 29.2749 8.03662C29.0845 8.00732 28.8867 7.80957 28.6816 7.44336L26.814 4.16943C26.5503 3.71533 26.6309 3.3418 27.0557 3.04883C27.876 2.49219 29.0625 1.92822 30.6152 1.35693C32.1826 0.785645 34.2188 0.5 36.7236 0.5C39.9316 0.5 42.4365 1.30566 44.2383 2.91699C46.04 4.52832 46.9409 6.70361 46.9409 9.44287C46.9409 11.3618 46.5601 13.0171 45.7983 14.4087C45.0366 15.8003 44.0479 17.0308 42.832 18.1001C41.6162 19.1694 40.3125 20.1875 38.9209 21.1543C37.5 22.1357 36.2476 23.1099 35.1636 24.0767C34.0796 25.0435 33.5376 25.9443 33.5376 26.7793H44.9194C45.271 26.7793 45.5347 26.8379 45.7104 26.9551C46.0913 27.2188 46.4868 27.5337 46.897 27.8999C47.3071 28.2661 47.7393 28.7056 48.1934 29.2183C48.3398 29.4087 48.4131 29.5552 48.4131 29.6577C48.4131 29.7896 48.3398 29.936 48.1934 30.0972C47.7393 30.6099 47.3071 31.0493 46.897 31.4155C46.4868 31.7817 46.0913 32.0967 45.7104 32.3604C45.5054 32.4775 45.2417 32.5361 44.9194 32.5361H27.561C26.9312 32.5361 26.499 32.375 26.2646 32.0527C26.0449 31.7158 25.9351 31.2544 25.9351 30.6685Z"/>
</mask>
<path d="M3.35596 29.1304L2.95061 29.4231L2.95169 29.4246L3.35596 29.1304ZM3.59766 4.80664L4.00283 5.09962L4.00354 5.09863L3.59766 4.80664ZM21.4175 4.521L21.0067 4.80607L21.0078 4.80758L21.4175 4.521ZM23.0435 24.9995L23.52 25.1509L23.5202 25.1501L23.0435 24.9995ZM19.1982 30.9102L18.8816 30.5232L18.8801 30.5245L19.1982 30.9102ZM16.0122 24.8237L15.5511 24.6304L15.5498 24.6335L16.0122 24.8237ZM16.0342 8.76172L15.5704 8.94871L15.5723 8.95323L16.0342 8.76172ZM8.73926 8.84961L9.20069 9.04218L9.20122 9.04089L8.73926 8.84961ZM8.71729 24.9116L8.2585 25.1104L8.25991 25.1136L8.71729 24.9116ZM12.189 33.0854V32.5854C8.34005 32.5854 5.56422 31.3149 3.76023 28.8362L3.35596 29.1304L2.95169 29.4246C4.98559 32.2193 8.09842 33.5854 12.189 33.5854V33.0854ZM3.35596 29.1304L3.7613 28.8376C1.94605 26.3242 0.999512 22.5003 0.999512 17.2871H0.499512H-0.000488281C-0.000488281 22.5915 0.957274 26.6631 2.95062 29.4231L3.35596 29.1304ZM0.499512 17.2871H0.999512C0.999512 11.8744 2.02456 7.83552 4.00283 5.09961L3.59766 4.80664L3.19248 4.51367C1.03989 7.49065 -0.000488281 11.7721 -0.000488281 17.2871H0.499512ZM3.59766 4.80664L4.00354 5.09863C5.95981 2.37928 8.86487 1 12.8042 1V0.5V0C8.599 0 5.36636 1.49182 3.19177 4.51465L3.59766 4.80664ZM12.8042 0.5V1C16.5577 1 19.2584 2.28681 21.0067 4.80607L21.4175 4.521L21.8283 4.23592C19.8559 1.39386 16.8144 0 12.8042 0V0.5ZM21.4175 4.521L21.0078 4.80758C22.7973 7.36611 23.73 11.2586 23.73 16.562H24.23H24.73C24.73 11.172 23.7876 7.03721 21.8272 4.23442L21.4175 4.521ZM24.23 16.562H23.73C23.73 19.6404 23.3397 22.4009 22.5667 24.8489L23.0435 24.9995L23.5202 25.1501C24.3292 22.5883 24.73 19.7239 24.73 16.562H24.23ZM23.0435 24.9995L22.5669 24.8481C21.801 27.2594 20.5689 29.1427 18.8816 30.5232L19.1982 30.9102L19.5149 31.2971C21.3725 29.7772 22.7039 27.7201 23.52 25.1509L23.0435 24.9995ZM19.1982 30.9102L18.8801 30.5245C17.2344 31.8822 15.0209 32.5854 12.189 32.5854V33.0854V33.5854C15.1871 33.5854 17.6465 32.8385 19.5164 31.2958L19.1982 30.9102ZM12.4087 27.5483V28.0483C13.3338 28.0483 14.1565 27.7923 14.8526 27.266C15.543 26.744 16.0772 25.9802 16.4746 25.0139L16.0122 24.8237L15.5498 24.6335C15.2002 25.4836 14.7602 26.0822 14.2495 26.4684C13.7444 26.8502 13.1389 27.0483 12.4087 27.0483V27.5483ZM16.0122 24.8237L16.4733 25.0171C17.2736 23.1086 17.6548 20.3485 17.6548 16.7817H17.1548H16.6548C16.6548 20.3048 16.2742 22.906 15.5511 24.6304L16.0122 24.8237ZM17.1548 16.7817H17.6548C17.6548 13.216 17.2811 10.4636 16.496 8.57021L16.0342 8.76172L15.5723 8.95323C16.2814 10.6633 16.6548 13.2577 16.6548 16.7817H17.1548ZM16.0342 8.76172L16.4979 8.57473C16.1086 7.60931 15.5846 6.84514 14.9056 6.32213C14.2203 5.79436 13.4091 5.53711 12.4966 5.53711V6.03711V6.53711C13.21 6.53711 13.8014 6.73396 14.2954 7.11439C14.7955 7.49958 15.2273 8.09772 15.5705 8.9487L16.0342 8.76172ZM12.4966 6.03711V5.53711C11.5362 5.53711 10.683 5.79966 9.96124 6.33995C9.24475 6.87627 8.68985 7.66197 8.27729 8.65833L8.73926 8.84961L9.20122 9.04089C9.56504 8.16225 10.0245 7.5417 10.5605 7.14051C11.0911 6.74331 11.7284 6.53711 12.4966 6.53711V6.03711ZM8.73926 8.84961L8.27783 8.65704C7.46309 10.6093 7.07471 13.4426 7.07471 17.1113H7.57471H8.07471C8.07471 13.4852 8.4627 10.8106 9.20069 9.04218L8.73926 8.84961ZM7.57471 17.1113H7.07471C7.07471 20.5762 7.4559 23.2583 8.25851 25.1104L8.71729 24.9116L9.17606 24.7128C8.45523 23.0494 8.07471 20.5312 8.07471 17.1113H7.57471ZM8.71729 24.9116L8.25991 25.1136C8.67465 26.0527 9.22635 26.7921 9.93179 27.296C10.6414 27.8029 11.4746 28.0483 12.4087 28.0483V27.5483V27.0483C11.6582 27.0483 11.0339 26.8543 10.513 26.4823C9.98801 26.1073 9.53629 25.5284 9.17466 24.7096L8.71729 24.9116ZM26.7261 25.8125L27.1889 26.0018L27.1896 26L26.7261 25.8125ZM28.7695 22.3188L28.3823 22.0025L28.3818 22.0031L28.7695 22.3188ZM31.4941 19.5723L31.8108 19.9593L31.8142 19.9564L31.4941 19.5723ZM34.2627 17.4189L33.9721 17.0121L33.9714 17.0125L34.2627 17.4189ZM38.4375 13.8154L38.0597 13.488L38.0593 13.4884L38.4375 13.8154ZM30.0439 7.75098L30.3256 8.16409L30.3263 8.16363L30.0439 7.75098ZM28.6816 7.44336L29.1179 7.19905L29.1159 7.1956L28.6816 7.44336ZM26.814 4.16943L27.2483 3.92167L27.2464 3.91837L26.814 4.16943ZM27.0557 3.04883L26.7749 2.63508L26.7718 2.63722L27.0557 3.04883ZM30.6152 1.35693L30.444 0.887163L30.4426 0.887686L30.6152 1.35693ZM38.9209 21.1543L39.2051 21.5657L39.2062 21.5649L38.9209 21.1543ZM33.5376 26.7793H33.0376V27.2793H33.5376V26.7793ZM45.7104 26.9551L45.9951 26.5439L45.9878 26.5391L45.7104 26.9551ZM48.1934 29.2183L48.5897 28.9134L48.5791 28.8997L48.5677 28.8867L48.1934 29.2183ZM48.1934 30.0972L47.8234 29.7608L47.8191 29.7657L48.1934 30.0972ZM46.897 31.4155L46.564 31.0426L46.897 31.4155ZM45.7104 32.3604L45.9585 32.7945L45.9773 32.7837L45.9951 32.7714L45.7104 32.3604ZM26.2646 32.0527L25.8458 32.3259L25.8528 32.3365L25.8603 32.3468L26.2646 32.0527ZM25.9351 30.6685H26.4351V30.1631H25.9351H25.4351V30.6685H25.9351ZM25.9351 30.1631H26.4351C26.4351 28.6066 26.6896 27.2221 27.1888 26.0018L26.7261 25.8125L26.2633 25.6232C25.7078 26.981 25.4351 28.4969 25.4351 30.1631H25.9351ZM26.7261 25.8125L27.1896 26C27.6994 24.7396 28.3558 23.6188 29.1572 22.6346L28.7695 22.3188L28.3818 22.0031C27.5134 23.0696 26.8074 24.278 26.2626 25.625L26.7261 25.8125ZM28.7695 22.3188L29.1568 22.6352C29.9868 21.6191 30.8716 20.7276 31.8108 19.9592L31.4941 19.5723L31.1775 19.1853C30.183 19.999 29.2515 20.9386 28.3823 22.0025L28.7695 22.3188ZM31.4941 19.5723L31.8142 19.9564C32.7732 19.1573 33.6864 18.4471 34.554 17.8254L34.2627 17.4189L33.9714 17.0125C33.0812 17.6505 32.1487 18.3759 31.174 19.1882L31.4941 19.5723ZM34.2627 17.4189L34.5533 17.8258C36.4149 16.4961 37.8418 15.2686 38.8157 14.1425L38.4375 13.8154L38.0593 13.4884C37.1582 14.5302 35.8019 15.7051 33.9721 17.0121L34.2627 17.4189ZM38.4375 13.8154L38.8153 14.1429C39.8405 12.96 40.3657 11.6151 40.3657 10.124H39.8657H39.3657C39.3657 11.3575 38.9388 12.4736 38.0597 13.488L38.4375 13.8154ZM39.8657 10.124H40.3657C40.3657 8.67214 39.9655 7.49491 39.082 6.68936C38.2072 5.89179 36.9437 5.53711 35.3833 5.53711V6.03711V6.53711C36.8112 6.53711 37.7888 6.86358 38.4082 7.42832C39.0189 7.98507 39.3657 8.8513 39.3657 10.124H39.8657ZM35.3833 6.03711V5.53711C34.1437 5.53711 33.0285 5.73608 32.0478 6.1473L32.2412 6.6084L32.4346 7.0695C33.2704 6.719 34.2499 6.53711 35.3833 6.53711V6.03711ZM32.2412 6.6084L32.0478 6.1473C31.1213 6.53586 30.3557 6.93181 29.7616 7.33832L30.0439 7.75098L30.3263 8.16363C30.8454 7.80842 31.5447 7.44266 32.4346 7.0695L32.2412 6.6084ZM30.0439 7.75098L29.7623 7.33786C29.6217 7.43372 29.5138 7.48954 29.4359 7.51847C29.356 7.54814 29.334 7.53983 29.3509 7.54243L29.2749 8.03662L29.1989 8.53081C29.5924 8.59136 29.9903 8.39273 30.3256 8.16409L30.0439 7.75098ZM29.2749 8.03662L29.3509 7.54243C29.3987 7.54979 29.3936 7.56906 29.3373 7.51278C29.2827 7.45821 29.208 7.36001 29.1179 7.19906L28.6816 7.44336L28.2454 7.68766C28.3603 7.89292 28.487 8.0767 28.6302 8.21989C28.7717 8.36136 28.9607 8.49416 29.1989 8.53081L29.2749 8.03662ZM28.6816 7.44336L29.1159 7.1956L27.2483 3.92168L26.814 4.16943L26.3797 4.41719L28.2473 7.69111L28.6816 7.44336ZM26.814 4.16943L27.2464 3.91837C27.1535 3.75839 27.1598 3.68 27.1654 3.65413C27.1706 3.63004 27.1945 3.56046 27.3395 3.46043L27.0557 3.04883L26.7718 2.63722C26.492 2.83017 26.2632 3.09383 26.1879 3.44329C26.1129 3.79095 26.2108 4.12638 26.3816 4.4205L26.814 4.16943ZM27.0557 3.04883L27.3364 3.46257C28.1082 2.93887 29.2515 2.39144 30.7879 1.82618L30.6152 1.35693L30.4426 0.887686C28.8735 1.46501 27.6438 2.0455 26.7749 2.63509L27.0557 3.04883ZM30.6152 1.35693L30.7865 1.8267C32.2787 1.28279 34.2508 1 36.7236 1V0.5V0C34.1867 0 32.0865 0.288498 30.444 0.887165L30.6152 1.35693ZM36.7236 0.5V1C39.8496 1 42.2214 1.78406 43.905 3.28969L44.2383 2.91699L44.5716 2.54429C42.6516 0.827271 40.0137 0 36.7236 0V0.5ZM44.2383 2.91699L43.905 3.28969C45.5859 4.793 46.4409 6.82487 46.4409 9.44287H46.9409H47.4409C47.4409 6.58235 46.4941 4.26365 44.5716 2.54429L44.2383 2.91699ZM46.9409 9.44287H46.4409C46.4409 11.2954 46.0735 12.8646 45.3597 14.1686L45.7983 14.4087L46.2369 14.6488C47.0466 13.1696 47.4409 11.4282 47.4409 9.44287H46.9409ZM45.7983 14.4087L45.3597 14.1686C44.6266 15.5081 43.6748 16.693 42.5018 17.7247L42.832 18.1001L43.1622 18.4755C44.4209 17.3685 45.4467 16.0925 46.2369 14.6488L45.7983 14.4087ZM42.832 18.1001L42.5018 17.7247C41.3009 18.7808 40.0123 19.7872 38.6356 20.7437L38.9209 21.1543L39.2062 21.5649C40.6127 20.5878 41.9315 19.558 43.1622 18.4755L42.832 18.1001ZM38.9209 21.1543L38.6367 20.7429C37.2019 21.734 35.9327 22.7207 34.8308 23.7035L35.1636 24.0767L35.4964 24.4498C36.5624 23.499 37.7981 22.5375 39.2051 21.5657L38.9209 21.1543ZM35.1636 24.0767L34.8308 23.7035C33.7147 24.6989 33.0376 25.7259 33.0376 26.7793H33.5376H34.0376C34.0376 26.1628 34.4445 25.388 35.4964 24.4498L35.1636 24.0767ZM33.5376 26.7793V27.2793H44.9194V26.7793V26.2793H33.5376V26.7793ZM44.9194 26.7793V27.2793C45.2312 27.2793 45.3776 27.3341 45.4331 27.3711L45.7104 26.9551L45.9878 26.5391C45.6917 26.3416 45.3108 26.2793 44.9194 26.2793V26.7793ZM45.7104 26.9551L45.4258 27.3662C45.787 27.6162 46.1664 27.9179 46.564 28.2729L46.897 27.8999L47.23 27.5269C46.8072 27.1495 46.3956 26.8213 45.9951 26.544L45.7104 26.9551ZM46.897 27.8999L46.564 28.2729C46.9565 28.6234 47.3749 29.0483 47.8191 29.5498L48.1934 29.2183L48.5677 28.8867C48.1036 28.3628 47.6577 27.9088 47.23 27.5269L46.897 27.8999ZM48.1934 29.2183L47.797 29.5231C47.8589 29.6035 47.8936 29.6599 47.9109 29.6946C47.9193 29.7112 47.9207 29.7172 47.9197 29.7137C47.9187 29.7105 47.9131 29.6905 47.9131 29.6577H48.4131H48.9131C48.9131 29.496 48.8582 29.353 48.8054 29.2473C48.7495 29.1356 48.6743 29.0234 48.5897 28.9134L48.1934 29.2183ZM48.4131 29.6577H47.9131C47.9131 29.6295 47.9211 29.6226 47.9109 29.6428C47.9002 29.6642 47.8753 29.7037 47.8234 29.7608L48.1934 30.0972L48.5633 30.4335C48.7424 30.2365 48.9131 29.9733 48.9131 29.6577H48.4131ZM48.1934 30.0972L47.8191 29.7657C47.3749 30.2671 46.9565 30.692 46.564 31.0426L46.897 31.4155L47.23 31.7885C47.6577 31.4066 48.1036 30.9526 48.5677 30.4287L48.1934 30.0972ZM46.897 31.4155L46.564 31.0426C46.1664 31.3975 45.787 31.6992 45.4258 31.9493L45.7104 32.3604L45.9951 32.7714C46.3956 32.4942 46.8072 32.166 47.23 31.7885L46.897 31.4155ZM45.7104 32.3604L45.4624 31.9262C45.3555 31.9873 45.1851 32.0361 44.9194 32.0361V32.5361V33.0361C45.2983 33.0361 45.6553 32.9677 45.9585 32.7945L45.7104 32.3604ZM44.9194 32.5361V32.0361H27.561V32.5361V33.0361H44.9194V32.5361ZM27.561 32.5361V32.0361C26.9964 32.0361 26.7648 31.8904 26.669 31.7586L26.2646 32.0527L25.8603 32.3468C26.2332 32.8596 26.8659 33.0361 27.561 33.0361V32.5361ZM26.2646 32.0527L26.6835 31.7796C26.5357 31.5531 26.4351 31.1993 26.4351 30.6685H25.9351H25.4351C25.4351 31.3094 25.5541 31.8786 25.8458 32.3259L26.2646 32.0527Z" fill="#4E54C8" mask="url(#path-1-outside-1_2686_118)"/>
</svg>
