<svg width="48" height="34" viewBox="0 0 48 34" fill="none" xmlns="http://www.w3.org/2000/svg">
<mask id="path-1-outside-1_2686_119" maskUnits="userSpaceOnUse" x="-0.757812" y="-0.463867" width="48" height="35" fill="black">
<rect fill="white" x="-0.757812" y="-0.463867" width="48" height="35"/>
<path d="M12.189 33.0854C8.21924 33.0854 5.2749 31.7671 3.35596 29.1304C1.45166 26.4937 0.499512 22.5459 0.499512 17.2871C0.499512 11.8232 1.53223 7.66309 3.59766 4.80664C5.66309 1.93555 8.73193 0.5 12.8042 0.5C16.686 0.5 19.5571 1.84033 21.4175 4.521C23.2925 7.20166 24.23 11.2153 24.23 16.562C24.23 19.6821 23.8345 22.4946 23.0435 24.9995C22.2524 27.4897 20.9707 29.46 19.1982 30.9102C17.4404 32.3604 15.104 33.0854 12.189 33.0854ZM12.4087 27.5483C14.064 27.5483 15.2651 26.6401 16.0122 24.8237C16.7739 23.0073 17.1548 20.3267 17.1548 16.7817C17.1548 13.2368 16.7812 10.5635 16.0342 8.76172C15.3018 6.94531 14.1226 6.03711 12.4966 6.03711C10.7681 6.03711 9.51562 6.97461 8.73926 8.84961C7.96289 10.71 7.57471 13.4639 7.57471 17.1113C7.57471 20.5537 7.95557 23.1538 8.71729 24.9116C9.49365 26.6694 10.7241 27.5483 12.4087 27.5483ZM34.3726 33.0854C31.9849 33.0854 30.1025 32.8877 28.7256 32.4922C27.3486 32.082 26.3379 31.7012 25.6934 31.3496C25.2539 31.1299 25.144 30.771 25.3638 30.2729L26.8799 26.6914C27.041 26.3105 27.2168 26.0981 27.4072 26.0542C27.5977 26.0103 27.8613 26.0688 28.1982 26.23C28.7842 26.5083 29.5679 26.8013 30.5493 27.1089C31.5454 27.4019 32.71 27.5483 34.043 27.5483C35.6982 27.5483 37.0093 27.2041 37.9761 26.5156C38.9575 25.8271 39.4482 24.8018 39.4482 23.4395C39.4482 22.0332 38.833 20.9712 37.6025 20.2534C36.3867 19.521 34.7095 19.1548 32.5708 19.1548H32.0654C31.7139 19.1548 31.4502 19.0962 31.2744 18.979C30.8936 18.73 30.498 18.437 30.0879 18.1001C29.6924 17.7485 29.2603 17.3237 28.7915 16.8257C28.645 16.6353 28.5718 16.4888 28.5718 16.3862C28.5718 16.2544 28.645 16.1079 28.7915 15.9468C29.2603 15.4487 29.6924 15.0312 30.0879 14.6943C30.498 14.3428 30.8936 14.0425 31.2744 13.7935C31.4795 13.6763 31.7432 13.6177 32.0654 13.6177H32.3511C36.4526 13.6177 38.5034 12.292 38.5034 9.64062C38.5034 7.23828 37.0166 6.03711 34.043 6.03711C33.0176 6.03711 32.0728 6.16895 31.2085 6.43262C30.3442 6.69629 29.6484 6.95996 29.1211 7.22363C28.7842 7.38477 28.5205 7.44336 28.3301 7.39941C28.1543 7.34082 27.9858 7.13574 27.8247 6.78418L26.3525 3.42236C26.1475 2.93896 26.2573 2.57275 26.6821 2.32373C27.3267 1.98682 28.3594 1.59863 29.7803 1.15918C31.2012 0.719727 33.0615 0.5 35.3613 0.5C37.2803 0.5 39.0088 0.792969 40.5469 1.37891C42.085 1.96484 43.3081 2.83643 44.2163 3.99365C45.1245 5.15088 45.5786 6.59375 45.5786 8.32227C45.5786 12.4385 43.4912 15.0166 39.3164 16.0566V16.1665C41.4551 16.4448 43.1909 17.2285 44.5239 18.5176C45.8569 19.8066 46.5234 21.4766 46.5234 23.5273C46.5234 25.6367 45.9961 27.4019 44.9414 28.8228C43.9014 30.2437 42.4658 31.313 40.6348 32.0308C38.8037 32.7339 36.7163 33.0854 34.3726 33.0854Z"/>
</mask>
<path d="M3.35596 29.1304L2.95061 29.4231L2.95169 29.4246L3.35596 29.1304ZM3.59766 4.80664L4.00283 5.09962L4.00354 5.09863L3.59766 4.80664ZM21.4175 4.521L21.0067 4.80607L21.0078 4.80758L21.4175 4.521ZM23.0435 24.9995L23.52 25.1509L23.5202 25.1501L23.0435 24.9995ZM19.1982 30.9102L18.8816 30.5232L18.8801 30.5245L19.1982 30.9102ZM16.0122 24.8237L15.5511 24.6304L15.5498 24.6335L16.0122 24.8237ZM16.0342 8.76172L15.5704 8.94871L15.5723 8.95323L16.0342 8.76172ZM8.73926 8.84961L9.20069 9.04218L9.20122 9.04089L8.73926 8.84961ZM8.71729 24.9116L8.2585 25.1104L8.25991 25.1136L8.71729 24.9116ZM12.189 33.0854V32.5854C8.34005 32.5854 5.56422 31.3149 3.76023 28.8362L3.35596 29.1304L2.95169 29.4246C4.98559 32.2193 8.09842 33.5854 12.189 33.5854V33.0854ZM3.35596 29.1304L3.7613 28.8376C1.94605 26.3242 0.999512 22.5003 0.999512 17.2871H0.499512H-0.000488281C-0.000488281 22.5915 0.957274 26.6631 2.95062 29.4231L3.35596 29.1304ZM0.499512 17.2871H0.999512C0.999512 11.8744 2.02456 7.83552 4.00283 5.09961L3.59766 4.80664L3.19248 4.51367C1.03989 7.49065 -0.000488281 11.7721 -0.000488281 17.2871H0.499512ZM3.59766 4.80664L4.00354 5.09863C5.95981 2.37928 8.86487 1 12.8042 1V0.5V0C8.599 0 5.36636 1.49182 3.19177 4.51465L3.59766 4.80664ZM12.8042 0.5V1C16.5577 1 19.2584 2.28681 21.0067 4.80607L21.4175 4.521L21.8283 4.23592C19.8559 1.39386 16.8144 0 12.8042 0V0.5ZM21.4175 4.521L21.0078 4.80758C22.7973 7.36611 23.73 11.2586 23.73 16.562H24.23H24.73C24.73 11.172 23.7876 7.03721 21.8272 4.23442L21.4175 4.521ZM24.23 16.562H23.73C23.73 19.6404 23.3397 22.4009 22.5667 24.8489L23.0435 24.9995L23.5202 25.1501C24.3292 22.5883 24.73 19.7239 24.73 16.562H24.23ZM23.0435 24.9995L22.5669 24.8481C21.801 27.2594 20.5689 29.1427 18.8816 30.5232L19.1982 30.9102L19.5149 31.2971C21.3725 29.7772 22.7039 27.7201 23.52 25.1509L23.0435 24.9995ZM19.1982 30.9102L18.8801 30.5245C17.2344 31.8822 15.0209 32.5854 12.189 32.5854V33.0854V33.5854C15.1871 33.5854 17.6465 32.8385 19.5164 31.2958L19.1982 30.9102ZM12.4087 27.5483V28.0483C13.3338 28.0483 14.1565 27.7923 14.8526 27.266C15.543 26.744 16.0772 25.9802 16.4746 25.0139L16.0122 24.8237L15.5498 24.6335C15.2002 25.4836 14.7602 26.0822 14.2495 26.4684C13.7444 26.8502 13.1389 27.0483 12.4087 27.0483V27.5483ZM16.0122 24.8237L16.4733 25.0171C17.2736 23.1086 17.6548 20.3485 17.6548 16.7817H17.1548H16.6548C16.6548 20.3048 16.2742 22.906 15.5511 24.6304L16.0122 24.8237ZM17.1548 16.7817H17.6548C17.6548 13.216 17.2811 10.4636 16.496 8.57021L16.0342 8.76172L15.5723 8.95323C16.2814 10.6633 16.6548 13.2577 16.6548 16.7817H17.1548ZM16.0342 8.76172L16.4979 8.57473C16.1086 7.60931 15.5846 6.84514 14.9056 6.32213C14.2203 5.79436 13.4091 5.53711 12.4966 5.53711V6.03711V6.53711C13.21 6.53711 13.8014 6.73396 14.2954 7.11439C14.7955 7.49958 15.2273 8.09772 15.5705 8.9487L16.0342 8.76172ZM12.4966 6.03711V5.53711C11.5362 5.53711 10.683 5.79966 9.96124 6.33995C9.24475 6.87627 8.68985 7.66197 8.27729 8.65833L8.73926 8.84961L9.20122 9.04089C9.56504 8.16225 10.0245 7.5417 10.5605 7.14051C11.0911 6.74331 11.7284 6.53711 12.4966 6.53711V6.03711ZM8.73926 8.84961L8.27783 8.65704C7.46309 10.6093 7.07471 13.4426 7.07471 17.1113H7.57471H8.07471C8.07471 13.4852 8.4627 10.8106 9.20069 9.04218L8.73926 8.84961ZM7.57471 17.1113H7.07471C7.07471 20.5762 7.4559 23.2583 8.25851 25.1104L8.71729 24.9116L9.17606 24.7128C8.45523 23.0494 8.07471 20.5312 8.07471 17.1113H7.57471ZM8.71729 24.9116L8.25991 25.1136C8.67465 26.0527 9.22635 26.7921 9.93179 27.296C10.6414 27.8029 11.4746 28.0483 12.4087 28.0483V27.5483V27.0483C11.6582 27.0483 11.0339 26.8543 10.513 26.4823C9.98801 26.1073 9.53629 25.5284 9.17466 24.7096L8.71729 24.9116ZM28.7256 32.4922L28.5828 32.9714L28.5876 32.9728L28.7256 32.4922ZM25.6934 31.3496L25.9328 30.9107L25.9249 30.9064L25.917 30.9024L25.6934 31.3496ZM25.3638 30.2729L25.8213 30.4748L25.8242 30.4679L25.3638 30.2729ZM26.8799 26.6914L27.3403 26.8863L27.3404 26.8862L26.8799 26.6914ZM28.1982 26.23L27.9825 26.681L27.9837 26.6816L28.1982 26.23ZM30.5493 27.1089L30.3997 27.5861L30.4082 27.5886L30.5493 27.1089ZM37.9761 26.5156L37.6889 26.1063L37.686 26.1083L37.9761 26.5156ZM37.6025 20.2534L37.3445 20.6818L37.3506 20.6853L37.6025 20.2534ZM31.2744 18.979L31.5518 18.563L31.548 18.5605L31.2744 18.979ZM30.0879 18.1001L29.7557 18.4738L29.763 18.4803L29.7705 18.4865L30.0879 18.1001ZM28.7915 16.8257L28.3952 17.1305L28.4104 17.1503L28.4274 17.1684L28.7915 16.8257ZM28.7915 15.9468L28.4273 15.604L28.4215 15.6104L28.7915 15.9468ZM30.0879 14.6943L30.4121 15.075L30.4133 15.074L30.0879 14.6943ZM31.2744 13.7935L31.0263 13.3593L31.0133 13.3668L31.0008 13.375L31.2744 13.7935ZM29.1211 7.22363L29.3369 7.67477L29.3447 7.67085L29.1211 7.22363ZM28.3301 7.39941L28.172 7.87376L28.1945 7.88127L28.2176 7.88661L28.3301 7.39941ZM27.8247 6.78418L27.3666 6.98478L27.3702 6.99251L27.8247 6.78418ZM26.3525 3.42236L25.8922 3.61765L25.8945 3.62293L26.3525 3.42236ZM26.6821 2.32373L26.4505 1.88062L26.4397 1.88624L26.4293 1.89238L26.6821 2.32373ZM39.3164 16.0566L39.1955 15.5715L38.8164 15.6659V16.0566H39.3164ZM39.3164 16.1665H38.8164V16.6057L39.2519 16.6623L39.3164 16.1665ZM44.9414 28.8228L44.5399 28.5247L44.5379 28.5274L44.9414 28.8228ZM40.6348 32.0308L40.814 32.4975L40.8172 32.4963L40.6348 32.0308ZM34.3726 33.0854V32.5854C32.0049 32.5854 30.1758 32.3885 28.8636 32.0116L28.7256 32.4922L28.5876 32.9728C30.0293 33.3869 31.9648 33.5854 34.3726 33.5854V33.0854ZM28.7256 32.4922L28.8683 32.013C27.4995 31.6053 26.5298 31.2363 25.9328 30.9107L25.6934 31.3496L25.4539 31.7886C26.146 32.166 27.1978 32.5588 28.5828 32.9714L28.7256 32.4922ZM25.6934 31.3496L25.917 30.9024C25.78 30.8339 25.763 30.7808 25.7595 30.7693C25.7526 30.7468 25.7384 30.6625 25.8212 30.4748L25.3638 30.2729L24.9063 30.0711C24.7694 30.3815 24.7003 30.7256 24.8033 31.062C24.9096 31.4094 25.1672 31.6456 25.4698 31.7968L25.6934 31.3496ZM25.3638 30.2729L25.8242 30.4679L27.3403 26.8863L26.8799 26.6914L26.4194 26.4965L24.9033 30.078L25.3638 30.2729ZM26.8799 26.6914L27.3404 26.8862C27.4105 26.7206 27.4722 26.6203 27.5178 26.5652C27.5637 26.5097 27.5675 26.5304 27.5197 26.5414L27.4072 26.0542L27.2948 25.567C27.0565 25.622 26.8772 25.7708 26.7474 25.9277C26.6172 26.085 26.5104 26.2814 26.4194 26.4966L26.8799 26.6914ZM27.4072 26.0542L27.5197 26.5414C27.519 26.5416 27.5273 26.5396 27.5477 26.5402C27.5682 26.5409 27.5983 26.5442 27.6393 26.5533C27.7231 26.5719 27.8363 26.6111 27.9825 26.681L28.1982 26.23L28.414 25.7789C28.0551 25.6073 27.6587 25.483 27.2948 25.567L27.4072 26.0542ZM28.1982 26.23L27.9837 26.6816C28.5992 26.974 29.4073 27.2749 30.3998 27.586L30.5493 27.1089L30.6989 26.6318C29.7284 26.3276 28.9692 26.0426 28.4128 25.7783L28.1982 26.23ZM30.5493 27.1089L30.4082 27.5886C31.461 27.8982 32.675 28.0483 34.043 28.0483V27.5483V27.0483C32.7449 27.0483 31.6298 26.9055 30.6904 26.6292L30.5493 27.1089ZM34.043 27.5483V28.0483C35.7624 28.0483 37.1871 27.6913 38.2661 26.9229L37.9761 26.5156L37.686 26.1083C36.8315 26.7169 35.6341 27.0483 34.043 27.0483V27.5483ZM37.9761 26.5156L38.2632 26.925C39.3978 26.129 39.9482 24.939 39.9482 23.4395H39.4482H38.9482C38.9482 24.6645 38.5172 25.5253 37.6889 26.1063L37.9761 26.5156ZM39.4482 23.4395H39.9482C39.9482 21.8525 39.2361 20.6275 37.8545 19.8215L37.6025 20.2534L37.3506 20.6853C38.4299 21.3149 38.9482 22.2139 38.9482 23.4395H39.4482ZM37.6025 20.2534L37.8605 19.8251C36.5369 19.0278 34.7577 18.6548 32.5708 18.6548V19.1548V19.6548C34.6613 19.6548 36.2365 20.0142 37.3445 20.6817L37.6025 20.2534ZM32.5708 19.1548V18.6548H32.0654V19.1548V19.6548H32.5708V19.1548ZM32.0654 19.1548V18.6548C31.7536 18.6548 31.6072 18.6 31.5518 18.563L31.2744 18.979L30.9971 19.395C31.2932 19.5924 31.6741 19.6548 32.0654 19.6548V19.1548ZM31.2744 18.979L31.548 18.5605C31.1846 18.3229 30.8037 18.041 30.4053 17.7137L30.0879 18.1001L29.7705 18.4865C30.1924 18.833 30.6025 19.1371 31.0008 19.3975L31.2744 18.979ZM30.0879 18.1001L30.4201 17.7264C30.0383 17.3871 29.6169 16.9732 29.1556 16.483L28.7915 16.8257L28.4274 17.1684C28.9036 17.6743 29.3465 18.11 29.7557 18.4738L30.0879 18.1001ZM28.7915 16.8257L29.1878 16.5208C29.126 16.4404 29.0913 16.3841 29.0739 16.3494C29.0656 16.3327 29.0642 16.3268 29.0652 16.3303C29.0661 16.3334 29.0718 16.3534 29.0718 16.3862H28.5718H28.0718C28.0718 16.548 28.1267 16.691 28.1795 16.7966C28.2354 16.9084 28.3106 17.0205 28.3952 17.1305L28.7915 16.8257ZM28.5718 16.3862H29.0718C29.0718 16.4145 29.0638 16.4214 29.0739 16.4011C29.0846 16.3797 29.1096 16.3402 29.1615 16.2831L28.7915 15.9468L28.4215 15.6104C28.2424 15.8074 28.0718 16.0707 28.0718 16.3862H28.5718ZM28.7915 15.9468L29.1556 16.2895C29.6155 15.8009 30.0342 15.3969 30.4121 15.075L30.0879 14.6943L29.7637 14.3137C29.3506 14.6656 28.9051 15.0966 28.4274 15.6041L28.7915 15.9468ZM30.0879 14.6943L30.4133 15.074C30.81 14.7339 31.1882 14.4472 31.548 14.2119L31.2744 13.7935L31.0008 13.375C30.5989 13.6378 30.1861 13.9516 29.7625 14.3147L30.0879 14.6943ZM31.2744 13.7935L31.5225 14.2276C31.6294 14.1665 31.7998 14.1177 32.0654 14.1177V13.6177V13.1177C31.6865 13.1177 31.3296 13.1861 31.0263 13.3593L31.2744 13.7935ZM32.0654 13.6177V14.1177H32.3511V13.6177V13.1177H32.0654V13.6177ZM32.3511 13.6177V14.1177C34.4397 14.1177 36.0925 13.783 37.2368 13.0433C38.4186 12.2793 39.0034 11.1187 39.0034 9.64062H38.5034H38.0034C38.0034 10.814 37.5628 11.6418 36.6939 12.2035C35.7874 12.7895 34.364 13.1177 32.3511 13.1177V13.6177ZM38.5034 9.64062H39.0034C39.0034 8.33079 38.5928 7.26834 37.7025 6.54905C36.8326 5.84625 35.5841 5.53711 34.043 5.53711V6.03711V6.53711C35.4755 6.53711 36.4572 6.82856 37.0741 7.32692C37.6706 7.80881 38.0034 8.54812 38.0034 9.64062H38.5034ZM34.043 6.03711V5.53711C32.9747 5.53711 31.98 5.67448 31.0626 5.95438L31.2085 6.43262L31.3544 6.91086C32.1655 6.66341 33.0605 6.53711 34.043 6.53711V6.03711ZM31.2085 6.43262L31.0626 5.95438C30.1841 6.22239 29.4593 6.49553 28.8975 6.77642L29.1211 7.22363L29.3447 7.67085C29.8376 7.42439 30.5044 7.17018 31.3544 6.91086L31.2085 6.43262ZM29.1211 7.22363L28.9054 6.77257C28.7591 6.84249 28.6459 6.88173 28.5622 6.90033C28.5211 6.90946 28.491 6.91274 28.4705 6.91341C28.4501 6.91406 28.4418 6.91206 28.4425 6.91222L28.3301 7.39941L28.2176 7.88661C28.5816 7.9706 28.9779 7.84636 29.3368 7.6747L29.1211 7.22363ZM28.3301 7.39941L28.4882 6.92507C28.5203 6.93579 28.5072 6.94393 28.4583 6.88429C28.4107 6.82638 28.3493 6.72861 28.2792 6.57585L27.8247 6.78418L27.3702 6.99251C27.4613 7.19131 27.5647 7.37186 27.6855 7.51903C27.805 7.66447 27.964 7.80445 28.172 7.87376L28.3301 7.39941ZM27.8247 6.78418L28.2827 6.58361L26.8105 3.2218L26.3525 3.42236L25.8945 3.62293L27.3667 6.98475L27.8247 6.78418ZM26.3525 3.42236L26.8128 3.22709C26.7389 3.05285 26.7493 2.96478 26.76 2.92883C26.7691 2.8985 26.7991 2.83473 26.935 2.75508L26.6821 2.32373L26.4293 1.89238C26.1403 2.06176 25.903 2.3056 25.8022 2.64148C25.7031 2.97174 25.7611 3.30848 25.8922 3.61764L26.3525 3.42236ZM26.6821 2.32373L26.9138 2.76684C27.5161 2.452 28.5126 2.0746 29.928 1.63686L29.7803 1.15918L29.6325 0.681503C28.2061 1.12267 27.1373 1.52164 26.4505 1.88062L26.6821 2.32373ZM29.7803 1.15918L29.928 1.63686C31.2824 1.21796 33.0874 1 35.3613 1V0.5V0C33.0356 0 31.1199 0.221489 29.6325 0.681503L29.7803 1.15918ZM35.3613 0.5V1C37.2294 1 38.8962 1.28514 40.3689 1.84615L40.5469 1.37891L40.7249 0.911663C39.1214 0.3008 37.3312 0 35.3613 0V0.5ZM40.5469 1.37891L40.3689 1.84615C41.8325 2.40371 42.9773 3.22477 43.823 4.30234L44.2163 3.99365L44.6096 3.68496C43.6389 2.44808 42.3375 1.52598 40.7249 0.911663L40.5469 1.37891ZM44.2163 3.99365L43.823 4.30234C44.6505 5.35671 45.0786 6.68529 45.0786 8.32227H45.5786H46.0786C46.0786 6.50221 45.5986 4.94505 44.6096 3.68496L44.2163 3.99365ZM45.5786 8.32227H45.0786C45.0786 10.2942 44.5801 11.8481 43.6245 13.0284C42.667 14.2109 41.2089 15.0699 39.1955 15.5715L39.3164 16.0566L39.4373 16.5418C41.5987 16.0034 43.2717 15.0532 44.4017 13.6576C45.5335 12.2598 46.0786 10.4666 46.0786 8.32227H45.5786ZM39.3164 16.0566H38.8164V16.1665H39.3164H39.8164V16.0566H39.3164ZM39.3164 16.1665L39.2519 16.6623C41.302 16.9291 42.9327 17.6744 44.1763 18.877L44.5239 18.5176L44.8715 18.1581C43.4491 16.7827 41.6081 15.9605 39.3809 15.6707L39.3164 16.1665ZM44.5239 18.5176L44.1763 18.877C45.4011 20.0614 46.0234 21.5962 46.0234 23.5273H46.5234H47.0234C47.0234 21.3569 46.3128 19.5519 44.8715 18.1581L44.5239 18.5176ZM46.5234 23.5273H46.0234C46.0234 25.5506 45.5191 27.2056 44.5399 28.5247L44.9414 28.8228L45.3429 29.1208C46.4731 27.5981 47.0234 25.7228 47.0234 23.5273H46.5234ZM44.9414 28.8228L44.5379 28.5274C43.5603 29.8631 42.2057 30.8779 40.4523 31.5653L40.6348 32.0308L40.8172 32.4963C42.726 31.7481 44.2424 30.6243 45.3449 29.1181L44.9414 28.8228ZM40.6348 32.0308L40.4555 31.564C38.6916 32.2413 36.6667 32.5854 34.3726 32.5854V33.0854V33.5854C36.7659 33.5854 38.9158 33.2264 40.814 32.4975L40.6348 32.0308Z" fill="#C9C9C9" mask="url(#path-1-outside-1_2686_119)"/>
</svg>
