<svg width="52" height="34" viewBox="0 0 52 34" fill="none" xmlns="http://www.w3.org/2000/svg">
<mask id="path-1-outside-1_2686_120" maskUnits="userSpaceOnUse" x="-0.587891" y="-0.463867" width="52" height="35" fill="black">
<rect fill="white" x="-0.587891" y="-0.463867" width="52" height="35"/>
<path d="M12.189 33.0854C8.21924 33.0854 5.2749 31.7671 3.35596 29.1304C1.45166 26.4937 0.499512 22.5459 0.499512 17.2871C0.499512 11.8232 1.53223 7.66309 3.59766 4.80664C5.66309 1.93555 8.73193 0.5 12.8042 0.5C16.686 0.5 19.5571 1.84033 21.4175 4.521C23.2925 7.20166 24.23 11.2153 24.23 16.562C24.23 19.6821 23.8345 22.4946 23.0435 24.9995C22.2524 27.4897 20.9707 29.46 19.1982 30.9102C17.4404 32.3604 15.104 33.0854 12.189 33.0854ZM12.4087 27.5483C14.064 27.5483 15.2651 26.6401 16.0122 24.8237C16.7739 23.0073 17.1548 20.3267 17.1548 16.7817C17.1548 13.2368 16.7812 10.5635 16.0342 8.76172C15.3018 6.94531 14.1226 6.03711 12.4966 6.03711C10.7681 6.03711 9.51562 6.97461 8.73926 8.84961C7.96289 10.71 7.57471 13.4639 7.57471 17.1113C7.57471 20.5537 7.95557 23.1538 8.71729 24.9116C9.49365 26.6694 10.7241 27.5483 12.4087 27.5483ZM45.9961 31.3716C45.9961 31.811 45.9082 32.1187 45.7324 32.2944C45.5713 32.4556 45.293 32.5361 44.8975 32.5361H40.7666C40.3711 32.5361 40.0854 32.4556 39.9097 32.2944C39.7485 32.1187 39.668 31.811 39.668 31.3716V26.0762H28.1982C27.3193 26.0762 26.7188 25.9297 26.3965 25.6367C26.0889 25.3291 25.9351 24.7139 25.9351 23.791V22.2749C25.9351 21.5864 26.0083 21.0371 26.1548 20.627C26.3159 20.2021 26.6235 19.6602 27.0776 19.001L38.3716 2.74121C38.855 2.03809 39.2798 1.57666 39.646 1.35693C40.0269 1.13721 40.5322 1.02734 41.1621 1.02734H43.8647C44.6558 1.02734 45.2051 1.18848 45.5127 1.51074C45.835 1.81836 45.9961 2.4043 45.9961 3.26855V20.8906H47.3584C47.71 20.8906 47.9736 20.9419 48.1494 21.0444C48.5303 21.2788 48.9258 21.5645 49.3359 21.9014C49.7461 22.2236 50.1782 22.6191 50.6323 23.0879C50.7788 23.249 50.8521 23.3809 50.8521 23.4834C50.8521 23.6006 50.7788 23.7324 50.6323 23.8789C50.1782 24.3477 49.7461 24.7432 49.3359 25.0654C48.9258 25.3877 48.5303 25.6733 48.1494 25.9224C47.9443 26.0249 47.6807 26.0762 47.3584 26.0762H45.9961V31.3716ZM32.1533 20.8906H39.668V9.88232L32.1533 20.8906Z"/>
</mask>
<path d="M3.35596 29.1304L2.95061 29.4231L2.95169 29.4246L3.35596 29.1304ZM3.59766 4.80664L4.00283 5.09962L4.00354 5.09863L3.59766 4.80664ZM21.4175 4.521L21.0067 4.80607L21.0078 4.80758L21.4175 4.521ZM23.0435 24.9995L23.52 25.1509L23.5202 25.1501L23.0435 24.9995ZM19.1982 30.9102L18.8816 30.5232L18.8801 30.5245L19.1982 30.9102ZM16.0122 24.8237L15.5511 24.6304L15.5498 24.6335L16.0122 24.8237ZM16.0342 8.76172L15.5704 8.94871L15.5723 8.95323L16.0342 8.76172ZM8.73926 8.84961L9.20069 9.04218L9.20122 9.04089L8.73926 8.84961ZM8.71729 24.9116L8.2585 25.1104L8.25991 25.1136L8.71729 24.9116ZM12.189 33.0854V32.5854C8.34005 32.5854 5.56422 31.3149 3.76023 28.8362L3.35596 29.1304L2.95169 29.4246C4.98559 32.2193 8.09842 33.5854 12.189 33.5854V33.0854ZM3.35596 29.1304L3.7613 28.8376C1.94605 26.3242 0.999512 22.5003 0.999512 17.2871H0.499512H-0.000488281C-0.000488281 22.5915 0.957274 26.6631 2.95062 29.4231L3.35596 29.1304ZM0.499512 17.2871H0.999512C0.999512 11.8744 2.02456 7.83552 4.00283 5.09961L3.59766 4.80664L3.19248 4.51367C1.03989 7.49065 -0.000488281 11.7721 -0.000488281 17.2871H0.499512ZM3.59766 4.80664L4.00354 5.09863C5.95981 2.37928 8.86487 1 12.8042 1V0.5V0C8.599 0 5.36636 1.49182 3.19177 4.51465L3.59766 4.80664ZM12.8042 0.5V1C16.5577 1 19.2584 2.28681 21.0067 4.80607L21.4175 4.521L21.8283 4.23592C19.8559 1.39386 16.8144 0 12.8042 0V0.5ZM21.4175 4.521L21.0078 4.80758C22.7973 7.36611 23.73 11.2586 23.73 16.562H24.23H24.73C24.73 11.172 23.7876 7.03721 21.8272 4.23442L21.4175 4.521ZM24.23 16.562H23.73C23.73 19.6404 23.3397 22.4009 22.5667 24.8489L23.0435 24.9995L23.5202 25.1501C24.3292 22.5883 24.73 19.7239 24.73 16.562H24.23ZM23.0435 24.9995L22.5669 24.8481C21.801 27.2594 20.5689 29.1427 18.8816 30.5232L19.1982 30.9102L19.5149 31.2971C21.3725 29.7772 22.7039 27.7201 23.52 25.1509L23.0435 24.9995ZM19.1982 30.9102L18.8801 30.5245C17.2344 31.8822 15.0209 32.5854 12.189 32.5854V33.0854V33.5854C15.1871 33.5854 17.6465 32.8385 19.5164 31.2958L19.1982 30.9102ZM12.4087 27.5483V28.0483C13.3338 28.0483 14.1565 27.7923 14.8526 27.266C15.543 26.744 16.0772 25.9802 16.4746 25.0139L16.0122 24.8237L15.5498 24.6335C15.2002 25.4836 14.7602 26.0822 14.2495 26.4684C13.7444 26.8502 13.1389 27.0483 12.4087 27.0483V27.5483ZM16.0122 24.8237L16.4733 25.0171C17.2736 23.1086 17.6548 20.3485 17.6548 16.7817H17.1548H16.6548C16.6548 20.3048 16.2742 22.906 15.5511 24.6304L16.0122 24.8237ZM17.1548 16.7817H17.6548C17.6548 13.216 17.2811 10.4636 16.496 8.57021L16.0342 8.76172L15.5723 8.95323C16.2814 10.6633 16.6548 13.2577 16.6548 16.7817H17.1548ZM16.0342 8.76172L16.4979 8.57473C16.1086 7.60931 15.5846 6.84514 14.9056 6.32213C14.2203 5.79436 13.4091 5.53711 12.4966 5.53711V6.03711V6.53711C13.21 6.53711 13.8014 6.73396 14.2954 7.11439C14.7955 7.49958 15.2273 8.09772 15.5705 8.9487L16.0342 8.76172ZM12.4966 6.03711V5.53711C11.5362 5.53711 10.683 5.79966 9.96124 6.33995C9.24475 6.87627 8.68985 7.66197 8.27729 8.65833L8.73926 8.84961L9.20122 9.04089C9.56504 8.16225 10.0245 7.5417 10.5605 7.14051C11.0911 6.74331 11.7284 6.53711 12.4966 6.53711V6.03711ZM8.73926 8.84961L8.27783 8.65704C7.46309 10.6093 7.07471 13.4426 7.07471 17.1113H7.57471H8.07471C8.07471 13.4852 8.4627 10.8106 9.20069 9.04218L8.73926 8.84961ZM7.57471 17.1113H7.07471C7.07471 20.5762 7.4559 23.2583 8.25851 25.1104L8.71729 24.9116L9.17606 24.7128C8.45523 23.0494 8.07471 20.5312 8.07471 17.1113H7.57471ZM8.71729 24.9116L8.25991 25.1136C8.67465 26.0527 9.22635 26.7921 9.93179 27.296C10.6414 27.8029 11.4746 28.0483 12.4087 28.0483V27.5483V27.0483C11.6582 27.0483 11.0339 26.8543 10.513 26.4823C9.98801 26.1073 9.53629 25.5284 9.17466 24.7096L8.71729 24.9116ZM39.9097 32.2944L39.5411 32.6323L39.5558 32.6483L39.5718 32.663L39.9097 32.2944ZM39.668 26.0762H40.168V25.5762H39.668V26.0762ZM26.3965 25.6367L26.0429 25.9903L26.0513 25.9987L26.0601 26.0067L26.3965 25.6367ZM26.1548 20.627L25.6872 20.4496L25.6839 20.4588L26.1548 20.627ZM27.0776 19.001L26.667 18.7157L26.6659 18.7173L27.0776 19.001ZM38.3716 2.74121L38.7822 3.02645L38.7836 3.02448L38.3716 2.74121ZM39.646 1.35693L39.3961 0.923777L39.3887 0.928186L39.646 1.35693ZM45.5127 1.51074L45.151 1.85598L45.159 1.86439L45.1675 1.87242L45.5127 1.51074ZM45.9961 20.8906H45.4961V21.3906H45.9961V20.8906ZM48.1494 21.0444L48.4115 20.6185L48.4014 20.6125L48.1494 21.0444ZM49.3359 21.9014L49.0185 22.2878L49.027 22.2945L49.3359 21.9014ZM50.6323 23.0879L51.0023 22.7516L50.997 22.7457L50.9914 22.74L50.6323 23.0879ZM50.6323 23.8789L50.2787 23.5253L50.2732 23.531L50.6323 23.8789ZM48.1494 25.9224L48.373 26.3696L48.3989 26.3567L48.423 26.3408L48.1494 25.9224ZM45.9961 26.0762V25.5762H45.4961V26.0762H45.9961ZM32.1533 20.8906L31.7404 20.6087L31.2066 21.3906H32.1533V20.8906ZM39.668 20.8906V21.3906H40.168V20.8906H39.668ZM39.668 9.88232H40.168V8.26302L39.255 9.60043L39.668 9.88232ZM45.9961 31.3716H45.4961C45.4961 31.7722 45.4107 31.9091 45.3789 31.9409L45.7324 32.2944L46.086 32.648C46.4057 32.3282 46.4961 31.8499 46.4961 31.3716H45.9961ZM45.7324 32.2944L45.3789 31.9409C45.3604 31.9593 45.2509 32.0361 44.8975 32.0361V32.5361V33.0361C45.335 33.0361 45.7822 32.9518 46.086 32.648L45.7324 32.2944ZM44.8975 32.5361V32.0361H40.7666V32.5361V33.0361H44.8975V32.5361ZM40.7666 32.5361V32.0361C40.4191 32.0361 40.2868 31.9618 40.2475 31.9259L39.9097 32.2944L39.5718 32.663C39.8841 32.9493 40.3231 33.0361 40.7666 33.0361V32.5361ZM39.9097 32.2944L40.2782 31.9566C40.2488 31.9245 40.168 31.78 40.168 31.3716H39.668H39.168C39.168 31.8421 39.2482 32.3128 39.5411 32.6323L39.9097 32.2944ZM39.668 31.3716H40.168V26.0762H39.668H39.168V31.3716H39.668ZM39.668 26.0762V25.5762H28.1982V26.0762V26.5762H39.668V26.0762ZM28.1982 26.0762V25.5762C27.3358 25.5762 26.9061 25.4243 26.7328 25.2668L26.3965 25.6367L26.0601 26.0067C26.5314 26.4351 27.3029 26.5762 28.1982 26.5762V26.0762ZM26.3965 25.6367L26.75 25.2832C26.6832 25.2163 26.5999 25.0808 26.5355 24.8233C26.4719 24.5688 26.4351 24.2283 26.4351 23.791H25.9351H25.4351C25.4351 24.2766 25.4752 24.7051 25.5653 25.0658C25.6548 25.4236 25.8022 25.7495 26.0429 25.9903L26.3965 25.6367ZM25.9351 23.791H26.4351V22.2749H25.9351H25.4351V23.791H25.9351ZM25.9351 22.2749H26.4351C26.4351 21.6144 26.5063 21.1293 26.6257 20.7951L26.1548 20.627L25.6839 20.4588C25.5103 20.9449 25.4351 21.5584 25.4351 22.2749H25.9351ZM26.1548 20.627L26.6223 20.8043C26.7623 20.4351 27.0436 19.9317 27.4894 19.2846L27.0776 19.001L26.6659 18.7173C26.2034 19.3886 25.8695 19.9692 25.6873 20.4496L26.1548 20.627ZM27.0776 19.001L27.4883 19.2862L38.7822 3.02645L38.3716 2.74121L37.9609 2.45597L26.667 18.7157L27.0776 19.001ZM38.3716 2.74121L38.7836 3.02448C39.259 2.33305 39.6337 1.94744 39.9032 1.78568L39.646 1.35693L39.3887 0.928186C38.9259 1.20588 38.451 1.74312 37.9596 2.45795L38.3716 2.74121ZM39.646 1.35693L39.8959 1.79003C40.1748 1.62908 40.5842 1.52734 41.1621 1.52734V1.02734V0.527344C40.4803 0.527344 39.8789 0.645336 39.3961 0.923841L39.646 1.35693ZM41.1621 1.02734V1.52734H43.8647V1.02734V0.527344H41.1621V1.02734ZM43.8647 1.02734V1.52734C44.6172 1.52734 44.9889 1.68616 45.151 1.85598L45.5127 1.51074L45.8744 1.1655C45.4212 0.690798 44.6943 0.527344 43.8647 0.527344V1.02734ZM45.5127 1.51074L45.1675 1.87242C45.3311 2.02862 45.4961 2.42702 45.4961 3.26855H45.9961H46.4961C46.4961 2.38158 46.3388 1.6081 45.8579 1.14907L45.5127 1.51074ZM45.9961 3.26855H45.4961V20.8906H45.9961H46.4961V3.26855H45.9961ZM45.9961 20.8906V21.3906H47.3584V20.8906V20.3906H45.9961V20.8906ZM47.3584 20.8906V21.3906C47.6777 21.3906 47.8354 21.4401 47.8975 21.4763L48.1494 21.0444L48.4014 20.6125C48.1119 20.4437 47.7422 20.3906 47.3584 20.3906V20.8906ZM48.1494 21.0444L47.8874 21.4703C48.2457 21.6908 48.6228 21.9626 49.0186 22.2877L49.3359 21.9014L49.6533 21.515C49.2288 21.1663 48.8148 20.8668 48.4115 20.6186L48.1494 21.0444ZM49.3359 21.9014L49.027 22.2945C49.4157 22.5999 49.8311 22.9794 50.2732 23.4358L50.6323 23.0879L50.9914 22.74C50.5254 22.2589 50.0765 21.8474 49.6448 21.5082L49.3359 21.9014ZM50.6323 23.0879L50.2624 23.4242C50.3201 23.4877 50.3484 23.5294 50.36 23.5504C50.3654 23.5601 50.3641 23.5597 50.3611 23.5501C50.358 23.5404 50.3521 23.5172 50.3521 23.4834H50.8521H51.3521C51.3521 23.3164 51.294 23.1725 51.2342 23.0648C51.1726 22.954 51.0911 22.8492 51.0023 22.7516L50.6323 23.0879ZM50.8521 23.4834H50.3521C50.3521 23.436 50.3669 23.4149 50.36 23.4273C50.3526 23.4407 50.3305 23.4736 50.2788 23.5254L50.6323 23.8789L50.9859 24.2325C51.1598 24.0585 51.3521 23.8042 51.3521 23.4834H50.8521ZM50.6323 23.8789L50.2732 23.531C49.8311 23.9874 49.4157 24.3669 49.027 24.6723L49.3359 25.0654L49.6448 25.4586C50.0765 25.1194 50.5254 24.7079 50.9914 24.2268L50.6323 23.8789ZM49.3359 25.0654L49.027 24.6723C48.6267 24.9869 48.2429 25.2638 47.8758 25.5039L48.1494 25.9224L48.423 26.3408C48.8176 26.0829 49.2249 25.7885 49.6448 25.4586L49.3359 25.0654ZM48.1494 25.9224L47.9258 25.4752C47.8125 25.5318 47.6326 25.5762 47.3584 25.5762V26.0762V26.5762C47.7288 26.5762 48.0762 26.518 48.373 26.3696L48.1494 25.9224ZM47.3584 26.0762V25.5762H45.9961V26.0762V26.5762H47.3584V26.0762ZM45.9961 26.0762H45.4961V31.3716H45.9961H46.4961V26.0762H45.9961ZM32.1533 20.8906V21.3906H39.668V20.8906V20.3906H32.1533V20.8906ZM39.668 20.8906H40.168V9.88232H39.668H39.168V20.8906H39.668ZM39.668 9.88232L39.255 9.60043L31.7404 20.6087L32.1533 20.8906L32.5663 21.1725L40.0809 10.1642L39.668 9.88232Z" fill="#4E54C8" mask="url(#path-1-outside-1_2686_120)"/>
</svg>
