<svg width="56" height="21" viewBox="0 0 56 21" fill="none" xmlns="http://www.w3.org/2000/svg">
<rect width="56" height="21" fill="#F6F6FE"/>
<path d="M4.98767 16.0625C4.43509 16.0625 4.01395 15.9928 3.72425 15.8533C3.43992 15.7138 3.24678 15.4858 3.14485 15.1693C3.04828 14.8528 3 14.4316 3 13.9059V5.81037C3 5.65479 3.02682 5.53677 3.08047 5.4563C3.32189 5.10222 3.65987 4.72936 4.09442 4.33773C4.1749 4.27335 4.24464 4.24116 4.30365 4.24116C4.36803 4.24116 4.43509 4.27335 4.50483 4.33773C4.74088 4.54159 4.93938 4.73741 5.10033 4.92518C5.26127 5.10758 5.40076 5.28462 5.51878 5.4563C5.57243 5.54213 5.59926 5.66016 5.59926 5.81037V12.9483C5.59926 13.3077 5.66363 13.5652 5.79239 13.7208C5.92115 13.8764 6.16256 13.9542 6.51664 13.9542L8.98714 13.9461C9.1159 13.9461 9.21246 13.9676 9.27684 14.0105C9.41633 14.1071 9.56118 14.2224 9.71139 14.3565C9.86161 14.4907 10.0199 14.6516 10.1862 14.8394C10.2398 14.9091 10.2667 14.9654 10.2667 15.0084C10.2667 15.0566 10.2398 15.1103 10.1862 15.1693C10.0199 15.3571 9.86161 15.518 9.71139 15.6521C9.56118 15.7863 9.41633 15.9016 9.27684 15.9982C9.20173 16.0411 9.10517 16.0625 8.98714 16.0625H4.98767Z" fill="#222222"/>
<path d="M15.6586 16.2557C14.65 16.2557 13.789 16.1242 13.0755 15.8614C12.3673 15.5985 11.8255 15.1371 11.4499 14.4772C11.0797 13.8174 10.8947 12.8919 10.8947 11.7009V5.81037C10.8947 5.65479 10.9215 5.53677 10.9751 5.4563C11.2165 5.10222 11.5545 4.72936 11.9891 4.33773C12.0696 4.27335 12.1393 4.24116 12.1983 4.24116C12.2627 4.24116 12.3297 4.27335 12.3995 4.33773C12.6355 4.54159 12.834 4.73741 12.995 4.92518C13.1559 5.10758 13.2954 5.28462 13.4134 5.4563C13.4671 5.54213 13.4939 5.66016 13.4939 5.81037V11.2986C13.4939 12.0658 13.5744 12.6505 13.7353 13.0529C13.9016 13.4499 14.1457 13.7208 14.4676 13.8657C14.7895 14.0105 15.1865 14.0829 15.6586 14.0829C16.1415 14.0829 16.5438 14.0105 16.8657 13.8657C17.1876 13.7208 17.429 13.4499 17.59 13.0529C17.7509 12.6505 17.8314 12.0658 17.8314 11.2986V5.81037C17.8314 5.65479 17.8582 5.53677 17.9118 5.4563C18.1533 5.10222 18.4912 4.72936 18.9258 4.33773C19.0063 4.27335 19.076 4.24116 19.135 4.24116C19.1994 4.24116 19.2665 4.27335 19.3362 4.33773C19.5723 4.54159 19.7708 4.73741 19.9317 4.92518C20.0926 5.10758 20.2321 5.28462 20.3502 5.4563C20.4038 5.54213 20.4306 5.66016 20.4306 5.81037V11.7009C20.4306 12.8919 20.2268 13.8174 19.819 14.4772C19.4113 15.1371 18.848 15.5985 18.1291 15.8614C17.4156 16.1242 16.5921 16.2557 15.6586 16.2557Z" fill="#222222"/>
<path d="M41.5667 5.15855C41.8618 5.57164 42.1622 6.10544 42.468 6.75995C42.7791 7.4091 43.0796 8.12262 43.3693 8.90052C43.659 9.67842 43.9192 10.4751 44.1499 11.2905C44.3859 12.1006 44.579 12.8812 44.7293 13.6323C44.8795 14.3834 44.9653 15.0513 44.9868 15.6361C44.9921 15.9204 44.8634 16.0626 44.6005 16.0626H42.6531C42.4009 16.0626 42.2695 15.9365 42.2588 15.6843C42.2373 15.0835 42.1407 14.3539 41.9691 13.4955H37.5753C37.4251 14.3324 37.3392 15.062 37.3178 15.6843C37.307 15.9365 37.1702 16.0626 36.9074 16.0626H35.0002C34.9036 16.0626 34.8231 16.0357 34.7587 15.9821C34.6944 15.9231 34.6649 15.8238 34.6702 15.6843C34.697 15.0888 34.7829 14.4129 34.9277 13.6564C35.0779 12.8946 35.2711 12.106 35.5071 11.2905C35.7432 10.4751 36.0061 9.67842 36.2958 8.90052C36.5855 8.11725 36.8859 7.40105 37.1971 6.75191C37.5082 6.10276 37.8113 5.57164 38.1064 5.15855C38.262 4.9386 38.4256 4.77765 38.5973 4.67572C38.7743 4.57379 38.9916 4.52282 39.2491 4.52282H40.4079C40.6708 4.52282 40.8907 4.57379 41.0678 4.67572C41.2448 4.77765 41.4111 4.9386 41.5667 5.15855ZM39.748 7.06575C39.3939 7.62905 39.0694 8.30234 38.7743 9.0856C38.4792 9.86887 38.2244 10.6736 38.0098 11.4998H41.5023C41.277 10.6736 41.0168 9.86887 40.7217 9.0856C40.4267 8.30234 40.1182 7.62905 39.7963 7.06575H39.748Z" fill="#222222"/>
<path d="M49.6706 16.2557C48.9893 16.2557 48.4233 16.194 47.9726 16.0706C47.5273 15.9472 47.1679 15.7943 46.8943 15.6119C46.626 15.4241 46.4195 15.2391 46.2747 15.0567C46.2264 14.9869 46.1835 14.9198 46.1459 14.8555C46.1083 14.7911 46.0815 14.7187 46.0654 14.6382C46.044 14.5309 46.0225 14.3914 46.001 14.2197C45.9796 14.0427 45.9769 13.8388 45.993 13.6081C45.9984 13.5116 46.0171 13.4445 46.0493 13.407C46.0869 13.364 46.1486 13.3319 46.2344 13.3104C46.39 13.2728 46.5912 13.2407 46.838 13.2138C47.0901 13.1816 47.2698 13.1656 47.3771 13.1656C47.4898 13.1656 47.581 13.187 47.6507 13.2299C47.7205 13.2728 47.8036 13.3453 47.9002 13.4472C48.0075 13.5599 48.1926 13.7047 48.4555 13.8818C48.7183 14.0534 49.1234 14.1393 49.6706 14.1393C50.1963 14.1393 50.5933 14.0293 50.8616 13.8093C51.1298 13.5894 51.2639 13.2836 51.2639 12.8919C51.2639 12.6827 51.1996 12.4869 51.0708 12.3045C50.9474 12.1167 50.7194 11.9316 50.3868 11.7492C50.0542 11.5615 49.5794 11.3657 48.9624 11.1618C47.9431 10.8184 47.2081 10.3919 46.7575 9.88228C46.3068 9.37262 46.0815 8.66446 46.0815 7.75781C46.0815 7.00673 46.2639 6.37905 46.6287 5.87476C46.9935 5.37046 47.4978 4.98956 48.1416 4.73205C48.7854 4.47454 49.5284 4.34578 50.3707 4.34578C51.0198 4.34578 51.5563 4.42357 51.9801 4.57915C52.4093 4.72937 52.7419 4.90104 52.978 5.09418C53.2141 5.28194 53.367 5.43484 53.4367 5.55287C53.4796 5.62261 53.5064 5.67626 53.5172 5.71381C53.5333 5.746 53.544 5.7916 53.5494 5.85062C53.5654 6.01692 53.5708 6.20201 53.5654 6.40587C53.5601 6.60974 53.5413 6.84043 53.5091 7.09794C53.493 7.18377 53.4635 7.24279 53.4206 7.27498C53.383 7.3018 53.324 7.31521 53.2436 7.31521C52.7232 7.32594 52.3208 7.29912 52.0365 7.23474C51.9238 7.20792 51.8487 7.18109 51.8111 7.15427C51.7736 7.12744 51.7253 7.08452 51.6663 7.02551C51.5805 6.92358 51.4437 6.80555 51.2559 6.67143C51.0735 6.53195 50.7784 6.46221 50.3707 6.46221C49.8074 6.46221 49.4077 6.59096 49.1717 6.84847C48.9356 7.10062 48.8176 7.38495 48.8176 7.70148C48.8176 8.07702 48.9919 8.37208 49.3406 8.58668C49.6894 8.7959 50.2393 9.03464 50.9903 9.30288C51.618 9.52284 52.1572 9.76157 52.6078 10.0191C53.0585 10.2766 53.4018 10.6065 53.6379 11.0089C53.8793 11.4113 54 11.9424 54 12.6022C54 13.4231 53.8095 14.1044 53.4286 14.6462C53.0531 15.1881 52.5381 15.5931 51.8836 15.8614C51.2344 16.1243 50.4968 16.2557 49.6706 16.2557Z" fill="#222222"/>
<path d="M22.1225 10.1625C22.0963 9.93526 22.1139 9.70394 22.1085 9.47315C22.1063 9.38273 22.1301 9.29338 22.1209 9.20269C22.1379 9.16274 22.1266 9.11955 22.1349 9.0796C22.142 9.04613 22.1398 9.01266 22.1468 8.98054C22.1536 8.9495 22.1522 8.91711 22.1598 8.88796C22.1665 8.86258 22.1628 8.83559 22.1717 8.81373C22.1811 8.79024 22.1754 8.76568 22.1835 8.74517C22.1933 8.71979 22.1865 8.69199 22.1962 8.67094C22.2081 8.64584 22.1962 8.61614 22.2105 8.59779C22.2286 8.57458 22.2035 8.54353 22.2308 8.52599C22.2294 8.50035 22.2391 8.47578 22.2416 8.45149C22.2462 8.40479 22.2645 8.36188 22.271 8.31599C22.2764 8.27712 22.2974 8.24041 22.3034 8.20154C22.3109 8.15377 22.3306 8.11031 22.3417 8.06388C22.3603 7.98668 22.3871 7.91164 22.4138 7.83688C22.4359 7.77452 22.4591 7.71271 22.4823 7.6509C22.508 7.58207 22.5352 7.51378 22.5644 7.4463C22.6208 7.31646 22.6797 7.18771 22.7458 7.06247C22.7698 7.01712 22.7979 6.97393 22.8238 6.92939C22.843 6.89646 22.8621 6.8638 22.8799 6.83033C22.9258 6.74396 22.9828 6.6646 23.0362 6.58308C23.0891 6.50264 23.1445 6.42356 23.2006 6.34528C23.2303 6.30398 23.2632 6.26484 23.2956 6.22543C23.3396 6.17199 23.3877 6.12178 23.4287 6.06591C23.46 6.02353 23.5008 5.9906 23.5329 5.95011C23.6174 5.84295 23.7213 5.75523 23.8152 5.65751C23.8425 5.6289 23.8749 5.60542 23.9048 5.57924C23.9348 5.55305 23.9577 5.51985 23.9945 5.50042C24.0117 5.49151 24.0228 5.471 24.0384 5.45831C24.0992 5.40864 24.1583 5.35709 24.2209 5.30931C24.2628 5.27719 24.3041 5.24372 24.3462 5.21133C24.3999 5.17003 24.4536 5.129 24.51 5.09068C24.5675 5.05154 24.6234 5.01051 24.6822 4.97353C24.7451 4.93385 24.8093 4.89606 24.8722 4.85638C25.0455 4.74679 25.232 4.66204 25.4159 4.57242C25.5171 4.52303 25.6213 4.47795 25.7292 4.44259C25.7865 4.42396 25.8434 4.4021 25.8982 4.37808C25.9714 4.34623 26.0472 4.32193 26.1223 4.29845C26.2146 4.26957 26.3077 4.24177 26.403 4.22098C26.4678 4.20695 26.5306 4.18265 26.5968 4.17267C26.6168 4.14756 26.6489 4.16943 26.6742 4.15134C26.6942 4.13731 26.7282 4.1454 26.7531 4.13623C26.8019 4.11841 26.8567 4.1257 26.9034 4.10033C26.9377 4.10707 26.9695 4.09304 27.0022 4.08764C27.0419 4.08089 27.0832 4.08143 27.121 4.0647C27.1245 4.06308 27.1288 4.06416 27.1328 4.06389C27.1822 4.05984 27.2316 4.05633 27.2808 4.05147C27.3059 4.04904 27.3304 4.04202 27.3553 4.03986C27.3796 4.0377 27.4065 4.0458 27.4281 4.03797C27.4735 4.02151 27.5199 4.03447 27.5642 4.0261C27.6481 4.01017 27.7337 4.02583 27.816 4.01233C27.9151 3.99614 28.0139 3.99803 28.111 4.00585C28.1996 4.01287 28.2881 4.00504 28.3753 4.01692C28.429 4.02421 28.4822 4.02394 28.5356 4.02772C28.5626 4.02961 28.5877 4.04256 28.6163 4.03986C28.6436 4.03743 28.672 4.03447 28.6971 4.05147C28.6984 4.05255 28.7011 4.05147 28.703 4.05174C28.7605 4.05579 28.818 4.0593 28.8755 4.06443C28.8944 4.06605 28.9127 4.07252 28.9316 4.0763C28.9486 4.07954 28.9683 4.06902 28.9824 4.08764C28.9848 4.09061 28.9942 4.0898 28.9999 4.08845C29.0366 4.07954 29.0695 4.09925 29.1049 4.10249C29.1384 4.10545 29.1727 4.11841 29.2053 4.12273C29.2574 4.12975 29.3092 4.14054 29.3594 4.15215C29.4204 4.16619 29.4823 4.17941 29.5433 4.19426C29.6286 4.21504 29.7136 4.23934 29.7978 4.26282C29.9047 4.29278 30.0118 4.3249 30.116 4.36512C30.2111 4.40183 30.3061 4.43854 30.4005 4.47633C30.4848 4.51007 30.5671 4.54705 30.6508 4.58133C30.7714 4.631 30.8869 4.692 31.0019 4.75273C31.1161 4.81292 31.2306 4.87447 31.3374 4.9487C31.3971 4.99026 31.4605 5.0267 31.5202 5.06827C31.5725 5.10471 31.6244 5.14169 31.6762 5.17921C31.7267 5.21565 31.772 5.25857 31.8249 5.29258C31.8597 5.31498 31.8867 5.34899 31.9205 5.37328C31.9588 5.40082 31.9874 5.43996 32.0309 5.46074C32.036 5.46317 32.0395 5.46938 32.0441 5.47343C32.1189 5.54415 32.1939 5.6146 32.2681 5.68559C32.3065 5.7223 32.344 5.75981 32.3807 5.79814C32.4533 5.87399 32.5292 5.94714 32.5958 6.02785C32.6444 6.08669 32.6976 6.14176 32.7416 6.20519C32.774 6.25135 32.8134 6.29372 32.8479 6.33934C32.8844 6.38739 32.9205 6.43516 32.9543 6.4851C33.008 6.56446 33.0609 6.64462 33.1116 6.72587C33.1467 6.78228 33.1807 6.83951 33.2131 6.89781C33.2501 6.96421 33.2876 7.03034 33.3246 7.09648C33.38 7.19554 33.4234 7.30054 33.4706 7.40338C33.5114 7.49245 33.5451 7.58477 33.5813 7.67573C33.6232 7.78127 33.6588 7.88843 33.6958 7.99559C33.713 8.0458 33.7255 8.09762 33.7392 8.14918C33.7524 8.19884 33.7651 8.24878 33.7802 8.29763C33.794 8.3419 33.7997 8.38725 33.8102 8.43179C33.8178 8.46337 33.8234 8.49522 33.8342 8.52626C33.8431 8.55163 33.828 8.58213 33.8485 8.60616C33.8464 8.66338 33.8666 8.71764 33.8758 8.77297C33.8855 8.831 33.8896 8.89093 33.9082 8.94842C33.9201 8.98513 33.9195 9.02616 33.9214 9.0653C33.9228 9.09499 33.9395 9.1209 33.9352 9.15221C33.9314 9.17893 33.9292 9.20782 33.9463 9.23265C33.9473 9.234 33.9465 9.2367 33.9463 9.23859C33.9373 9.32334 33.9597 9.40621 33.9589 9.4907C33.9576 9.64158 33.957 9.79274 33.9592 9.94363C33.9603 10.03 33.9371 10.115 33.9463 10.2017C33.9271 10.2457 33.9409 10.2929 33.9322 10.3369C33.9257 10.3701 33.9238 10.403 33.9211 10.4362C33.9184 10.4692 33.9147 10.5034 33.9074 10.5348C33.8893 10.6136 33.885 10.6946 33.8626 10.7726C33.8539 10.8028 33.8504 10.8371 33.8431 10.8689C33.8361 10.9008 33.8337 10.9337 33.8232 10.9645C33.7954 11.0473 33.7848 11.1351 33.7541 11.2174C33.7416 11.2509 33.7336 11.2873 33.7271 11.3221C33.7128 11.3996 33.6806 11.4706 33.6572 11.5445C33.6323 11.6217 33.6029 11.6976 33.5781 11.7748C33.5673 11.8088 33.5495 11.8404 33.536 11.8736C33.5065 11.947 33.4769 12.0204 33.4418 12.0917C33.3961 12.1848 33.3578 12.2822 33.306 12.3719C33.2364 12.492 33.1762 12.6178 33.0965 12.7325C33.0474 12.8032 33.0053 12.8788 32.9546 12.9487C32.917 13.0002 32.8819 13.0534 32.8444 13.105C32.8064 13.1568 32.7629 13.2043 32.727 13.258C32.7087 13.2855 32.6825 13.308 32.662 13.3349C32.6255 13.3825 32.5796 13.4227 32.5424 13.4696C32.4857 13.5412 32.4166 13.6005 32.3569 13.6686C32.3335 13.6953 32.314 13.7269 32.2862 13.7485C32.1947 13.8195 32.1232 13.9118 32.0355 13.9857C31.9737 14.0378 31.9197 14.0975 31.8595 14.1509C31.8209 14.1852 31.8076 14.2316 31.7931 14.2767C31.7804 14.3158 31.7793 14.358 31.7793 14.3998C31.7801 15.2895 31.7798 16.1789 31.7798 17.0685C31.7798 17.1441 31.7491 17.2067 31.6999 17.2621C31.667 17.299 31.6298 17.3298 31.5825 17.3482C31.5518 17.36 31.5207 17.3676 31.4883 17.3719C31.4802 17.373 31.4719 17.3714 31.4638 17.3722C31.3831 17.3803 31.3115 17.3533 31.2414 17.3179C31.2009 17.2974 31.1598 17.278 31.1175 17.2626C31.0748 17.2472 31.0354 17.2251 30.9917 17.211C30.9382 17.194 30.8894 17.163 30.8378 17.1395C30.7555 17.102 30.6723 17.0661 30.5898 17.0291C30.5347 17.0046 30.4856 16.9665 30.4251 16.9541C30.3862 16.9182 30.3328 16.9109 30.2891 16.8834C30.2445 16.8553 30.1954 16.8345 30.1476 16.8116C30.1017 16.7894 30.055 16.7692 30.0094 16.7462C29.9638 16.7233 29.9182 16.6998 29.8742 16.6742C29.8021 16.6318 29.7244 16.6005 29.6547 16.5532C29.6099 16.5227 29.5546 16.5074 29.5093 16.4774C29.4391 16.4307 29.3627 16.3959 29.292 16.3503C29.225 16.3071 29.1546 16.2685 29.0863 16.2269C29.0061 16.178 28.9276 16.127 28.849 16.0757C28.7686 16.0231 28.6887 15.9699 28.6096 15.9154C28.5553 15.8779 28.5038 15.8366 28.4495 15.7993C28.3837 15.754 28.3264 15.6979 28.2584 15.6555C28.2304 15.6379 28.2115 15.6085 28.1818 15.5899C28.1467 15.5683 28.1173 15.5372 28.0868 15.5089C28.0495 15.4744 27.9507 15.4117 27.8962 15.3926C27.8746 15.385 27.8519 15.3804 27.8293 15.3772C27.7882 15.3718 27.7472 15.3672 27.7059 15.365C27.6651 15.3629 27.6241 15.3661 27.5836 15.3642C27.5464 15.3623 27.5097 15.3548 27.4724 15.3529C27.4338 15.3507 27.3931 15.3596 27.3566 15.3505C27.3169 15.3405 27.2781 15.3405 27.2387 15.3405C27.2149 15.3405 27.196 15.3227 27.1701 15.3267C27.1499 15.3299 27.1291 15.3278 27.1072 15.3175C27.0872 15.3081 27.0581 15.32 27.0349 15.3146C26.9814 15.3024 26.9264 15.3013 26.8737 15.2895C26.8076 15.2746 26.7393 15.2703 26.6751 15.2517C26.6165 15.2349 26.5558 15.2282 26.4977 15.2085C26.461 15.1961 26.4194 15.1909 26.3803 15.1815C26.3266 15.1685 26.2742 15.151 26.221 15.1375C26.1236 15.1127 26.0302 15.0751 25.9344 15.046C25.862 15.0239 25.7911 14.9985 25.722 14.968C25.6874 14.9529 25.6515 14.9402 25.6167 14.927C25.5638 14.907 25.5122 14.8832 25.4599 14.8619C25.4094 14.8414 25.3616 14.8136 25.3117 14.7909C25.2566 14.7661 25.1986 14.7477 25.147 14.7156C25.0858 14.6773 25.0194 14.6484 24.9578 14.6103C24.9076 14.5796 24.856 14.5504 24.8048 14.5215C24.7178 14.4724 24.6355 14.4171 24.5532 14.3617C24.4579 14.298 24.3656 14.2303 24.2754 14.1596C24.2136 14.111 24.1521 14.0624 24.0919 14.0119C24.0104 13.9439 23.9321 13.8729 23.8544 13.8008C23.8195 13.7684 23.7793 13.7404 23.7488 13.7037C23.6816 13.6224 23.6012 13.5541 23.5332 13.4745C23.4797 13.4119 23.4265 13.3484 23.3739 13.2847C23.3326 13.2345 23.2953 13.1805 23.2511 13.1325C23.2222 13.1012 23.1984 13.0653 23.1744 13.0299C23.1096 12.9344 23.0454 12.8388 22.9825 12.7422C22.9355 12.6704 22.8899 12.5978 22.8478 12.5227C22.7766 12.3956 22.705 12.2685 22.6451 12.1354C22.5987 12.0323 22.5517 11.9295 22.511 11.8236C22.4902 11.7697 22.4613 11.717 22.4429 11.6622C22.4024 11.5402 22.3606 11.4188 22.3209 11.2965C22.2985 11.2277 22.2864 11.1559 22.268 11.0857C22.2572 11.0446 22.254 11.0017 22.2405 10.9623C22.227 10.9224 22.2267 10.8803 22.2092 10.8406C22.1962 10.8114 22.1995 10.7753 22.1946 10.7426C22.1916 10.7237 22.1854 10.7054 22.183 10.6865C22.1803 10.6673 22.1784 10.6492 22.1725 10.6298C22.1611 10.5928 22.1628 10.552 22.1579 10.5132C22.1549 10.4902 22.1501 10.4675 22.1457 10.4449C22.1414 10.4222 22.1565 10.396 22.1341 10.376C22.132 10.3742 22.1331 10.3682 22.1336 10.3642C22.143 10.2964 22.1123 10.2324 22.1225 10.1625ZM32.1818 9.42753C32.1831 9.42753 32.1845 9.42726 32.1858 9.42726C32.1812 9.35546 32.1764 9.28393 32.1718 9.21213C32.1715 9.20809 32.1734 9.20188 32.1715 9.20026C32.1499 9.18244 32.1631 9.15842 32.1594 9.13764C32.1556 9.11685 32.1507 9.09634 32.1472 9.07528C32.1421 9.04262 32.1434 9.0078 32.1321 8.9773C32.1059 8.90739 32.0978 8.83316 32.0757 8.76217C32.0554 8.69712 32.0363 8.63153 32.016 8.56621C31.989 8.47956 31.9615 8.39346 31.9278 8.30897C31.89 8.21423 31.8508 8.1203 31.8082 8.02798C31.7637 7.93189 31.7156 7.83741 31.6616 7.74591C31.65 7.72621 31.6411 7.70542 31.6276 7.68653C31.5944 7.63983 31.5631 7.59152 31.5356 7.54131C31.4937 7.46465 31.4403 7.39636 31.3885 7.32699C31.3555 7.28299 31.3153 7.24385 31.2859 7.1977C31.2362 7.1205 31.1712 7.05626 31.1102 6.98986C30.9992 6.8692 30.8818 6.75421 30.7576 6.64651C30.7547 6.64381 30.7522 6.64004 30.749 6.63788C30.6921 6.60333 30.6462 6.55393 30.5911 6.51668C30.5476 6.48753 30.509 6.45217 30.4642 6.42491C30.4084 6.39063 30.3565 6.35014 30.3023 6.31343C30.2092 6.25054 30.1112 6.19574 30.0113 6.14392C29.9206 6.09695 29.8307 6.0489 29.7363 6.00976C29.6631 5.97953 29.5918 5.94498 29.5168 5.91907C29.4561 5.89829 29.3962 5.87588 29.3362 5.85267C29.3109 5.84268 29.2806 5.84106 29.2542 5.82865C29.2266 5.81569 29.1953 5.81515 29.1665 5.80381C29.1405 5.79356 29.1119 5.78546 29.0841 5.78141C29.0382 5.77466 28.9956 5.75604 28.9492 5.75118C28.9203 5.74821 28.8884 5.74713 28.8631 5.73795C28.8155 5.72095 28.7659 5.71609 28.7178 5.70583C28.6555 5.6926 28.5902 5.69044 28.5265 5.67992C28.486 5.67344 28.4444 5.67587 28.4028 5.66831C28.3467 5.65805 28.2884 5.66561 28.2304 5.6567C28.1604 5.64618 28.0878 5.65212 28.0166 5.65481C27.9469 5.65751 27.8768 5.64483 27.8068 5.6648C27.7747 5.67398 27.7375 5.66993 27.7035 5.66534C27.6684 5.66075 27.6381 5.67803 27.6044 5.67911C27.5528 5.681 27.5016 5.68667 27.4503 5.69071C27.4481 5.69098 27.446 5.69017 27.4441 5.69071C27.3882 5.71339 27.3261 5.70583 27.2692 5.72607C27.2387 5.73687 27.2022 5.73093 27.1712 5.74092C27.1461 5.74902 27.1199 5.74551 27.0969 5.75388C27 5.78816 26.8988 5.80705 26.8003 5.83485C26.6869 5.8667 26.5779 5.90962 26.4675 5.94849C26.393 5.97467 26.3196 6.00545 26.248 6.03946C26.1541 6.08399 26.0626 6.13393 25.9703 6.18171C25.9112 6.21221 25.8553 6.24919 25.7983 6.2832C25.6993 6.34258 25.6054 6.41141 25.513 6.48105C25.4221 6.54988 25.3338 6.62249 25.2477 6.69726C25.1854 6.75124 25.133 6.81576 25.0666 6.86623C25.0469 6.88108 25.0364 6.90753 25.018 6.92507C24.9179 7.02009 24.8304 7.12617 24.7451 7.23441C24.7027 7.28812 24.6641 7.34454 24.6212 7.39798C24.5829 7.44549 24.5559 7.5019 24.52 7.5513C24.4838 7.60096 24.4595 7.65792 24.4234 7.70758C24.4034 7.73484 24.3891 7.7667 24.374 7.7972C24.3151 7.91542 24.2528 8.03203 24.2045 8.15539C24.1742 8.23258 24.1437 8.30978 24.1156 8.38806C24.1003 8.43098 24.09 8.47551 24.0741 8.51762C24.0285 8.6372 24.0061 8.76271 23.9718 8.88499C23.9537 8.94923 23.9467 9.01752 23.9356 9.08392C23.9256 9.1433 23.9189 9.2035 23.9097 9.26315C23.9043 9.29797 23.9086 9.33279 23.8989 9.36869C23.8895 9.40297 23.8984 9.44157 23.8965 9.47828C23.8943 9.51553 23.8843 9.55251 23.8854 9.58949C23.8886 9.6899 23.8743 9.79031 23.8957 9.89072C23.9062 9.94066 23.8908 9.99329 23.9078 10.0448C23.92 10.0821 23.9016 10.1231 23.9173 10.1633C23.9313 10.1992 23.9208 10.2403 23.9316 10.2797C23.9469 10.3356 23.9459 10.3957 23.9596 10.4522C23.9653 10.4754 23.9602 10.5045 23.9723 10.5191C23.9891 10.5388 23.9742 10.5615 23.9907 10.5804C24.0044 10.5966 23.9904 10.6249 24.0055 10.6473C24.0163 10.6635 24.0139 10.6883 24.0193 10.7086C24.0355 10.7691 24.0622 10.8265 24.07 10.8894C24.1148 10.9672 24.1278 11.0568 24.1642 11.1383C24.1934 11.2034 24.2177 11.2711 24.2479 11.3362C24.2765 11.3977 24.3024 11.4606 24.337 11.5197C24.3742 11.5834 24.4053 11.6509 24.4431 11.7143C24.483 11.7818 24.5267 11.8474 24.5705 11.9124C24.6029 11.9608 24.6388 12.0064 24.6717 12.0544C24.6995 12.0949 24.7332 12.1311 24.7613 12.1708C24.8023 12.2285 24.8496 12.2806 24.8938 12.3354C24.9403 12.3932 24.9994 12.4399 25.0453 12.4993C25.0679 12.5284 25.103 12.5476 25.1297 12.574C25.2083 12.6512 25.2868 12.7279 25.3743 12.7959C25.4361 12.844 25.4958 12.8952 25.5595 12.9417C25.6143 12.9813 25.6685 13.0218 25.7255 13.058C25.7754 13.0896 25.8261 13.1198 25.8761 13.1511C25.9522 13.1986 26.0313 13.2402 26.1093 13.2837C26.2216 13.3466 26.3406 13.3949 26.4578 13.4475C26.5074 13.4699 26.5603 13.4856 26.6116 13.5045C26.6648 13.5239 26.7177 13.5444 26.7712 13.5625C26.8556 13.5911 26.9434 13.6092 27.0287 13.6354C27.06 13.6448 27.0953 13.6408 27.1272 13.6494C27.1604 13.6583 27.1947 13.6618 27.2281 13.6707C27.2554 13.678 27.2856 13.6796 27.3145 13.684C27.3453 13.6885 27.3766 13.6912 27.4074 13.6953C27.4846 13.7053 27.5628 13.705 27.6408 13.7096C27.6943 13.7128 27.7494 13.7109 27.8004 13.7242C27.8293 13.7317 27.8584 13.7288 27.8862 13.7374C27.9154 13.7466 27.9456 13.7528 27.975 13.7598C28.0241 13.7717 28.0716 13.7922 28.1183 13.8119C28.141 13.8213 28.161 13.837 28.182 13.8502C28.2047 13.8645 28.2287 13.8772 28.2495 13.894C28.2822 13.9199 28.3165 13.9452 28.3435 13.9766C28.3937 14.034 28.4379 14.0969 28.4876 14.155C28.5316 14.2071 28.5775 14.2578 28.6261 14.3056C28.6922 14.3706 28.7535 14.4403 28.8274 14.4975C28.8844 14.5415 28.9346 14.5947 28.9875 14.6438C28.9934 14.6495 28.9983 14.6565 29.005 14.6608C29.0609 14.6972 29.1084 14.7439 29.1624 14.7825C29.2069 14.8144 29.2474 14.8522 29.292 14.884C29.364 14.9353 29.4388 14.9831 29.5117 15.0333C29.6188 15.107 29.7319 15.1712 29.8429 15.239C29.8815 15.2627 29.9276 15.2754 29.9627 15.3027C30.0075 15.3375 30.0604 15.3542 30.1077 15.3829C30.1546 15.4112 30.2046 15.4341 30.2532 15.4598C30.2599 15.4633 30.2656 15.469 30.2726 15.4717C30.2874 15.4771 30.299 15.4687 30.2996 15.4528C30.2999 15.4385 30.2996 15.4242 30.2996 15.4098C30.2996 14.8568 30.2993 14.304 30.3001 13.7509C30.3001 13.7118 30.2896 13.6707 30.312 13.6335C30.3112 13.5668 30.3336 13.5045 30.3471 13.4402C30.3673 13.3444 30.4254 13.2316 30.4777 13.1449C30.532 13.055 30.6049 12.98 30.6734 12.902C30.7128 12.8572 30.7639 12.8226 30.8054 12.7794C30.9037 12.6774 31.0125 12.5856 31.1007 12.4739C31.139 12.4253 31.1841 12.3818 31.2254 12.3357C31.2505 12.3076 31.2786 12.2812 31.2983 12.2496C31.3426 12.1791 31.3949 12.1141 31.4441 12.0477C31.5083 11.9605 31.5623 11.8674 31.6203 11.7769C31.6721 11.696 31.7132 11.6077 31.7577 11.5219C31.7726 11.4935 31.7836 11.4633 31.7971 11.4341C31.8112 11.4034 31.829 11.3737 31.8395 11.3416C31.8508 11.3073 31.8813 11.2808 31.8792 11.2417C31.9275 11.1469 31.9634 11.0476 31.9896 10.9445C31.9942 10.9267 32.012 10.9105 32.0123 10.8932C32.0128 10.8514 32.0438 10.8176 32.0395 10.7755C32.0765 10.687 32.0892 10.5917 32.1116 10.4994C32.1151 10.4846 32.121 10.4702 32.1235 10.4554C32.1259 10.4397 32.1224 10.4225 32.1267 10.4076C32.138 10.3685 32.1488 10.3293 32.1483 10.288C32.1483 10.28 32.1448 10.2678 32.1488 10.2643C32.1691 10.2457 32.1569 10.2222 32.1607 10.2014C32.1642 10.1806 32.1702 10.1601 32.1726 10.1391C32.1764 10.104 32.1645 10.067 32.1853 10.0341C32.181 9.96171 32.192 9.89045 32.1966 9.81865C32.2007 9.7536 32.1993 9.68801 32.1969 9.62296C32.1931 9.55872 32.1866 9.49312 32.1818 9.42753Z" fill="#222222"/>
</svg>
