<svg width="34" height="26" viewBox="0 0 34 26" fill="none" xmlns="http://www.w3.org/2000/svg">
<path d="M33.1956 23.8778C32.7261 24.9907 31.8614 25.3987 30.6878 25.374C28.4024 25.3369 26.117 25.374 23.844 25.3616C22.2751 25.3616 21.4722 24.5702 21.4722 22.9998C21.4598 18.066 21.4598 13.1198 21.4722 8.18597C21.4722 6.62792 22.2998 5.82417 23.844 5.82417C26.1294 5.82417 28.4148 5.8489 30.6878 5.8118C31.8614 5.79944 32.7261 6.19513 33.1956 7.30803C33.1956 12.823 33.1956 18.3504 33.1956 23.8778ZM27.4018 20.5391C27.0312 20.5391 26.6606 20.5267 26.29 20.5391C25.8329 20.5638 25.5611 20.8482 25.4747 21.2563C25.3758 21.6891 25.6106 22.0724 26.0059 22.1961C26.883 22.4681 27.7848 22.4681 28.6742 22.2208C29.1313 22.0971 29.2795 21.6891 29.2054 21.2316C29.1313 20.7864 28.8225 20.5638 28.3901 20.5391C28.0565 20.5267 27.723 20.5391 27.4018 20.5391ZM27.3153 10.6343C27.8589 10.6467 28.2295 10.3128 28.2418 9.79349C28.2542 9.27414 27.8836 8.86608 27.3895 8.85371C26.9077 8.84135 26.4629 9.24941 26.4382 9.71929C26.4135 10.1892 26.8335 10.622 27.3153 10.6343Z" fill="#4E54C8"/>
<path d="M10.8004 19.5375C8.11971 19.5375 5.45137 19.5375 2.77067 19.5375C2.01711 19.5375 1.94299 19.4756 1.94299 18.7337C1.94299 13.5649 1.93064 8.39616 1.94299 3.21502C1.94299 1.26128 3.22775 0 5.16724 0C12.7893 0 20.4114 0 28.0211 0C30.0594 0 31.2453 1.22418 31.2577 3.22739C31.2577 3.84566 31.023 3.99405 30.4547 3.98168C28.2682 3.95695 26.094 3.96932 23.9074 3.96932C21.202 3.96932 19.6331 5.56447 19.6208 8.28487C19.6208 11.7472 19.6208 15.2095 19.6208 18.6719C19.6208 19.5127 19.6084 19.5251 18.756 19.5251C16.1124 19.5375 13.4564 19.5375 10.8004 19.5375Z" fill="#4E54C8"/>
<path d="M10.0956 21.3803C13.011 21.3803 15.9388 21.3927 18.8542 21.3679C19.4348 21.3679 19.6695 21.5287 19.6448 22.1346C19.5954 23.0867 19.5954 24.0265 20.0031 24.9292C20.1143 25.1765 20.0278 25.3249 19.7437 25.3496C19.5954 25.362 19.4595 25.362 19.3113 25.362C13.6781 25.362 8.04495 25.362 2.39943 25.362C1.7694 25.362 1.16408 25.2754 0.682299 24.8055C0.0893338 24.2491 -0.207149 22.6292 0.163455 21.912C0.410523 21.4421 0.83054 21.3679 1.31232 21.3679C4.25244 21.3803 7.16785 21.3803 10.0956 21.3803Z" fill="#4E54C8"/>
</svg>
