<svg width="29" height="31" viewBox="0 0 29 31" fill="none" xmlns="http://www.w3.org/2000/svg">
<path d="M8.65214 5.00047C6.83834 6.04766 5.51483 7.7725 4.97276 9.79553C4.43069 11.8186 4.71447 13.9741 5.76166 15.7879L8.84147 21.1222L8.64393 24.2758C8.62401 24.6603 8.70779 25.0431 8.88651 25.3841C9.06523 25.7251 9.33232 26.0118 9.65983 26.2142C9.98734 26.4166 10.3632 26.5272 10.7482 26.5346C11.1331 26.5419 11.5129 26.4456 11.8479 26.2558L25.4619 18.3957C25.7969 18.2009 26.0728 17.9191 26.2606 17.5802C26.4484 17.2412 26.541 16.8578 26.5287 16.4706C26.5163 16.0833 26.3994 15.7066 26.1904 15.3803C25.9813 15.0541 25.688 14.7904 25.3413 14.6174L22.5193 13.2253L19.4395 7.89094C18.3923 6.07714 16.6675 4.75363 14.6445 4.21156C12.6214 3.66949 10.4659 3.95327 8.65214 5.00047Z" fill="#4E54C8"/>
<path d="M20.2324 25.0617C20.7972 24.7348 21.2469 24.2409 21.5196 23.6481C21.7924 23.0552 21.8748 22.3924 21.7555 21.7508L16.6035 24.7253C17.0995 25.1494 17.7147 25.4094 18.3646 25.4696C19.0144 25.5299 19.6669 25.3874 20.2324 25.0617Z" fill="#4E54C8"/>
</svg>
