<svg width="37" height="27" viewBox="0 0 37 27" fill="none" xmlns="http://www.w3.org/2000/svg">
<path d="M25.3969 24.8449H21.176V23.1777H15.4088V24.8449H11.1879C10.5923 24.8449 10.1094 25.3277 10.1094 25.9234C10.1094 26.519 10.5922 27.0019 11.1879 27.0019H25.3969C25.9925 27.0019 26.4754 26.5191 26.4754 25.9234C26.4754 25.3278 25.9926 24.8449 25.3969 24.8449Z" fill="#4E54C8"/>
<path d="M35.3428 0C36.0294 1.76648e-05 36.5859 0.556598 36.5859 1.24316V19.7773C36.5858 20.4639 36.0293 21.0205 35.3428 21.0205H1.24316C0.556644 21.0204 9.20892e-05 20.4639 0 19.7773V1.24316C6.33105e-05 0.556626 0.556626 6.35314e-05 1.24316 0H35.3428ZM3.63477 11.6084C3.10732 11.6086 2.67989 12.036 2.67969 12.5635V17.8779C2.67969 18.4055 3.10719 18.8338 3.63477 18.834H19.2344C19.7619 18.8338 20.1895 18.4055 20.1895 17.8779V12.5635C20.1892 12.036 19.7618 11.6086 19.2344 11.6084H3.63477ZM23.3682 11.6084C22.8406 11.6084 22.4123 12.0359 22.4121 12.5635V17.8789C22.4124 18.4064 22.8406 18.834 23.3682 18.834H33.3115C33.8389 18.8337 34.2664 18.4063 34.2666 17.8789V12.5635C34.2664 12.0361 33.8389 11.6086 33.3115 11.6084H23.3682ZM3.63477 2.1875C3.10725 2.18775 2.67969 2.615 2.67969 3.14258V8.45703C2.67969 8.98461 3.10725 9.41284 3.63477 9.41309H13.5781C14.1059 9.41309 14.5342 8.98476 14.5342 8.45703V3.14258C14.5342 2.61485 14.1059 2.1875 13.5781 2.1875H3.63477ZM17.7119 2.18652C17.1842 2.18652 16.7559 2.61485 16.7559 3.14258V8.45703C16.7559 8.98468 17.1842 9.41211 17.7119 9.41211H33.3105C33.8382 9.41209 34.2655 8.98467 34.2656 8.45703V3.14258C34.2656 2.61487 33.8383 2.18655 33.3105 2.18652H17.7119Z" fill="#4E54C8"/>
</svg>
