<svg width="37" height="37" viewBox="0 0 37 37" fill="none" xmlns="http://www.w3.org/2000/svg">
<g clip-path="url(#clip0_2686_162)">
<path d="M18.4318 11.0594C20.8179 11.0594 22.7523 9.12506 22.7523 6.73893C22.7523 4.3528 20.8179 2.41846 18.4318 2.41846C16.0457 2.41846 14.1113 4.3528 14.1113 6.73893C14.1113 9.12506 16.0457 11.0594 18.4318 11.0594Z" fill="#4E54C8"/>
<path d="M33.557 18.6255L29.5303 17.7856C28.1584 17.4982 26.804 18.127 26.0879 19.2448C25.3925 18.8876 24.6446 18.5795 23.8491 18.3239V15.9294C23.8507 14.1177 22.3676 12.6362 20.5623 12.6362H16.4451C14.6302 12.6362 13.1535 14.1177 13.1535 15.9294V18.3365C12.366 18.5874 11.626 18.8955 10.9258 19.2543C10.2097 18.1317 8.85367 17.4982 7.48018 17.7856L3.45024 18.6255C1.68139 18.9955 0.533364 20.7501 0.903328 22.5252L1.91481 27.357C2.28161 29.1274 4.03772 30.2754 5.80819 29.9055L7.0832 29.6387C7.72147 30.5819 8.60435 31.4472 9.73485 32.1872C12.0896 33.7305 15.2002 34.5816 18.5012 34.5816C23.5521 34.5816 27.9028 32.5508 29.9066 29.6339L31.2023 29.9055C32.9712 30.2738 34.7273 29.1274 35.0941 27.357L36.1071 22.5252C36.4754 20.7501 35.3274 18.9955 33.557 18.6255ZM18.4996 32.9319C15.5177 32.9319 12.7231 32.1808 10.6383 30.8073C9.92374 30.3405 9.33147 29.8213 8.85676 29.2656L9.83327 29.0607C11.6053 28.6924 12.7533 26.9378 12.3833 25.1658L11.4767 20.8215C12.0054 20.5372 12.5612 20.2879 13.1518 20.0752V20.8675C13.1518 22.6761 14.6317 24.1575 16.4434 24.1575H20.5606C22.3676 24.1575 23.8475 22.6745 23.8475 20.8675V20.0339C24.4492 20.2483 25.0145 20.4944 25.5385 20.7738L24.6191 25.1674C24.2523 26.9394 25.3987 28.694 27.1707 29.0623L28.1568 29.2687C26.3181 31.4457 22.6804 32.9319 18.4996 32.9319Z" fill="#4E54C8"/>
<path d="M32.6799 16.7391C35.066 16.7391 37.0003 14.8048 37.0003 12.4186C37.0003 10.0325 35.066 8.09814 32.6799 8.09814C30.2937 8.09814 28.3594 10.0325 28.3594 12.4186C28.3594 14.8048 30.2937 16.7391 32.6799 16.7391Z" fill="#4E54C8"/>
<path d="M5.20694 16.6486C7.54421 16.1596 9.0368 13.8684 8.55407 11.5327C8.06184 9.19856 5.77536 7.69963 3.43647 8.1887C1.10236 8.67614 -0.39656 10.9658 0.0925056 13.3015C0.580026 15.6388 2.86967 17.1362 5.20694 16.6486Z" fill="#4E54C8"/>
</g>
<defs>
<clipPath id="clip0_2686_162">
<rect width="37" height="37" fill="white"/>
</clipPath>
</defs>
</svg>
