<svg width="72" height="69" viewBox="0 0 72 69" fill="none" xmlns="http://www.w3.org/2000/svg">
<path d="M34.6228 0.00216253C34.6507 0.00144312 34.6777 0.00071941 34.7055 0C43.7917 0.0636678 52.5001 3.64237 59.0054 9.98577C65.525 16.331 69.2219 25.0061 69.4899 34.0778C69.534 35.5391 68.8325 36.9635 67.1806 36.8961C66.9189 36.8844 66.6617 36.8251 66.4207 36.7216C64.6141 35.9447 65.0439 34.0238 64.9118 32.3503C64.3074 25.5393 61.4271 19.1312 56.7348 14.1584C51.0631 8.16368 43.2197 4.7017 34.9681 4.55179C34.1516 4.54766 33.336 4.57761 32.5221 4.64155C19.4767 5.75159 8.5835 15.0387 5.42413 27.7443C5.03843 29.3603 4.7647 31.0005 4.6049 32.6543C4.45805 34.2729 4.84743 36.7999 2.34685 36.8988C-0.936356 37.0292 0.0876383 32.0796 0.392848 30.0023C1.42466 22.694 4.75508 15.9044 9.90209 10.6152C16.3784 3.89498 25.2903 0.0690676 34.6228 0.00216253Z" fill="#D4A95F"/>
<path d="M33.2512 9.70596C34.1297 9.64526 35.011 9.63627 35.8905 9.67907C42.5639 10.0084 48.839 12.9568 53.3515 17.884C56.8307 21.6951 59.0492 26.4873 59.7038 31.6059C59.8324 32.6086 59.9314 33.542 59.908 34.5572C59.8756 35.9295 58.8343 37.0446 57.4035 36.8701C56.6005 36.7748 55.9135 36.2488 55.6131 35.4979C55.3433 34.8099 55.4324 33.3127 55.3271 32.4251C54.9018 28.8263 53.5178 25.4073 51.3191 22.526C47.5809 17.5567 42.6682 15.133 36.6297 14.2752C34.3231 14.0689 31.9973 14.2656 29.7575 14.8565C21.9581 16.8454 15.9991 23.1438 14.4452 31.042C14.0368 33.0699 14.7222 36.3998 12.2331 36.8306C10.8741 37.0653 9.61864 36.0024 9.63293 34.6283C9.77097 21.3048 20.0222 10.6493 33.2512 9.70596Z" fill="#4E54C8"/>
<path d="M33.3367 19.3262C34.262 19.23 35.7638 19.2822 36.6693 19.3991C40.8203 19.9368 44.5864 22.105 47.1358 25.4241C49.1385 28.0482 50.4757 31.5886 50.2743 34.9231C50.205 36.084 48.8085 37.1469 47.6682 36.8619C45.2834 36.2647 46.0306 33.9249 45.5208 32.1488C44.2555 27.7352 40.8761 24.7785 36.3825 23.9997C30.5673 23.3477 25.392 26.72 24.0546 32.5535C23.8297 33.5346 23.8968 35.1164 23.3792 35.9131C23.068 36.3843 22.5823 36.7117 22.0292 36.825C20.7558 37.0903 19.3025 36.1676 19.297 34.8277C19.2633 26.5869 25.3912 20.3406 33.3367 19.3262Z" fill="#4E54C8"/>
<path d="M34.2913 31.2503C36.1024 30.9562 37.8111 32.1792 38.1159 33.9886C38.4208 35.797 37.2077 37.5128 35.4001 37.8285C33.5782 38.1468 31.8446 36.9211 31.5372 35.0974C31.2296 33.2728 32.4656 31.547 34.2913 31.2503Z" fill="#4E54C8"/>
<path d="M4.3611 62.1197C3.62532 62.1197 3.06455 62.0268 2.67881 61.8411C2.3002 61.6553 2.04304 61.3517 1.90731 60.9303C1.77873 60.5088 1.71444 59.948 1.71444 59.248V48.4685C1.71444 48.2613 1.75015 48.1041 1.82159 47.997C2.14305 47.5255 2.59308 47.0291 3.17171 46.5076C3.27886 46.4219 3.37172 46.379 3.4503 46.379C3.53602 46.379 3.62532 46.4219 3.71818 46.5076C4.0325 46.779 4.29681 47.0398 4.51111 47.2898C4.72541 47.5327 4.91115 47.7684 5.0683 47.997C5.13974 48.1113 5.17545 48.2684 5.17545 48.4685V57.9729C5.17545 58.4515 5.26118 58.7944 5.43262 59.0015C5.60406 59.2087 5.92552 59.3123 6.39699 59.3123L9.68656 59.3016C9.85801 59.3016 9.98659 59.3301 10.0723 59.3873C10.258 59.5159 10.4509 59.6694 10.6509 59.848C10.851 60.0266 11.0617 60.2409 11.2831 60.4909C11.3546 60.5838 11.3903 60.6588 11.3903 60.716C11.3903 60.7803 11.3546 60.8517 11.2831 60.9303C11.0617 61.1803 10.851 61.3946 10.6509 61.5732C10.4509 61.7518 10.258 61.9054 10.0723 62.0339C9.9723 62.0911 9.84372 62.1197 9.68656 62.1197H4.3611ZM18.5699 62.3768C17.2269 62.3768 16.0804 62.2018 15.1303 61.8518C14.1874 61.5018 13.4659 60.8874 12.9659 60.0088C12.473 59.1301 12.2265 57.8979 12.2265 56.312V48.4685C12.2265 48.2613 12.2622 48.1041 12.3337 47.997C12.6551 47.5255 13.1052 47.0291 13.6838 46.5076C13.7909 46.4219 13.8838 46.379 13.9624 46.379C14.0481 46.379 14.1374 46.4219 14.2302 46.5076C14.5446 46.779 14.8089 47.0398 15.0232 47.2898C15.2375 47.5327 15.4232 47.7684 15.5804 47.997C15.6518 48.1113 15.6875 48.2684 15.6875 48.4685V55.7762C15.6875 56.7978 15.7947 57.5764 16.009 58.1122C16.2304 58.6408 16.5555 59.0015 16.9841 59.1944C17.4127 59.3873 17.9413 59.4837 18.5699 59.4837C19.2128 59.4837 19.7486 59.3873 20.1772 59.1944C20.6058 59.0015 20.9273 58.6408 21.1416 58.1122C21.3559 57.5764 21.463 56.7978 21.463 55.7762V48.4685C21.463 48.2613 21.4987 48.1041 21.5702 47.997C21.8916 47.5255 22.3417 47.0291 22.9203 46.5076C23.0275 46.4219 23.1203 46.379 23.1989 46.379C23.2846 46.379 23.3739 46.4219 23.4668 46.5076C23.7811 46.779 24.0454 47.0398 24.2597 47.2898C24.474 47.5327 24.6597 47.7684 24.8169 47.997C24.8883 48.1113 24.924 48.2684 24.924 48.4685V56.312C24.924 57.8979 24.6526 59.1301 24.1097 60.0088C23.5668 60.8874 22.8167 61.5018 21.8595 61.8518C20.9094 62.2018 19.8129 62.3768 18.5699 62.3768Z" fill="#2B2B2B"/>
<path d="M53.0667 47.6005C53.4596 48.1506 53.8596 48.8614 54.2668 49.7329C54.6811 50.5972 55.0811 51.5473 55.4669 52.5831C55.8526 53.6189 56.1991 54.6797 56.5063 55.7655C56.8206 56.8442 57.0777 57.8836 57.2778 58.8837C57.4778 59.8838 57.5921 60.7731 57.6206 61.5518C57.6278 61.9304 57.4563 62.1197 57.1063 62.1197H54.5132C54.1775 62.1197 54.0025 61.9518 53.9882 61.6161C53.9596 60.816 53.831 59.8445 53.6024 58.7015H47.7519C47.5519 59.8159 47.4376 60.7874 47.409 61.6161C47.3947 61.9518 47.2126 62.1197 46.8626 62.1197H44.323C44.1945 62.1197 44.0873 62.084 44.0016 62.0125C43.9159 61.9339 43.8766 61.8018 43.8837 61.6161C43.9194 60.8231 44.0337 59.9231 44.2266 58.9158C44.4266 57.9014 44.6838 56.8514 44.9981 55.7655C45.3124 54.6797 45.6624 53.6189 46.0482 52.5831C46.4339 51.5402 46.834 50.5865 47.2483 49.7222C47.6626 48.8578 48.0662 48.1506 48.4591 47.6005C48.6663 47.3077 48.8842 47.0934 49.1128 46.9576C49.3485 46.8219 49.6378 46.754 49.9807 46.754H51.5237C51.8737 46.754 52.1666 46.8219 52.4023 46.9576C52.6381 47.0934 52.8595 47.3077 53.0667 47.6005ZM50.645 50.1401C50.1736 50.8901 49.7414 51.7866 49.3485 52.8296C48.9556 53.8725 48.6163 54.944 48.3305 56.0441H52.9809C52.6809 54.944 52.3345 53.8725 51.9416 52.8296C51.5487 51.7866 51.1379 50.8901 50.7093 50.1401H50.645ZM63.8573 62.3768C62.9501 62.3768 62.1965 62.2947 61.5964 62.1304C61.0035 61.9661 60.5249 61.7625 60.1606 61.5196C59.8034 61.2696 59.5284 61.0232 59.3355 60.7803C59.2712 60.6874 59.2141 60.5981 59.1641 60.5124C59.1141 60.4267 59.0783 60.3302 59.0569 60.2231C59.0283 60.0802 58.9998 59.8945 58.9712 59.6659C58.9426 59.4302 58.939 59.1587 58.9605 58.8515C58.9676 58.7229 58.9926 58.6337 59.0355 58.5837C59.0855 58.5265 59.1676 58.4836 59.2819 58.4551C59.4891 58.4051 59.757 58.3622 60.0856 58.3265C60.4213 58.2836 60.6606 58.2622 60.8035 58.2622C60.9535 58.2622 61.0749 58.2908 61.1678 58.3479C61.2607 58.4051 61.3714 58.5015 61.5 58.6372C61.6429 58.7872 61.8893 58.9801 62.2393 59.2159C62.5894 59.4444 63.1287 59.5587 63.8573 59.5587C64.5574 59.5587 65.086 59.4123 65.4432 59.1194C65.8004 58.8265 65.9789 58.4194 65.9789 57.8979C65.9789 57.6193 65.8932 57.3585 65.7218 57.1157C65.5575 56.8656 65.2539 56.6192 64.811 56.3763C64.3681 56.1263 63.7359 55.8656 62.9144 55.5941C61.5571 55.1369 60.5785 54.569 59.9784 53.8904C59.3784 53.2118 59.0783 52.2688 59.0783 51.0616C59.0783 50.0615 59.3212 49.2257 59.807 48.5542C60.2927 47.8827 60.9642 47.3755 61.8214 47.0326C62.6787 46.6898 63.668 46.5183 64.7896 46.5183C65.6539 46.5183 66.3683 46.6219 66.9326 46.829C67.5041 47.0291 67.947 47.2577 68.2613 47.5148C68.5756 47.7648 68.7792 47.9684 68.8721 48.1256C68.9292 48.2185 68.9649 48.2899 68.9792 48.3399C69.0006 48.3828 69.0149 48.4435 69.0221 48.5221C69.0435 48.7435 69.0506 48.99 69.0435 49.2614C69.0364 49.5329 69.0114 49.84 68.9685 50.1829C68.9471 50.2972 68.9078 50.3758 68.8506 50.4186C68.8006 50.4544 68.722 50.4722 68.6149 50.4722C67.922 50.4865 67.3862 50.4508 67.0076 50.3651C66.8576 50.3294 66.7576 50.2936 66.7076 50.2579C66.6576 50.2222 66.5933 50.1651 66.5147 50.0865C66.4004 49.9508 66.2183 49.7936 65.9682 49.615C65.7254 49.4293 65.3325 49.3364 64.7896 49.3364C64.0395 49.3364 63.5073 49.5079 63.193 49.8507C62.8787 50.1865 62.7215 50.5651 62.7215 50.9866C62.7215 51.4866 62.9537 51.8795 63.418 52.1652C63.8823 52.4438 64.6145 52.7617 65.6146 53.1189C66.4504 53.4118 67.1683 53.7297 67.7684 54.0725C68.3684 54.4154 68.8256 54.8548 69.1399 55.3905C69.4614 55.9263 69.6221 56.6335 69.6221 57.5121C69.6221 58.6051 69.3685 59.5123 68.8613 60.2338C68.3613 60.9553 67.6755 61.4946 66.804 61.8518C65.9397 62.2018 64.9574 62.3768 63.8573 62.3768Z" fill="#2B2B2B"/>
<g clip-path="url(#clip0_2686_56)">
<path d="M27.176 54.2194C27.1412 53.9168 27.1645 53.6088 27.1574 53.3015C27.1545 53.1811 27.1861 53.0621 27.1739 52.9414C27.1965 52.8882 27.1814 52.8307 27.1926 52.7775C27.2019 52.7329 27.199 52.6883 27.2084 52.6456C27.2174 52.6042 27.2156 52.5611 27.2256 52.5223C27.2346 52.4885 27.2296 52.4526 27.2415 52.4235C27.254 52.3922 27.2465 52.3595 27.2573 52.3322C27.2702 52.2984 27.2612 52.2614 27.2742 52.2333C27.29 52.1999 27.2742 52.1604 27.2932 52.1359C27.3173 52.105 27.2839 52.0637 27.3202 52.0403C27.3184 52.0062 27.3313 51.9735 27.3345 51.9411C27.3407 51.8789 27.3651 51.8218 27.3737 51.7607C27.3809 51.7089 27.4089 51.6601 27.4168 51.6083C27.4269 51.5447 27.4531 51.4868 27.4679 51.425C27.4927 51.3222 27.5283 51.2223 27.5638 51.1227C27.5933 51.0397 27.6242 50.9574 27.6551 50.8751C27.6893 50.7834 27.7256 50.6925 27.7644 50.6027C27.8395 50.4298 27.9179 50.2583 28.0059 50.0916C28.0379 50.0312 28.0753 49.9737 28.1098 49.9144C28.1353 49.8705 28.1608 49.827 28.1846 49.7825C28.2457 49.6675 28.3215 49.5618 28.3927 49.4533C28.4631 49.3461 28.5368 49.2408 28.6115 49.1366C28.6511 49.0816 28.6949 49.0295 28.7381 48.977C28.7966 48.9059 28.8606 48.839 28.9152 48.7646C28.9569 48.7082 29.0112 48.6643 29.054 48.6104C29.1665 48.4677 29.3049 48.3509 29.4299 48.2208C29.4662 48.1827 29.5094 48.1515 29.5493 48.1166C29.5891 48.0817 29.6197 48.0375 29.6686 48.0116C29.6916 47.9998 29.7063 47.9725 29.7272 47.9556C29.808 47.8894 29.8867 47.8208 29.9701 47.7572C30.0258 47.7144 30.0808 47.6698 30.1369 47.6267C30.2084 47.5717 30.2799 47.5171 30.3551 47.4661C30.4316 47.4139 30.506 47.3593 30.5844 47.3101C30.6681 47.2572 30.7536 47.2069 30.8374 47.1541C31.0681 47.0082 31.3165 46.8953 31.5613 46.776C31.696 46.7102 31.8348 46.6502 31.9785 46.6031C32.0547 46.5783 32.1306 46.5492 32.2035 46.5172C32.3009 46.4748 32.4019 46.4424 32.5018 46.4112C32.6248 46.3727 32.7488 46.3357 32.8756 46.308C32.9619 46.2893 33.0456 46.257 33.1337 46.2437C33.1603 46.2103 33.2031 46.2394 33.2368 46.2153C33.2634 46.1966 33.3087 46.2074 33.3418 46.1952C33.4068 46.1714 33.4798 46.1811 33.542 46.1474C33.5876 46.1563 33.63 46.1377 33.6735 46.1305C33.7264 46.1215 33.7814 46.1222 33.8317 46.0999C33.8363 46.0978 33.8421 46.0992 33.8475 46.0988C33.9133 46.0934 33.979 46.0888 34.0444 46.0823C34.0779 46.0791 34.1106 46.0697 34.1436 46.0669C34.176 46.064 34.2119 46.0748 34.2407 46.0643C34.3011 46.0424 34.3629 46.0597 34.4218 46.0485C34.5336 46.0273 34.6475 46.0482 34.7572 46.0302C34.8891 46.0086 35.0206 46.0111 35.15 46.0216C35.2679 46.0309 35.3858 46.0205 35.5019 46.0363C35.5734 46.046 35.6442 46.0456 35.7154 46.0507C35.7513 46.0532 35.7847 46.0704 35.8228 46.0669C35.8591 46.0636 35.8969 46.0597 35.9303 46.0823C35.9321 46.0837 35.9357 46.0823 35.9382 46.0827C36.0148 46.0881 36.0913 46.0927 36.1679 46.0996C36.193 46.1017 36.2175 46.1103 36.2426 46.1154C36.2653 46.1197 36.2915 46.1057 36.3102 46.1305C36.3134 46.1344 36.326 46.1333 36.3336 46.1315C36.3824 46.1197 36.4263 46.1459 36.4734 46.1502C36.5179 46.1542 36.5636 46.1714 36.6071 46.1772C36.6764 46.1865 36.7454 46.2009 36.8123 46.2164C36.8935 46.2351 36.9758 46.2527 37.0571 46.2724C37.1706 46.3001 37.2838 46.3325 37.396 46.3637C37.5383 46.4036 37.681 46.4464 37.8197 46.4999C37.9462 46.5488 38.0728 46.5977 38.1986 46.648C38.3107 46.693 38.4203 46.7422 38.5317 46.7878C38.6924 46.854 38.8462 46.9352 38.9993 47.0161C39.1514 47.0962 39.3037 47.1782 39.4461 47.277C39.5255 47.3324 39.61 47.3809 39.6894 47.4362C39.7591 47.4847 39.8281 47.534 39.8971 47.5839C39.9644 47.6325 40.0247 47.6896 40.0952 47.7349C40.1415 47.7647 40.1775 47.81 40.2224 47.8424C40.2734 47.879 40.3115 47.9311 40.3694 47.9588C40.3762 47.962 40.3809 47.9703 40.387 47.9757C40.4866 48.0699 40.5865 48.1637 40.6853 48.2582C40.7364 48.3071 40.7863 48.357 40.8352 48.4081C40.9319 48.5091 41.0329 48.6065 41.1217 48.7139C41.1864 48.7923 41.2572 48.8656 41.3157 48.9501C41.3589 49.0115 41.4114 49.068 41.4574 49.1287C41.5059 49.1927 41.554 49.2563 41.599 49.3228C41.6705 49.4285 41.7409 49.5352 41.8085 49.6434C41.8552 49.7185 41.9005 49.7947 41.9436 49.8723C41.9929 49.9607 42.0428 50.0488 42.0921 50.1369C42.1658 50.2688 42.2236 50.4086 42.2865 50.5455C42.3408 50.6641 42.3857 50.787 42.4339 50.9082C42.4896 51.0487 42.537 51.1914 42.5863 51.3341C42.6093 51.4009 42.6258 51.4699 42.6441 51.5386C42.6618 51.6047 42.6786 51.6712 42.6988 51.7363C42.7171 51.7952 42.7247 51.8556 42.7387 51.9149C42.7487 51.9569 42.7563 51.9993 42.7707 52.0407C42.7825 52.0745 42.7624 52.1151 42.7897 52.1471C42.7868 52.2233 42.8138 52.2955 42.826 52.3692C42.8389 52.4465 42.8443 52.5262 42.8691 52.6028C42.8849 52.6517 42.8842 52.7063 42.8867 52.7584C42.8885 52.798 42.9108 52.8325 42.9051 52.8742C42.9 52.9097 42.8972 52.9482 42.9198 52.9813C42.9213 52.9831 42.9202 52.9867 42.9198 52.9892C42.908 53.102 42.9378 53.2124 42.9367 53.3249C42.9349 53.5258 42.9342 53.727 42.9371 53.928C42.9385 54.043 42.9076 54.1562 42.9198 54.2716C42.8943 54.3301 42.9126 54.393 42.9011 54.4516C42.8925 54.4958 42.89 54.5397 42.8864 54.5839C42.8828 54.6277 42.8778 54.6734 42.8681 54.7151C42.844 54.82 42.8382 54.9278 42.8084 55.0317C42.7969 55.072 42.7922 55.1176 42.7825 55.16C42.7732 55.2024 42.7699 55.2463 42.7559 55.2873C42.7189 55.3976 42.7049 55.5144 42.6639 55.624C42.6474 55.6686 42.6366 55.7171 42.628 55.7635C42.6089 55.8666 42.5661 55.9612 42.5349 56.0596C42.5018 56.1624 42.4626 56.2634 42.4296 56.3662C42.4152 56.4115 42.3915 56.4536 42.3735 56.4978C42.3343 56.5955 42.2948 56.6933 42.2481 56.7882C42.1873 56.9122 42.1363 57.0419 42.0673 57.1612C41.9746 57.3212 41.8944 57.4887 41.7884 57.6414C41.723 57.7356 41.6669 57.8362 41.5993 57.9293C41.5494 57.998 41.5026 58.0688 41.4527 58.1374C41.402 58.2064 41.3441 58.2697 41.2963 58.3412C41.2719 58.3779 41.237 58.4077 41.2097 58.4436C41.1612 58.5069 41.1001 58.5604 41.0505 58.623C40.975 58.7182 40.883 58.7973 40.8036 58.8879C40.7723 58.9235 40.7464 58.9655 40.7094 58.9943C40.5876 59.0888 40.4923 59.2117 40.3755 59.3102C40.2932 59.3796 40.2213 59.459 40.1412 59.5301C40.0898 59.5758 40.0722 59.6376 40.0528 59.6976C40.0359 59.7497 40.0344 59.8058 40.0344 59.8615C40.0355 61.0462 40.0352 62.2304 40.0352 63.4151C40.0352 63.5157 39.9942 63.5991 39.9288 63.6728C39.8849 63.722 39.8353 63.763 39.7724 63.7874C39.7315 63.8032 39.6901 63.8133 39.647 63.819C39.6362 63.8205 39.6251 63.8183 39.6143 63.8194C39.5068 63.8302 39.4116 63.7942 39.3181 63.7472C39.2642 63.7198 39.2096 63.694 39.1532 63.6735C39.0964 63.653 39.0439 63.6235 38.9857 63.6048C38.9145 63.5822 38.8494 63.5408 38.7808 63.5096C38.6712 63.4596 38.5605 63.4118 38.4505 63.3626C38.3772 63.3299 38.3118 63.2792 38.2313 63.2627C38.1795 63.2149 38.1083 63.2052 38.0501 63.1685C37.9908 63.1311 37.9254 63.1034 37.8618 63.0729C37.8007 63.0434 37.7385 63.0165 37.6778 62.9859C37.617 62.9554 37.5563 62.9241 37.4977 62.8899C37.4017 62.8335 37.2982 62.7918 37.2055 62.7289C37.1458 62.6883 37.0721 62.6678 37.0118 62.6279C36.9183 62.5658 36.8166 62.5194 36.7224 62.4587C36.6333 62.4011 36.5395 62.3498 36.4486 62.2944C36.3418 62.2293 36.2372 62.1614 36.1326 62.0931C36.0255 62.023 35.9191 61.9522 35.8138 61.8796C35.7416 61.8297 35.6729 61.7747 35.6007 61.7251C35.513 61.6647 35.4368 61.59 35.3462 61.5335C35.3089 61.5102 35.2837 61.471 35.2442 61.4462C35.1974 61.4174 35.1583 61.3761 35.1177 61.3384C35.0681 61.2924 34.9365 61.209 34.8639 61.1835C34.8352 61.1734 34.805 61.1673 34.7748 61.163C34.7201 61.1558 34.6655 61.1497 34.6105 61.1468C34.5562 61.1439 34.5016 61.1482 34.4477 61.1457C34.3981 61.1432 34.3492 61.1331 34.2996 61.1306C34.2482 61.1277 34.194 61.1396 34.1454 61.1274C34.0926 61.1141 34.0408 61.1141 33.9884 61.1141C33.9567 61.1141 33.9316 61.0904 33.8971 61.0958C33.8701 61.1001 33.8425 61.0972 33.8133 61.0835C33.7867 61.071 33.7479 61.0868 33.717 61.0796C33.6459 61.0634 33.5725 61.062 33.5024 61.0462C33.4144 61.0264 33.3235 61.0206 33.2379 60.9958C33.1599 60.9736 33.0791 60.9646 33.0018 60.9383C32.9529 60.9218 32.8976 60.915 32.8454 60.9024C32.7739 60.8851 32.7042 60.8618 32.6334 60.8438C32.5036 60.8107 32.3793 60.7608 32.2517 60.722C32.1554 60.6925 32.0608 60.6587 31.9688 60.6181C31.9228 60.598 31.875 60.5811 31.8287 60.5635C31.7582 60.5369 31.6896 60.5052 31.6198 60.4768C31.5526 60.4495 31.489 60.4125 31.4225 60.3823C31.3492 60.3493 31.2719 60.3248 31.2033 60.282C31.1217 60.231 31.0333 60.1925 30.9513 60.1419C30.8845 60.1009 30.8158 60.0621 30.7475 60.0236C30.6318 59.9582 30.5222 59.8845 30.4126 59.8109C30.2857 59.726 30.1628 59.6358 30.0427 59.5416C29.9604 59.477 29.8785 59.4123 29.7983 59.345C29.6898 59.2545 29.5856 59.16 29.482 59.064C29.4357 59.0209 29.3821 58.9835 29.3415 58.9346C29.252 58.8264 29.1449 58.7355 29.0543 58.6295C28.9832 58.5461 28.9124 58.4616 28.8423 58.3768C28.7873 58.3099 28.7377 58.2381 28.6788 58.1741C28.6403 58.1324 28.6087 58.0846 28.5767 58.0375C28.4904 57.9103 28.4049 57.783 28.3211 57.6544C28.2586 57.5588 28.1979 57.4621 28.1418 57.3622C28.0469 57.1929 27.9517 57.0236 27.8719 56.8464C27.81 56.7091 27.7475 56.5722 27.6932 56.4313C27.6656 56.3594 27.6271 56.2893 27.6027 56.2163C27.5488 56.0539 27.493 55.8922 27.4402 55.7293C27.4104 55.6377 27.3942 55.5421 27.3698 55.4486C27.3554 55.394 27.3511 55.3369 27.3331 55.2844C27.3151 55.2312 27.3148 55.1751 27.2914 55.1223C27.2742 55.0835 27.2785 55.0353 27.272 54.9918C27.2681 54.9667 27.2598 54.9422 27.2565 54.9171C27.253 54.8915 27.2504 54.8675 27.2425 54.8416C27.2274 54.7924 27.2296 54.7381 27.2231 54.6863C27.2192 54.6558 27.2127 54.6256 27.207 54.5954C27.2012 54.5652 27.2213 54.5303 27.1915 54.5037C27.1886 54.5012 27.1901 54.4933 27.1908 54.4879C27.2034 54.3977 27.1624 54.3125 27.176 54.2194ZM40.5703 53.2408C40.5721 53.2408 40.5739 53.2404 40.5757 53.2404C40.5696 53.1448 40.5631 53.0496 40.557 52.9539C40.5567 52.9486 40.5592 52.9403 40.5567 52.9381C40.5279 52.9144 40.5455 52.8824 40.5405 52.8547C40.5355 52.8271 40.529 52.7998 40.5243 52.7717C40.5175 52.7282 40.5193 52.6819 40.5042 52.6413C40.4693 52.5482 40.4585 52.4493 40.4291 52.3548C40.4021 52.2682 40.3766 52.1808 40.3496 52.0939C40.3137 51.9785 40.277 51.8638 40.2321 51.7513C40.1818 51.6252 40.1297 51.5001 40.0729 51.3772C40.0136 51.2492 39.9496 51.1235 39.8777 51.0016C39.8623 50.9754 39.8504 50.9477 39.8324 50.9225C39.7882 50.8604 39.7465 50.796 39.7099 50.7292C39.6542 50.6271 39.583 50.5362 39.514 50.4438C39.4702 50.3852 39.4166 50.3331 39.3774 50.2716C39.3113 50.1688 39.2247 50.0833 39.1434 49.9949C38.9957 49.8342 38.8394 49.6811 38.6741 49.5377C38.6701 49.5341 38.6669 49.5291 38.6626 49.5262C38.5867 49.4802 38.5256 49.4144 38.4523 49.3648C38.3944 49.326 38.343 49.2789 38.2834 49.2426C38.209 49.197 38.14 49.1431 38.0677 49.0942C37.9437 49.0105 37.8133 48.9375 37.6803 48.8685C37.5595 48.8059 37.4398 48.742 37.314 48.6899C37.2166 48.6496 37.1217 48.6036 37.0218 48.5691C36.941 48.5414 36.8612 48.5116 36.7814 48.4807C36.7476 48.4674 36.7073 48.4652 36.6721 48.4487C36.6355 48.4314 36.5938 48.4307 36.5553 48.4156C36.5208 48.402 36.4827 48.3912 36.4457 48.3858C36.3846 48.3768 36.3278 48.352 36.266 48.3455C36.2275 48.3416 36.1851 48.3401 36.1513 48.3279C36.0881 48.3053 36.0219 48.2988 35.958 48.2852C35.8749 48.2675 35.788 48.2647 35.7031 48.2507C35.6492 48.242 35.5939 48.2453 35.5385 48.2352C35.4638 48.2215 35.3861 48.2316 35.3089 48.2197C35.2158 48.2057 35.1191 48.2136 35.0242 48.2172C34.9315 48.2208 34.838 48.2039 34.7449 48.2305C34.7022 48.2427 34.6526 48.2374 34.6073 48.2312C34.5606 48.2251 34.5203 48.2481 34.4754 48.2496C34.4067 48.2521 34.3384 48.2596 34.2702 48.265C34.2673 48.2654 34.2644 48.2643 34.2619 48.265C34.1875 48.2952 34.1048 48.2852 34.029 48.3121C33.9884 48.3265 33.9399 48.3186 33.8985 48.3319C33.8651 48.3427 33.8302 48.338 33.7997 48.3491C33.6707 48.3948 33.5359 48.4199 33.4047 48.457C33.2537 48.4994 33.1085 48.5565 32.9615 48.6083C32.8623 48.6431 32.7646 48.6841 32.6693 48.7294C32.5442 48.7887 32.4224 48.8552 32.2995 48.9188C32.2208 48.9594 32.1464 49.0087 32.0705 49.0539C31.9386 49.133 31.8136 49.2247 31.6906 49.3174C31.5695 49.409 31.452 49.5057 31.3373 49.6053C31.2543 49.6772 31.1846 49.7631 31.0962 49.8303C31.0699 49.85 31.0559 49.8853 31.0315 49.9086C30.8981 50.0351 30.7817 50.1764 30.6681 50.3205C30.6117 50.392 30.5603 50.4672 30.5031 50.5383C30.4521 50.6016 30.4162 50.6767 30.3684 50.7425C30.3202 50.8086 30.2878 50.8844 30.2397 50.9506C30.2131 50.9869 30.194 51.0293 30.1739 51.0699C30.0956 51.2273 30.0125 51.3826 29.9482 51.5468C29.9079 51.6496 29.8673 51.7524 29.83 51.8567C29.8095 51.9138 29.7958 51.9731 29.7746 52.0292C29.7139 52.1884 29.684 52.3555 29.6384 52.5183C29.6143 52.6039 29.605 52.6948 29.5902 52.7832C29.5769 52.8623 29.5679 52.9424 29.5557 53.0219C29.5485 53.0682 29.5543 53.1146 29.5413 53.1624C29.5288 53.2081 29.5406 53.2594 29.5381 53.3083C29.5352 53.3579 29.5219 53.4072 29.5234 53.4564C29.5277 53.5901 29.5086 53.7238 29.537 53.8575C29.551 53.924 29.5306 53.9941 29.5532 54.0627C29.5694 54.1123 29.5449 54.167 29.5658 54.2205C29.5845 54.2683 29.5705 54.323 29.5848 54.3754C29.6053 54.4498 29.6039 54.53 29.6222 54.6051C29.6298 54.636 29.6229 54.6748 29.6391 54.6942C29.6614 54.7205 29.6416 54.7507 29.6635 54.7758C29.6819 54.7974 29.6632 54.8351 29.6833 54.865C29.6977 54.8865 29.6945 54.9196 29.7016 54.9465C29.7232 55.027 29.7588 55.1036 29.7692 55.1873C29.8289 55.2909 29.8461 55.4102 29.8946 55.5187C29.9335 55.6053 29.9658 55.6956 30.0061 55.7822C30.0442 55.8641 30.0787 55.9479 30.1247 56.0266C30.1743 56.1114 30.2156 56.2013 30.2659 56.2857C30.3191 56.3756 30.3773 56.4629 30.4356 56.5495C30.4787 56.6139 30.5265 56.6746 30.5703 56.7386C30.6074 56.7925 30.6523 56.8407 30.6897 56.8935C30.7443 56.9704 30.8072 57.0398 30.8661 57.1127C30.928 57.1896 31.0067 57.2518 31.0678 57.3309C31.098 57.3697 31.1447 57.3952 31.1803 57.4305C31.2849 57.5332 31.3895 57.6353 31.5059 57.7259C31.5882 57.7899 31.6676 57.8582 31.7525 57.92C31.8254 57.9728 31.8977 58.0267 31.9735 58.0749C32.04 58.1169 32.1076 58.1572 32.1741 58.1989C32.2754 58.2621 32.3807 58.3175 32.4846 58.3753C32.6341 58.4591 32.7926 58.5234 32.9486 58.5935C33.0147 58.6233 33.0852 58.6442 33.1535 58.6694C33.2243 58.6952 33.2947 58.7225 33.3659 58.7466C33.4784 58.7847 33.5952 58.8088 33.7088 58.8437C33.7504 58.8562 33.7975 58.8509 33.8399 58.8624C33.8841 58.8742 33.9298 58.8789 33.9744 58.8907C34.0107 58.9005 34.0509 58.9026 34.0894 58.9084C34.1303 58.9145 34.172 58.9181 34.213 58.9235C34.3158 58.9368 34.42 58.9364 34.5239 58.9425C34.5951 58.9468 34.6684 58.9443 34.7363 58.9619C34.7748 58.972 34.8136 58.968 34.8506 58.9795C34.8894 58.9917 34.9297 59 34.9689 59.0094C35.0343 59.0252 35.0975 59.0525 35.1597 59.0787C35.1899 59.0913 35.2165 59.1121 35.2445 59.1298C35.2747 59.1488 35.3067 59.1657 35.3344 59.188C35.3779 59.2225 35.4235 59.2563 35.4595 59.298C35.5263 59.3745 35.5853 59.4583 35.6514 59.5355C35.71 59.6049 35.7711 59.6725 35.8358 59.7361C35.9238 59.8227 36.0054 59.9154 36.1039 59.9916C36.1797 60.0502 36.2466 60.121 36.317 60.1864C36.3249 60.194 36.3314 60.2033 36.3404 60.2091C36.4148 60.2576 36.478 60.3198 36.5499 60.3712C36.6092 60.4136 36.6631 60.4639 36.7224 60.5063C36.8184 60.5746 36.918 60.6382 37.015 60.7051C37.1577 60.8032 37.3083 60.8887 37.456 60.9789C37.5074 61.0106 37.5689 61.0275 37.6156 61.0638C37.6752 61.1101 37.7457 61.1324 37.8086 61.1705C37.8711 61.2083 37.9376 61.2388 38.0023 61.2729C38.0113 61.2776 38.0188 61.2852 38.0282 61.2888C38.048 61.2959 38.0634 61.2848 38.0641 61.2636C38.0645 61.2446 38.0641 61.2255 38.0641 61.2065C38.0641 60.47 38.0638 59.7339 38.0648 58.9975C38.0648 58.9454 38.0508 58.8907 38.0807 58.8412C38.0796 58.7524 38.1094 58.6694 38.1274 58.5838C38.1543 58.4562 38.2316 58.306 38.3013 58.1906C38.3736 58.0709 38.4706 57.971 38.5619 57.8671C38.6144 57.8075 38.6823 57.7615 38.7377 57.704C38.8685 57.5681 39.0133 57.4459 39.1309 57.2971C39.1819 57.2324 39.2419 57.1745 39.2969 57.1131C39.3303 57.0757 39.3677 57.0405 39.394 56.9984C39.4529 56.9046 39.5226 56.818 39.588 56.7296C39.6736 56.6135 39.7455 56.4895 39.8227 56.3691C39.8918 56.2613 39.9464 56.1437 40.0057 56.0295C40.0255 55.9917 40.0402 55.9515 40.0582 55.9126C40.0768 55.8717 40.1006 55.8321 40.1146 55.7894C40.1297 55.7437 40.1703 55.7085 40.1674 55.6564C40.2318 55.5302 40.2796 55.398 40.3144 55.2607C40.3205 55.2369 40.3443 55.2154 40.3446 55.1924C40.3453 55.1367 40.3867 55.0917 40.3809 55.0357C40.4302 54.9178 40.447 54.7909 40.4769 54.668C40.4815 54.6482 40.4895 54.6292 40.4927 54.6094C40.4959 54.5886 40.4913 54.5656 40.497 54.5458C40.5121 54.4937 40.5265 54.4416 40.5258 54.3866C40.5258 54.3758 40.5211 54.3596 40.5265 54.3549C40.5534 54.3301 40.5373 54.2989 40.5423 54.2712C40.547 54.2435 40.5549 54.2162 40.5581 54.1882C40.5631 54.1415 40.5473 54.0922 40.575 54.0484C40.5692 53.952 40.584 53.8572 40.5901 53.7616C40.5955 53.6749 40.5937 53.5876 40.5905 53.501C40.5854 53.4154 40.5768 53.3281 40.5703 53.2408Z" fill="#2B2B2B"/>
</g>
<defs>
<clipPath id="clip0_2686_56">
<rect width="15.7815" height="17.8068" fill="white" transform="translate(27.1562 46.0126)"/>
</clipPath>
</defs>
</svg>
