<svg width="72" height="29" viewBox="0 0 72 29" fill="none" xmlns="http://www.w3.org/2000/svg">
<path d="M4.3611 23C3.62532 23 3.06455 22.9071 2.67881 22.7214C2.3002 22.5357 2.04304 22.2321 1.90731 21.8106C1.77873 21.3891 1.71444 20.8284 1.71444 20.1283V9.3488C1.71444 9.14164 1.75015 8.98448 1.82159 8.87733C2.14305 8.40586 2.59308 7.90939 3.17171 7.38791C3.27886 7.30219 3.37172 7.25933 3.4503 7.25933C3.53602 7.25933 3.62532 7.30219 3.71818 7.38791C4.0325 7.65937 4.29681 7.9201 4.51111 8.17013C4.72541 8.413 4.91115 8.64874 5.0683 8.87733C5.13974 8.99163 5.17545 9.14878 5.17545 9.3488V18.8532C5.17545 19.3318 5.26118 19.6747 5.43262 19.8819C5.60406 20.089 5.92552 20.1926 6.39699 20.1926L9.68656 20.1819C9.85801 20.1819 9.98659 20.2105 10.0723 20.2676C10.258 20.3962 10.4509 20.5498 10.6509 20.7284C10.851 20.907 11.0617 21.1213 11.2831 21.3713C11.3546 21.4642 11.3903 21.5392 11.3903 21.5963C11.3903 21.6606 11.3546 21.732 11.2831 21.8106C11.0617 22.0606 10.851 22.2749 10.6509 22.4535C10.4509 22.6321 10.258 22.7857 10.0723 22.9143C9.9723 22.9714 9.84372 23 9.68656 23H4.3611ZM18.5699 23.2572C17.2269 23.2572 16.0804 23.0822 15.1303 22.7321C14.1874 22.3821 13.4659 21.7677 12.9659 20.8891C12.473 20.0105 12.2265 18.7782 12.2265 17.1923V9.3488C12.2265 9.14164 12.2622 8.98448 12.3337 8.87733C12.6551 8.40586 13.1052 7.90939 13.6838 7.38791C13.7909 7.30219 13.8838 7.25933 13.9624 7.25933C14.0481 7.25933 14.1374 7.30219 14.2302 7.38791C14.5446 7.65937 14.8089 7.9201 15.0232 8.17013C15.2375 8.413 15.4232 8.64874 15.5804 8.87733C15.6518 8.99163 15.6875 9.14878 15.6875 9.3488V16.6566C15.6875 17.6781 15.7947 18.4567 16.009 18.9925C16.2304 19.5211 16.5555 19.8819 16.9841 20.0747C17.4127 20.2676 17.9413 20.3641 18.5699 20.3641C19.2128 20.3641 19.7486 20.2676 20.1772 20.0747C20.6058 19.8819 20.9273 19.5211 21.1416 18.9925C21.3559 18.4567 21.463 17.6781 21.463 16.6566V9.3488C21.463 9.14164 21.4987 8.98448 21.5702 8.87733C21.8916 8.40586 22.3417 7.90939 22.9203 7.38791C23.0275 7.30219 23.1203 7.25933 23.1989 7.25933C23.2846 7.25933 23.3739 7.30219 23.4668 7.38791C23.7811 7.65937 24.0454 7.9201 24.2597 8.17013C24.474 8.413 24.6597 8.64874 24.8169 8.87733C24.8883 8.99163 24.924 9.14878 24.924 9.3488V17.1923C24.924 18.7782 24.6526 20.0105 24.1097 20.8891C23.5668 21.7677 22.8167 22.3821 21.8595 22.7321C20.9094 23.0822 19.8129 23.2572 18.5699 23.2572Z" fill="#FFFFFF"/>
<path d="M53.0667 8.48088C53.4596 9.03093 53.8596 9.74171 54.2668 10.6132C54.6811 11.4776 55.0811 12.4277 55.4669 13.4635C55.8526 14.4993 56.1991 15.5601 56.5063 16.6459C56.8206 17.7246 57.0777 18.7639 57.2778 19.764C57.4778 20.7641 57.5921 21.6535 57.6206 22.4321C57.6278 22.8107 57.4563 23 57.1063 23H54.5132C54.1775 23 54.0025 22.8321 53.9882 22.4964C53.9596 21.6963 53.831 20.7248 53.6024 19.5819H47.7519C47.5519 20.6962 47.4376 21.6678 47.409 22.4964C47.3947 22.8321 47.2126 23 46.8626 23H44.323C44.1945 23 44.0873 22.9643 44.0016 22.8929C43.9159 22.8143 43.8766 22.6821 43.8837 22.4964C43.9194 21.7035 44.0337 20.8034 44.2266 19.7962C44.4266 18.7818 44.6838 17.7317 44.9981 16.6459C45.3124 15.5601 45.6624 14.4993 46.0482 13.4635C46.4339 12.4205 46.834 11.4669 47.2483 10.6025C47.6626 9.73813 48.0662 9.03093 48.4591 8.48088C48.6663 8.188 48.8842 7.97369 49.1128 7.83797C49.3485 7.70224 49.6378 7.63438 49.9807 7.63438H51.5237C51.8737 7.63438 52.1666 7.70224 52.4023 7.83797C52.6381 7.97369 52.8595 8.188 53.0667 8.48088ZM50.645 11.0204C50.1736 11.7705 49.7414 12.667 49.3485 13.7099C48.9556 14.7529 48.6163 15.8244 48.3305 16.9245H52.9809C52.6809 15.8244 52.3345 14.7529 51.9416 13.7099C51.5487 12.667 51.1379 11.7705 50.7093 11.0204H50.645ZM63.8573 23.2572C62.9501 23.2572 62.1965 23.175 61.5964 23.0107C61.0035 22.8464 60.5249 22.6428 60.1606 22.4C59.8034 22.1499 59.5284 21.9035 59.3355 21.6606C59.2712 21.5677 59.2141 21.4785 59.1641 21.3927C59.1141 21.307 59.0783 21.2106 59.0569 21.1034C59.0283 20.9605 58.9998 20.7748 58.9712 20.5462C58.9426 20.3105 58.939 20.039 58.9605 19.7319C58.9676 19.6033 58.9926 19.514 59.0355 19.464C59.0855 19.4068 59.1676 19.364 59.2819 19.3354C59.4891 19.2854 59.757 19.2425 60.0856 19.2068C60.4213 19.164 60.6606 19.1425 60.8035 19.1425C60.9535 19.1425 61.0749 19.1711 61.1678 19.2283C61.2607 19.2854 61.3714 19.3818 61.5 19.5176C61.6429 19.6676 61.8893 19.8605 62.2393 20.0962C62.5894 20.3248 63.1287 20.4391 63.8573 20.4391C64.5574 20.4391 65.086 20.2926 65.4432 19.9997C65.8004 19.7069 65.9789 19.2997 65.9789 18.7782C65.9789 18.4996 65.8932 18.2389 65.7218 17.996C65.5575 17.746 65.2539 17.4995 64.811 17.2567C64.3681 17.0066 63.7359 16.7459 62.9144 16.4744C61.5571 16.0173 60.5785 15.4494 59.9784 14.7707C59.3784 14.0921 59.0783 13.1491 59.0783 11.9419C59.0783 10.9418 59.3212 10.106 59.807 9.43454C60.2927 8.76305 60.9642 8.25586 61.8214 7.91297C62.6787 7.57009 63.668 7.39864 64.7896 7.39864C65.6539 7.39864 66.3683 7.50222 66.9326 7.70938C67.5041 7.9094 67.947 8.13799 68.2613 8.39516C68.5756 8.64518 68.7792 8.84877 68.8721 9.00593C68.9292 9.09879 68.9649 9.17023 68.9792 9.22023C69.0006 9.26309 69.0149 9.32381 69.0221 9.40239C69.0435 9.62384 69.0506 9.87029 69.0435 10.1417C69.0364 10.4132 69.0114 10.7204 68.9685 11.0633C68.9471 11.1775 68.9078 11.2561 68.8506 11.299C68.8006 11.3347 68.722 11.3526 68.6149 11.3526C67.922 11.3668 67.3862 11.3311 67.0076 11.2454C66.8576 11.2097 66.7576 11.174 66.7076 11.1383C66.6576 11.1025 66.5933 11.0454 66.5147 10.9668C66.4004 10.8311 66.2183 10.6739 65.9682 10.4953C65.7254 10.3096 65.3325 10.2167 64.7896 10.2167C64.0395 10.2167 63.5073 10.3882 63.193 10.7311C62.8787 11.0668 62.7215 11.4454 62.7215 11.8669C62.7215 12.3669 62.9537 12.7598 63.418 13.0456C63.8823 13.3242 64.6145 13.642 65.6146 13.9992C66.4504 14.2921 67.1683 14.61 67.7684 14.9529C68.3684 15.2958 68.8256 15.7351 69.1399 16.2709C69.4614 16.8066 69.6221 17.5138 69.6221 18.3925C69.6221 19.4854 69.3685 20.3926 68.8613 21.1141C68.3613 21.8356 67.6755 22.375 66.804 22.7321C65.9397 23.0822 64.9574 23.2572 63.8573 23.2572Z" fill="#FFFFFF"/>
<g clip-path="url(#clip0_2686_63)">
<path d="M27.176 15.0998C27.1412 14.7972 27.1645 14.4891 27.1574 14.1818C27.1545 14.0614 27.1861 13.9425 27.1739 13.8217C27.1965 13.7685 27.1814 13.711 27.1926 13.6578C27.2019 13.6132 27.199 13.5687 27.2084 13.5259C27.2174 13.4846 27.2156 13.4414 27.2256 13.4026C27.2346 13.3688 27.2296 13.3329 27.2415 13.3038C27.254 13.2725 27.2465 13.2398 27.2573 13.2125C27.2702 13.1787 27.2612 13.1417 27.2742 13.1137C27.29 13.0802 27.2742 13.0407 27.2932 13.0163C27.3173 12.9853 27.2839 12.944 27.3202 12.9207C27.3184 12.8865 27.3313 12.8538 27.3345 12.8215C27.3407 12.7593 27.3651 12.7021 27.3737 12.641C27.3809 12.5893 27.4089 12.5404 27.4168 12.4886C27.4269 12.425 27.4531 12.3672 27.4679 12.3053C27.4927 12.2025 27.5283 12.1026 27.5638 12.0031C27.5933 11.92 27.6242 11.8377 27.6551 11.7554C27.6893 11.6638 27.7256 11.5728 27.7644 11.483C27.8395 11.3101 27.9179 11.1387 28.0059 10.9719C28.0379 10.9115 28.0753 10.854 28.1098 10.7947C28.1353 10.7509 28.1608 10.7074 28.1846 10.6628C28.2457 10.5478 28.3215 10.4421 28.3927 10.3336C28.4631 10.2265 28.5368 10.1212 28.6115 10.0169C28.6511 9.96196 28.6949 9.90984 28.7381 9.85737C28.7966 9.7862 28.8606 9.71935 28.9152 9.64495C28.9569 9.58852 29.0112 9.54468 29.054 9.49076C29.1665 9.34808 29.3049 9.23127 29.4299 9.10116C29.4662 9.06306 29.5094 9.03179 29.5493 8.99693C29.5891 8.96207 29.6197 8.91786 29.6686 8.89198C29.6916 8.88012 29.7063 8.8528 29.7272 8.83591C29.808 8.76978 29.8867 8.70113 29.9701 8.63751C30.0258 8.59474 30.0808 8.55018 30.1369 8.50705C30.2084 8.45206 30.2799 8.39743 30.3551 8.34639C30.4316 8.29427 30.506 8.23964 30.5844 8.1904C30.6681 8.13757 30.7536 8.08725 30.8374 8.03442C31.0681 7.8885 31.3165 7.77564 31.5613 7.65631C31.696 7.59054 31.8348 7.53052 31.9785 7.48344C32.0547 7.45864 32.1306 7.42952 32.2035 7.39754C32.3009 7.35512 32.4019 7.32278 32.5018 7.29151C32.6248 7.25305 32.7488 7.21603 32.8756 7.18836C32.9619 7.16967 33.0456 7.13732 33.1337 7.12402C33.1603 7.0906 33.2031 7.11971 33.2368 7.09563C33.2634 7.07694 33.3087 7.08772 33.3418 7.0755C33.4068 7.05178 33.4798 7.06148 33.542 7.0277C33.5876 7.03668 33.63 7.01799 33.6735 7.01081C33.7264 7.00182 33.7814 7.00254 33.8317 6.98026C33.8363 6.9781 33.8421 6.97954 33.8475 6.97918C33.9133 6.97379 33.979 6.96911 34.0444 6.96264C34.0779 6.95941 34.1106 6.95006 34.1436 6.94719C34.176 6.94431 34.2119 6.9551 34.2407 6.94467C34.3011 6.92275 34.3629 6.94 34.4218 6.92886C34.5336 6.90765 34.6475 6.9285 34.7572 6.91053C34.8891 6.88896 35.0206 6.89148 35.15 6.9019C35.2679 6.91125 35.3858 6.90083 35.5019 6.91664C35.5734 6.92634 35.6442 6.92598 35.7154 6.93102C35.7513 6.93353 35.7847 6.95078 35.8228 6.94719C35.8591 6.94395 35.8969 6.94 35.9303 6.96264C35.9321 6.96408 35.9357 6.96264 35.9382 6.963C36.0148 6.9684 36.0913 6.97307 36.1679 6.9799C36.193 6.98205 36.2175 6.99068 36.2426 6.99571C36.2653 7.00002 36.2915 6.98601 36.3102 7.01081C36.3134 7.01476 36.326 7.01368 36.3336 7.01188C36.3824 7.00002 36.4263 7.02626 36.4734 7.03057C36.5179 7.03453 36.5636 7.05178 36.6071 7.05753C36.6764 7.06687 36.7454 7.08125 36.8123 7.09671C36.8935 7.1154 36.9758 7.13301 37.0571 7.15277C37.1706 7.18045 37.2838 7.2128 37.396 7.24407C37.5383 7.28396 37.681 7.32673 37.8197 7.38028C37.9462 7.42916 38.0728 7.47804 38.1986 7.52836C38.3107 7.57329 38.4203 7.62253 38.5317 7.66817C38.6924 7.73431 38.8462 7.81553 38.9993 7.8964C39.1514 7.97655 39.3037 8.0585 39.4461 8.15734C39.5255 8.21269 39.61 8.26121 39.6894 8.31656C39.7591 8.36508 39.8281 8.41432 39.8971 8.46428C39.9644 8.5128 40.0247 8.56994 40.0952 8.61523C40.1415 8.64506 40.1775 8.69035 40.2224 8.7227C40.2734 8.75936 40.3115 8.81147 40.3694 8.83915C40.3762 8.84238 40.3809 8.85065 40.387 8.85604C40.4866 8.9502 40.5865 9.04401 40.6853 9.13854C40.7364 9.18742 40.7863 9.23738 40.8352 9.28841C40.9319 9.38941 41.0329 9.48681 41.1217 9.59427C41.1864 9.67263 41.2572 9.74595 41.3157 9.83041C41.3589 9.89187 41.4114 9.9483 41.4574 10.009C41.5059 10.073 41.554 10.1366 41.599 10.2031C41.6705 10.3088 41.7409 10.4155 41.8085 10.5237C41.8552 10.5988 41.9005 10.675 41.9436 10.7527C41.9929 10.8411 42.0428 10.9291 42.0921 11.0172C42.1658 11.1491 42.2236 11.2889 42.2865 11.4258C42.3408 11.5445 42.3857 11.6674 42.4339 11.7885C42.4896 11.929 42.537 12.0717 42.5863 12.2144C42.6093 12.2813 42.6258 12.3503 42.6441 12.4189C42.6618 12.485 42.6786 12.5515 42.6988 12.6166C42.7171 12.6755 42.7247 12.7359 42.7387 12.7952C42.7487 12.8373 42.7563 12.8797 42.7707 12.921C42.7825 12.9548 42.7624 12.9954 42.7897 13.0274C42.7868 13.1036 42.8138 13.1758 42.826 13.2495C42.8389 13.3268 42.8443 13.4066 42.8691 13.4831C42.8849 13.532 42.8842 13.5866 42.8867 13.6388C42.8885 13.6783 42.9108 13.7128 42.9051 13.7545C42.9 13.7901 42.8972 13.8285 42.9198 13.8616C42.9213 13.8634 42.9202 13.867 42.9198 13.8695C42.908 13.9824 42.9378 14.0927 42.9367 14.2052C42.9349 14.4061 42.9342 14.6074 42.9371 14.8083C42.9385 14.9233 42.9076 15.0365 42.9198 15.1519C42.8943 15.2105 42.9126 15.2734 42.9011 15.332C42.8925 15.3762 42.89 15.42 42.8864 15.4642C42.8828 15.5081 42.8778 15.5537 42.8681 15.5954C42.844 15.7004 42.8382 15.8082 42.8084 15.9121C42.7969 15.9523 42.7922 15.998 42.7825 16.0404C42.7732 16.0828 42.7699 16.1266 42.7559 16.1676C42.7189 16.2779 42.7049 16.3947 42.6639 16.5044C42.6474 16.5489 42.6366 16.5975 42.628 16.6438C42.6089 16.747 42.5661 16.8415 42.5349 16.94C42.5018 17.0428 42.4626 17.1438 42.4296 17.2466C42.4152 17.2918 42.3915 17.3339 42.3735 17.3781C42.3343 17.4759 42.2948 17.5736 42.2481 17.6685C42.1873 17.7925 42.1363 17.9223 42.0673 18.0416C41.9746 18.2015 41.8944 18.369 41.7884 18.5218C41.723 18.6159 41.6669 18.7166 41.5993 18.8097C41.5494 18.8783 41.5026 18.9491 41.4527 19.0178C41.402 19.0868 41.3441 19.15 41.2963 19.2215C41.2719 19.2582 41.237 19.288 41.2097 19.324C41.1612 19.3872 41.1001 19.4408 41.0505 19.5033C40.975 19.5986 40.883 19.6776 40.8036 19.7682C40.7723 19.8038 40.7464 19.8458 40.7094 19.8746C40.5876 19.9691 40.4923 20.092 40.3755 20.1905C40.2932 20.2599 40.2213 20.3393 40.1412 20.4105C40.0898 20.4561 40.0722 20.5179 40.0528 20.578C40.0359 20.6301 40.0344 20.6862 40.0344 20.7419C40.0355 21.9265 40.0352 23.1108 40.0352 24.2954C40.0352 24.396 39.9942 24.4794 39.9288 24.5531C39.8849 24.6023 39.8353 24.6433 39.7724 24.6677C39.7315 24.6836 39.6901 24.6936 39.647 24.6994C39.6362 24.7008 39.6251 24.6987 39.6143 24.6997C39.5068 24.7105 39.4116 24.6746 39.3181 24.6275C39.2642 24.6002 39.2096 24.5743 39.1532 24.5538C39.0964 24.5333 39.0439 24.5039 38.9857 24.4852C38.9145 24.4625 38.8494 24.4212 38.7808 24.3899C38.6712 24.34 38.5605 24.2922 38.4505 24.2429C38.3772 24.2102 38.3118 24.1595 38.2313 24.143C38.1795 24.0952 38.1083 24.0855 38.0501 24.0488C37.9908 24.0115 37.9254 23.9838 37.8618 23.9532C37.8007 23.9238 37.7385 23.8968 37.6778 23.8663C37.617 23.8357 37.5563 23.8044 37.4977 23.7703C37.4017 23.7139 37.2982 23.6722 37.2055 23.6093C37.1458 23.5687 37.0721 23.5482 37.0118 23.5083C36.9183 23.4461 36.8166 23.3997 36.7224 23.339C36.6333 23.2815 36.5395 23.2301 36.4486 23.1747C36.3418 23.1097 36.2372 23.0418 36.1326 22.9735C36.0255 22.9034 35.9191 22.8326 35.8138 22.76C35.7416 22.71 35.6729 22.655 35.6007 22.6054C35.513 22.545 35.4368 22.4703 35.3462 22.4139C35.3089 22.3905 35.2837 22.3513 35.2442 22.3265C35.1974 22.2978 35.1583 22.2564 35.1177 22.2187C35.0681 22.1727 34.9365 22.0893 34.8639 22.0638C34.8352 22.0537 34.805 22.0476 34.7748 22.0433C34.7201 22.0361 34.6655 22.03 34.6105 22.0271C34.5562 22.0243 34.5016 22.0286 34.4477 22.0261C34.3981 22.0235 34.3492 22.0135 34.2996 22.011C34.2482 22.0081 34.194 22.0199 34.1454 22.0077C34.0926 21.9944 34.0408 21.9944 33.9884 21.9944C33.9567 21.9944 33.9316 21.9707 33.8971 21.9761C33.8701 21.9804 33.8425 21.9775 33.8133 21.9639C33.7867 21.9513 33.7479 21.9671 33.717 21.9599C33.6459 21.9437 33.5725 21.9423 33.5024 21.9265C33.4144 21.9067 33.3235 21.901 33.2379 21.8762C33.1599 21.8539 33.0791 21.8449 33.0018 21.8187C32.9529 21.8021 32.8976 21.7953 32.8454 21.7827C32.7739 21.7655 32.7042 21.7421 32.6334 21.7241C32.5036 21.6911 32.3793 21.6411 32.2517 21.6023C32.1554 21.5728 32.0608 21.539 31.9688 21.4984C31.9228 21.4783 31.875 21.4614 31.8287 21.4438C31.7582 21.4172 31.6896 21.3856 31.6198 21.3572C31.5526 21.3299 31.489 21.2928 31.4225 21.2627C31.3492 21.2296 31.2719 21.2051 31.2033 21.1624C31.1217 21.1113 31.0333 21.0729 30.9513 21.0222C30.8845 20.9812 30.8158 20.9424 30.7475 20.904C30.6318 20.8385 30.5222 20.7649 30.4126 20.6912C30.2857 20.6064 30.1628 20.5162 30.0427 20.422C29.9604 20.3573 29.8785 20.2926 29.7983 20.2254C29.6898 20.1348 29.5856 20.0403 29.482 19.9443C29.4357 19.9012 29.3821 19.8638 29.3415 19.8149C29.252 19.7068 29.1449 19.6158 29.0543 19.5098C28.9832 19.4264 28.9124 19.3419 28.8423 19.2571C28.7873 19.1903 28.7377 19.1184 28.6788 19.0544C28.6403 19.0127 28.6087 18.9649 28.5767 18.9178C28.4904 18.7906 28.4049 18.6634 28.3211 18.5347C28.2586 18.4391 28.1979 18.3424 28.1418 18.2425C28.0469 18.0732 27.9517 17.9039 27.8719 17.7267C27.81 17.5894 27.7475 17.4525 27.6932 17.3116C27.6656 17.2397 27.6271 17.1696 27.6027 17.0967C27.5488 16.9342 27.493 16.7725 27.4402 16.6097C27.4104 16.518 27.3942 16.4224 27.3698 16.329C27.3554 16.2743 27.3511 16.2172 27.3331 16.1647C27.3151 16.1115 27.3148 16.0555 27.2914 16.0026C27.2742 15.9638 27.2785 15.9157 27.272 15.8722C27.2681 15.847 27.2598 15.8226 27.2565 15.7974C27.253 15.7719 27.2504 15.7478 27.2425 15.7219C27.2274 15.6727 27.2296 15.6184 27.2231 15.5667C27.2192 15.5361 27.2127 15.5059 27.207 15.4757C27.2012 15.4455 27.2213 15.4107 27.1915 15.3841C27.1886 15.3816 27.1901 15.3737 27.1908 15.3683C27.2034 15.278 27.1624 15.1929 27.176 15.0998ZM40.5703 14.1211C40.5721 14.1211 40.5739 14.1207 40.5757 14.1207C40.5696 14.0251 40.5631 13.9299 40.557 13.8343C40.5567 13.8289 40.5592 13.8206 40.5567 13.8185C40.5279 13.7947 40.5455 13.7628 40.5405 13.7351C40.5355 13.7074 40.529 13.6801 40.5243 13.6521C40.5175 13.6086 40.5193 13.5622 40.5042 13.5216C40.4693 13.4285 40.4585 13.3297 40.4291 13.2351C40.4021 13.1485 40.3766 13.0612 40.3496 12.9742C40.3137 12.8588 40.277 12.7442 40.2321 12.6317C40.1818 12.5055 40.1297 12.3805 40.0729 12.2575C40.0136 12.1296 39.9496 12.0038 39.8777 11.8819C39.8623 11.8557 39.8504 11.828 39.8324 11.8029C39.7882 11.7407 39.7465 11.6764 39.7099 11.6095C39.6542 11.5074 39.583 11.4165 39.514 11.3241C39.4702 11.2656 39.4166 11.2134 39.3774 11.152C39.3113 11.0492 39.2247 10.9636 39.1434 10.8752C38.9957 10.7146 38.8394 10.5615 38.6741 10.4181C38.6701 10.4145 38.6669 10.4094 38.6626 10.4066C38.5867 10.3605 38.5256 10.2948 38.4523 10.2452C38.3944 10.2064 38.343 10.1593 38.2834 10.123C38.209 10.0773 38.14 10.0234 38.0677 9.97453C37.9437 9.89079 37.8133 9.81783 37.6803 9.74882C37.5595 9.68629 37.4398 9.62231 37.314 9.57019C37.2166 9.52994 37.1217 9.48393 37.0218 9.44943C36.941 9.42176 36.8612 9.39192 36.7814 9.36102C36.7476 9.34772 36.7073 9.34556 36.6721 9.32903C36.6355 9.31178 36.5938 9.31106 36.5553 9.29596C36.5208 9.2823 36.4827 9.27152 36.4457 9.26613C36.3846 9.25714 36.3278 9.23234 36.266 9.22588C36.2275 9.22192 36.1851 9.22048 36.1513 9.20826C36.0881 9.18562 36.0219 9.17915 35.958 9.16549C35.8749 9.14788 35.788 9.14501 35.7031 9.13099C35.6492 9.12236 35.5939 9.1256 35.5385 9.11554C35.4638 9.10188 35.3861 9.11194 35.3089 9.10008C35.2158 9.08606 35.1191 9.09397 35.0242 9.09756C34.9315 9.10116 34.838 9.08427 34.7449 9.11086C34.7022 9.12308 34.6526 9.11769 34.6073 9.11158C34.5606 9.10547 34.5203 9.12847 34.4754 9.12991C34.4067 9.13243 34.3384 9.13998 34.2702 9.14537C34.2673 9.14573 34.2644 9.14465 34.2619 9.14537C34.1875 9.17556 34.1048 9.16549 34.029 9.19245C33.9884 9.20683 33.9399 9.19892 33.8985 9.21222C33.8651 9.223 33.8302 9.21833 33.7997 9.22947C33.6707 9.27512 33.5359 9.30027 33.4047 9.33729C33.2537 9.3797 33.1085 9.43685 32.9615 9.48861C32.8623 9.52347 32.7646 9.56444 32.6693 9.60973C32.5442 9.66903 32.4224 9.73552 32.2995 9.79914C32.2208 9.83975 32.1464 9.88899 32.0705 9.93428C31.9386 10.0134 31.8136 10.105 31.6906 10.1977C31.5695 10.2894 31.452 10.3861 31.3373 10.4856C31.2543 10.5575 31.1846 10.6434 31.0962 10.7106C31.0699 10.7304 31.0559 10.7656 31.0315 10.789C30.8981 10.9155 30.7817 11.0567 30.6681 11.2009C30.6117 11.2724 30.5603 11.3475 30.5031 11.4187C30.4521 11.4819 30.4162 11.557 30.3684 11.6228C30.3202 11.6889 30.2878 11.7648 30.2397 11.8309C30.2131 11.8672 30.194 11.9096 30.1739 11.9502C30.0956 12.1077 30.0125 12.2629 29.9482 12.4272C29.9079 12.53 29.8673 12.6328 29.83 12.737C29.8095 12.7941 29.7958 12.8534 29.7746 12.9095C29.7139 13.0687 29.684 13.2359 29.6384 13.3987C29.6143 13.4842 29.605 13.5751 29.5902 13.6636C29.5769 13.7426 29.5679 13.8228 29.5557 13.9022C29.5485 13.9486 29.5543 13.9949 29.5413 14.0427C29.5288 14.0884 29.5406 14.1398 29.5381 14.1887C29.5352 14.2383 29.5219 14.2875 29.5234 14.3367C29.5277 14.4704 29.5086 14.6041 29.537 14.7379C29.551 14.8043 29.5306 14.8744 29.5532 14.9431C29.5694 14.9927 29.5449 15.0473 29.5658 15.1009C29.5845 15.1487 29.5705 15.2033 29.5848 15.2558C29.6053 15.3302 29.6039 15.4103 29.6222 15.4854C29.6298 15.5163 29.6229 15.5552 29.6391 15.5746C29.6614 15.6008 29.6416 15.631 29.6635 15.6562C29.6819 15.6777 29.6632 15.7155 29.6833 15.7453C29.6977 15.7669 29.6945 15.7999 29.7016 15.8269C29.7232 15.9074 29.7588 15.9839 29.7692 16.0677C29.8289 16.1712 29.8461 16.2905 29.8946 16.3991C29.9335 16.4857 29.9658 16.5759 30.0061 16.6625C30.0442 16.7445 30.0787 16.8282 30.1247 16.9069C30.1743 16.9917 30.2156 17.0816 30.2659 17.1661C30.3191 17.2559 30.3773 17.3432 30.4356 17.4299C30.4787 17.4942 30.5265 17.5549 30.5703 17.6189C30.6074 17.6728 30.6523 17.721 30.6897 17.7738C30.7443 17.8507 30.8072 17.9201 30.8661 17.9931C30.928 18.07 31.0067 18.1322 31.0678 18.2112C31.098 18.25 31.1447 18.2756 31.1803 18.3108C31.2849 18.4136 31.3895 18.5157 31.5059 18.6062C31.5882 18.6702 31.6676 18.7385 31.7525 18.8003C31.8254 18.8531 31.8977 18.9071 31.9735 18.9552C32.04 18.9973 32.1076 19.0375 32.1741 19.0792C32.2754 19.1425 32.3807 19.1978 32.4846 19.2557C32.6341 19.3394 32.7926 19.4038 32.9486 19.4739C33.0147 19.5037 33.0852 19.5245 33.1535 19.5497C33.2243 19.5756 33.2947 19.6029 33.3659 19.627C33.4784 19.6651 33.5952 19.6891 33.7088 19.724C33.7504 19.7366 33.7975 19.7312 33.8399 19.7427C33.8841 19.7546 33.9298 19.7592 33.9744 19.7711C34.0107 19.7808 34.0509 19.7829 34.0894 19.7887C34.1303 19.7948 34.172 19.7984 34.213 19.8038C34.3158 19.8171 34.42 19.8167 34.5239 19.8228C34.5951 19.8272 34.6684 19.8246 34.7363 19.8422C34.7748 19.8523 34.8136 19.8484 34.8506 19.8599C34.8894 19.8721 34.9297 19.8803 34.9689 19.8897C35.0343 19.9055 35.0975 19.9328 35.1597 19.9591C35.1899 19.9716 35.2165 19.9925 35.2445 20.0101C35.2747 20.0291 35.3067 20.046 35.3344 20.0683C35.3779 20.1028 35.4235 20.1366 35.4595 20.1783C35.5263 20.2549 35.5853 20.3386 35.6514 20.4159C35.71 20.4852 35.7711 20.5528 35.8358 20.6164C35.9238 20.703 36.0054 20.7958 36.1039 20.872C36.1797 20.9306 36.2466 21.0014 36.317 21.0668C36.3249 21.0743 36.3314 21.0837 36.3404 21.0894C36.4148 21.1379 36.478 21.2001 36.5499 21.2515C36.6092 21.2939 36.6631 21.3442 36.7224 21.3867C36.8184 21.4549 36.918 21.5186 37.015 21.5854C37.1577 21.6835 37.3083 21.7691 37.456 21.8593C37.5074 21.8909 37.5689 21.9078 37.6156 21.9441C37.6752 21.9905 37.7457 22.0128 37.8086 22.0508C37.8711 22.0886 37.9376 22.1191 38.0023 22.1533C38.0113 22.158 38.0188 22.1655 38.0282 22.1691C38.048 22.1763 38.0634 22.1651 38.0641 22.1439C38.0645 22.1249 38.0641 22.1058 38.0641 22.0868C38.0641 21.3504 38.0638 20.6143 38.0648 19.8778C38.0648 19.8257 38.0508 19.7711 38.0807 19.7215C38.0796 19.6327 38.1094 19.5497 38.1274 19.4641C38.1543 19.3366 38.2316 19.1863 38.3013 19.0709C38.3736 18.9513 38.4706 18.8513 38.5619 18.7475C38.6144 18.6878 38.6823 18.6418 38.7377 18.5843C38.8685 18.4484 39.0133 18.3262 39.1309 18.1774C39.1819 18.1128 39.2419 18.0549 39.2969 17.9934C39.3303 17.956 39.3677 17.9208 39.394 17.8788C39.4529 17.785 39.5226 17.6983 39.588 17.6099C39.6736 17.4938 39.7455 17.3698 39.8227 17.2494C39.8918 17.1416 39.9464 17.0241 40.0057 16.9098C40.0255 16.8721 40.0402 16.8318 40.0582 16.793C40.0768 16.752 40.1006 16.7125 40.1146 16.6697C40.1297 16.6241 40.1703 16.5888 40.1674 16.5367C40.2318 16.4106 40.2796 16.2783 40.3144 16.141C40.3205 16.1173 40.3443 16.0957 40.3446 16.0727C40.3453 16.017 40.3867 15.9721 40.3809 15.916C40.4302 15.7981 40.447 15.6712 40.4769 15.5483C40.4815 15.5286 40.4895 15.5095 40.4927 15.4897C40.4959 15.4689 40.4913 15.4459 40.497 15.4261C40.5121 15.374 40.5265 15.3219 40.5258 15.2669C40.5258 15.2561 40.5211 15.24 40.5265 15.2353C40.5534 15.2105 40.5373 15.1792 40.5423 15.1515C40.547 15.1239 40.5549 15.0965 40.5581 15.0685C40.5631 15.0218 40.5473 14.9725 40.575 14.9287C40.5692 14.8324 40.584 14.7375 40.5901 14.6419C40.5955 14.5553 40.5937 14.4679 40.5905 14.3813C40.5854 14.2958 40.5768 14.2084 40.5703 14.1211Z" fill="#FFFFFF"/>
</g>
<defs>
<clipPath id="clip0_2686_63">
<rect width="15.7815" height="17.8068" fill="white" transform="translate(27.1562 6.89296)"/>
</clipPath>
</defs>
</svg>
