<svg width="72" height="38" viewBox="0 0 72 38" fill="none" xmlns="http://www.w3.org/2000/svg">
<path d="M34.6228 0.00216253C34.6507 0.00144312 34.6777 0.00071941 34.7055 0C43.7917 0.0636678 52.5001 3.64237 59.0054 9.98577C65.525 16.331 69.2219 25.0061 69.4899 34.0778C69.534 35.5391 68.8325 36.9635 67.1806 36.8961C66.9189 36.8844 66.6617 36.8251 66.4207 36.7216C64.6141 35.9447 65.0439 34.0238 64.9118 32.3503C64.3074 25.5393 61.4271 19.1312 56.7348 14.1584C51.0631 8.16368 43.2197 4.7017 34.9681 4.55179C34.1516 4.54766 33.336 4.57761 32.5221 4.64155C19.4767 5.75159 8.5835 15.0387 5.42413 27.7443C5.03843 29.3603 4.7647 31.0005 4.6049 32.6543C4.45805 34.2729 4.84743 36.7999 2.34685 36.8988C-0.936356 37.0292 0.0876383 32.0796 0.392848 30.0023C1.42466 22.694 4.75508 15.9044 9.90209 10.6152C16.3784 3.89498 25.2903 0.0690676 34.6228 0.00216253Z" fill="#D4A95F"/>
<path d="M33.2512 9.70596C34.1297 9.64526 35.011 9.63627 35.8905 9.67907C42.5639 10.0084 48.839 12.9568 53.3515 17.884C56.8307 21.6951 59.0492 26.4873 59.7038 31.6059C59.8324 32.6086 59.9314 33.542 59.908 34.5572C59.8756 35.9295 58.8343 37.0446 57.4035 36.8701C56.6005 36.7748 55.9135 36.2488 55.6131 35.4979C55.3433 34.8099 55.4324 33.3127 55.3271 32.4251C54.9018 28.8263 53.5178 25.4073 51.3191 22.526C47.5809 17.5567 42.6682 15.133 36.6297 14.2752C34.3231 14.0689 31.9973 14.2656 29.7575 14.8565C21.9581 16.8454 15.9991 23.1438 14.4452 31.042C14.0368 33.0699 14.7222 36.3998 12.2331 36.8306C10.8741 37.0653 9.61864 36.0024 9.63293 34.6283C9.77097 21.3048 20.0222 10.6493 33.2512 9.70596Z" fill="#4E54C8"/>
<path d="M33.3367 19.3262C34.262 19.23 35.7638 19.2822 36.6693 19.3991C40.8203 19.9368 44.5864 22.105 47.1358 25.4241C49.1385 28.0482 50.4757 31.5886 50.2743 34.9231C50.205 36.084 48.8085 37.1469 47.6682 36.8619C45.2834 36.2647 46.0306 33.9249 45.5208 32.1488C44.2555 27.7352 40.8761 24.7785 36.3825 23.9997C30.5673 23.3477 25.392 26.72 24.0546 32.5535C23.8297 33.5346 23.8968 35.1164 23.3792 35.9131C23.068 36.3843 22.5823 36.7117 22.0292 36.825C20.7558 37.0903 19.3025 36.1676 19.297 34.8277C19.2633 26.5869 25.3912 20.3406 33.3367 19.3262Z" fill="#4E54C8"/>
<path d="M34.2913 31.2503C36.1024 30.9562 37.8111 32.1792 38.1159 33.9886C38.4208 35.797 37.2077 37.5128 35.4001 37.8285C33.5782 38.1468 31.8446 36.9211 31.5372 35.0974C31.2296 33.2728 32.4656 31.547 34.2913 31.2503Z" fill="#4E54C8"/>
</svg>
